<svg width="825" height="815" viewBox="0 0 825 815" fill="none" xmlns="http://www.w3.org/2000/svg">
<path opacity="0.3" d="M723.712 698.182C706.903 715.664 690.998 726.938 678.432 735.845C530.72 840.546 355.938 810.026 318.792 802.573C263.939 791.567 157.909 770.293 81.2513 681.237C-34.7254 546.502 -16.6659 334.232 73.2933 194.11C89.7484 168.479 176.668 26.2223 353.333 3.40902C460.248 -10.3975 584.877 17.4487 675.13 92.1466C864.579 248.945 851.092 565.705 723.712 698.182Z" fill="url(#paint0_linear_1_123)"/>
<path opacity="0.81" d="M337.467 748.503C332.3 655.391 297.769 570.453 175.176 510.026C175.177 510.026 156.149 738.435 337.467 748.503Z" fill="url(#paint1_linear_1_123)"/>
<path opacity="0.51" d="M303.802 708.082C303.554 708.082 303.305 707.989 303.114 707.802C233.773 640.127 190.45 540.842 190.021 539.847C189.805 539.347 190.036 538.766 190.535 538.55C191.035 538.333 191.616 538.565 191.832 539.065C192.26 540.056 235.436 638.992 304.491 706.389C304.881 706.77 304.889 707.395 304.508 707.784C304.315 707.983 304.058 708.082 303.802 708.082Z" fill="white"/>
<path opacity="0.81" d="M551.185 742.69C634.914 750.417 715.243 730.872 785.378 629.539C785.378 629.54 584.185 582.31 551.185 742.69Z" fill="url(#paint2_linear_1_123)"/>
<path opacity="0.51" d="M598.692 715.336C598.466 715.336 598.239 715.259 598.054 715.102C597.639 714.75 597.588 714.128 597.94 713.712C622.97 684.208 663.952 665.461 693.925 654.929C726.355 643.534 753.249 639.032 753.517 638.989C754.057 638.893 754.562 639.263 754.651 639.801C754.74 640.339 754.376 640.846 753.838 640.935C752.773 641.111 646.832 659.131 599.445 714.988C599.25 715.218 598.972 715.336 598.692 715.336Z" fill="white"/>
<path d="M347.175 566.231L329.571 724.119H533.818L507.214 566.231H347.175Z" fill="url(#paint3_linear_1_123)"/>
<path d="M4.07715 177.229V538.834C4.07715 568.58 27.7819 592.906 57.5187 593.673C189.594 597.079 651.531 605.337 777.258 603.484C798.868 603.165 816.373 585.872 816.996 564.27C819.421 480.264 823.358 278.259 808.787 184.476C805.718 164.726 789.048 149.958 769.071 149.318C658.408 145.778 168.725 134.537 43.0566 137.359C21.3834 137.846 4.07715 155.55 4.07715 177.229Z" fill="url(#paint4_linear_1_123)"/>
<path d="M26.7667 175.469V519.018C26.7667 536.386 40.7084 550.537 58.0741 550.797L759.171 559.459C776.388 559.716 790.5 545.864 790.564 528.645L791.737 188.166C791.783 175.854 781.974 165.766 769.666 165.466L51.8734 150.965C38.1074 150.63 26.7667 161.698 26.7667 175.469Z" fill="url(#paint5_linear_1_123)"/>
<path opacity="0.65" d="M795.843 573.553C795.837 573.553 795.831 573.553 795.826 573.553L26.7499 560.448C26.2053 560.439 25.7712 559.99 25.7803 559.446C25.7893 558.9 26.2205 558.423 26.7835 558.476L795.859 571.581C796.404 571.59 796.838 572.039 796.829 572.584C796.819 573.123 796.379 573.553 795.843 573.553Z" fill="white"/>
<path opacity="0.65" d="M418.891 589.557C413.935 589.557 409.903 585.525 409.903 580.569C409.903 575.613 413.935 571.581 418.891 571.581C423.847 571.581 427.88 575.613 427.88 580.569C427.88 585.525 423.847 589.557 418.891 589.557ZM418.891 573.554C415.023 573.554 411.876 576.701 411.876 580.569C411.876 584.437 415.023 587.584 418.891 587.584C422.76 587.584 425.907 584.437 425.907 580.569C425.907 576.701 422.76 573.554 418.891 573.554Z" fill="white"/>
<path d="M538.867 747.072C628.68 702.488 697.966 632.354 705.695 485.601C705.695 485.601 471.937 563.644 538.867 747.072Z" fill="url(#paint6_linear_1_123)"/>
<path opacity="0.51" d="M553.393 713.944C553.285 713.944 553.175 713.927 553.067 713.889C552.553 713.709 552.282 713.146 552.462 712.631C573.901 651.515 605.762 604.393 628.715 575.624C653.593 544.443 673.685 527.479 673.884 527.311C674.302 526.961 674.924 527.017 675.274 527.433C675.624 527.851 675.57 528.473 675.152 528.823C674.357 529.49 595.166 596.855 554.324 713.284C554.182 713.69 553.8 713.944 553.393 713.944Z" fill="white"/>
<path d="M577.813 756.423H278.883C270.762 756.423 264.663 750.642 266.234 744.432L270.07 729.262C271.223 724.7 276.242 721.351 282.203 721.165L570.382 712.172C576.61 711.978 582.124 715.284 583.481 720.025L590.396 744.187C592.192 750.465 586.065 756.423 577.813 756.423Z" fill="url(#paint7_linear_1_123)"/>
<path d="M439.802 725.287C439.264 725.287 438.824 724.854 438.816 724.315C438.809 723.77 439.243 723.321 439.788 723.314L452.137 723.133C452.142 723.133 452.147 723.133 452.152 723.133C452.69 723.133 453.13 723.565 453.138 724.105C453.146 724.649 452.711 725.098 452.166 725.105L439.817 725.287C439.812 725.287 439.808 725.287 439.802 725.287Z" fill="white"/>
<path d="M277.301 748.072C277.249 748.072 277.197 748.068 277.144 748.059C276.607 747.974 276.24 747.468 276.326 746.931L278.088 735.897C279.035 729.962 284.084 725.59 290.094 725.501L421.072 723.586C421.59 723.545 422.065 724.014 422.073 724.558C422.08 725.104 421.645 725.552 421.101 725.559L290.123 727.474C285.074 727.548 280.832 731.221 280.035 736.207L278.274 747.241C278.197 747.726 277.777 748.072 277.301 748.072Z" fill="white"/>
<path d="M651.933 29.0606C656.403 29.2721 660.913 29.6817 665.338 30.2762C665.945 30.3576 666.538 30.3042 667.089 30.1379C668.601 29.682 669.786 28.3786 670.009 26.7109C670.315 24.4367 668.719 22.3445 666.444 22.0388C661.784 21.413 657.034 20.9828 652.326 20.7596C650.033 20.6514 648.087 22.4215 647.979 24.7141C647.87 27.0055 649.641 28.9518 651.933 29.0606Z" fill="url(#paint8_linear_1_123)"/>
<path d="M535.517 66.7554C533.929 65.0982 531.299 65.0419 529.641 66.6306C526.245 69.8861 522.947 73.3292 519.84 76.8601C518.325 78.5836 518.493 81.2084 520.216 82.7248C521.335 83.7096 522.835 83.9827 524.165 83.5818C524.882 83.3654 525.55 82.9538 526.081 82.3493C529.033 78.994 532.166 75.7245 535.393 72.6303C537.049 71.0422 537.104 68.4109 535.517 66.7554Z" fill="url(#paint9_linear_1_123)"/>
<path d="M484.561 160.664C482.289 160.357 480.193 161.947 479.883 164.221C479.248 168.885 478.809 173.632 478.578 178.33C478.465 180.623 480.233 182.572 482.524 182.686C483.013 182.71 483.486 182.648 483.929 182.515C485.564 182.021 486.79 180.543 486.879 178.739C487.098 174.277 487.515 169.77 488.118 165.341C488.428 163.068 486.834 160.973 484.561 160.664Z" fill="url(#paint10_linear_1_123)"/>
<path d="M511.629 93.9627C509.713 92.6978 507.135 93.2279 505.873 95.1447C503.278 99.0776 500.824 103.165 498.58 107.288C497.482 109.303 498.226 111.827 500.242 112.924C501.258 113.477 502.402 113.563 503.429 113.253C504.439 112.949 505.334 112.261 505.878 111.262C508.012 107.342 510.344 103.458 512.811 99.7203C514.074 97.8031 513.545 95.2261 511.629 93.9627Z" fill="url(#paint11_linear_1_123)"/>
<path d="M616.734 31.3628C621.14 30.5749 625.629 29.9649 630.078 29.5539C630.361 29.5277 630.635 29.4719 630.898 29.3929C632.751 28.834 634.017 27.0332 633.832 25.0326C633.621 22.7479 631.596 21.0665 629.311 21.2777C624.631 21.7115 619.906 22.3529 615.27 23.1817C613.007 23.5761 611.508 25.7456 611.911 28.0043C612.316 30.2628 614.474 31.7666 616.734 31.3628Z" fill="url(#paint12_linear_1_123)"/>
<path d="M494.352 125.789C492.203 124.982 489.808 126.068 488.998 128.213C487.34 132.616 485.851 137.146 484.572 141.677C483.95 143.885 485.236 146.181 487.445 146.804C488.235 147.026 489.037 147.005 489.769 146.784C491.083 146.388 492.172 145.351 492.573 143.933C493.785 139.627 495.2 135.325 496.775 131.143C497.584 128.995 496.499 126.598 494.352 125.789Z" fill="url(#paint13_linear_1_123)"/>
<path d="M482.817 196.827C480.523 197.042 478.846 199.056 479.053 201.341C479.475 206.014 480.107 210.737 480.927 215.378C481.328 217.638 483.485 219.146 485.745 218.746C485.909 218.717 486.069 218.678 486.225 218.631C488.213 218.032 489.484 216.026 489.112 213.93C488.331 209.519 487.731 205.033 487.329 200.591C487.123 198.307 485.103 196.621 482.817 196.827Z" fill="url(#paint14_linear_1_123)"/>
<path d="M550.943 59.2589C551.373 59.1294 551.789 58.9258 552.174 58.6489C555.796 56.0355 559.576 53.5474 563.41 51.2552C565.379 50.076 566.021 47.5244 564.843 45.555C563.665 43.5845 561.118 42.9538 559.143 44.1224C555.107 46.5369 551.126 49.1568 547.312 51.9095C545.451 53.2522 545.03 55.8491 546.374 57.7108C547.438 59.1872 549.293 59.7566 550.943 59.2589Z" fill="url(#paint15_linear_1_123)"/>
<path d="M582.484 41.5277C582.624 41.4851 582.765 41.4347 582.903 41.3775C587.017 39.6415 591.259 38.0604 595.514 36.6785C597.698 35.9706 598.892 33.6269 598.184 31.4431C597.484 29.2891 595.192 28.0969 593.033 28.748C593.005 28.7565 592.976 28.7652 592.949 28.7751C588.469 30.2282 584.002 31.8924 579.673 33.7188C577.559 34.6126 576.568 37.0493 577.46 39.1643C578.293 41.1389 580.476 42.1333 582.484 41.5277Z" fill="url(#paint16_linear_1_123)"/>
<path d="M494.368 235.099C493.672 232.94 491.36 231.689 489.198 232.341C489.172 232.349 489.147 232.356 489.12 232.364C486.924 233.027 485.754 235.466 486.458 237.651C487.907 242.14 489.6 246.738 491.417 251.066C492.247 253.045 494.422 254.009 496.433 253.402C496.571 253.36 496.689 253.245 496.825 253.187C498.942 252.3 499.941 249.876 499.052 247.76C497.327 243.648 495.744 239.365 494.368 235.099Z" fill="url(#paint17_linear_1_123)"/>
<path d="M698.294 33.9293C699.004 31.7484 697.81 29.4027 695.628 28.6927C693.484 27.9949 691.292 27.3304 689.109 26.7172C686.899 26.0921 684.604 27.3826 683.983 29.5923C683.362 31.8006 684.65 34.0961 686.859 34.7166C688.934 35.3012 691.019 35.9319 693.056 36.5958C693.894 36.8686 694.755 36.8598 695.539 36.6235C696.797 36.244 697.856 35.2752 698.294 33.9293Z" fill="url(#paint18_linear_1_123)"/>
<path d="M628.969 343.528C624.591 343.099 620.179 342.477 615.857 341.68C613.597 341.263 611.433 342.755 611.017 345.013C610.601 347.27 612.092 349.436 614.349 349.852C618.901 350.692 623.548 351.347 628.158 351.799C628.715 351.853 629.257 351.796 629.762 351.644C631.326 351.172 632.529 349.796 632.699 348.069C632.924 345.786 631.253 343.751 628.969 343.528Z" fill="url(#paint19_linear_1_123)"/>
<path d="M800.415 124.886C801.32 126.748 803.43 127.63 805.35 127.051C805.559 126.988 805.766 126.908 805.969 126.81C808.033 125.808 808.895 123.322 807.893 121.257C806.908 119.228 805.863 117.185 804.79 115.186C803.704 113.165 801.192 112.402 799.163 113.493C797.141 114.579 796.383 117.098 797.469 119.12C798.49 121.018 799.481 122.958 800.415 124.886Z" fill="url(#paint20_linear_1_123)"/>
<path d="M819.299 174.281C817.022 174.503 815.343 176.534 815.565 178.819C815.992 183.199 816.235 187.646 816.291 192.037C816.319 194.331 818.203 196.169 820.498 196.139C820.897 196.134 821.283 196.074 821.647 195.964C823.375 195.443 824.624 193.827 824.6 191.932C824.543 187.309 824.286 182.627 823.838 178.015C823.616 175.73 821.583 174.058 819.299 174.281Z" fill="url(#paint21_linear_1_123)"/>
<path d="M819.721 209.92C817.448 209.634 815.367 211.248 815.081 213.525C814.533 217.885 813.79 222.278 812.873 226.585C812.396 228.829 813.827 231.036 816.072 231.513C816.782 231.664 817.485 231.624 818.134 231.429C819.538 231.005 820.674 229.851 821.002 228.314C821.967 223.781 822.749 219.154 823.326 214.561C823.613 212.285 821.999 210.206 819.721 209.92Z" fill="url(#paint22_linear_1_123)"/>
<path d="M791.668 278.433C789.311 282.141 786.765 285.8 784.104 289.305C782.716 291.133 783.073 293.74 784.9 295.128C786.002 295.964 787.386 296.167 788.616 295.796C789.428 295.551 790.171 295.057 790.722 294.332C793.524 290.643 796.202 286.794 798.683 282.89C799.914 280.952 799.342 278.385 797.404 277.154C795.464 275.922 792.897 276.494 791.668 278.433Z" fill="url(#paint23_linear_1_123)"/>
<path d="M742.881 327.162C739.159 329.515 735.296 331.734 731.401 333.756C729.364 334.815 728.57 337.322 729.628 339.36C730.564 341.161 732.635 341.99 734.511 341.424C734.755 341.351 734.996 341.254 735.231 341.132C739.333 339.001 743.402 336.665 747.321 334.188C749.261 332.962 749.84 330.395 748.614 328.454C747.388 326.515 744.822 325.939 742.881 327.162Z" fill="url(#paint24_linear_1_123)"/>
<path d="M769.961 305.505C766.846 308.618 763.566 311.632 760.213 314.461C758.458 315.941 758.236 318.563 759.717 320.317C760.819 321.624 762.556 322.081 764.094 321.616C764.621 321.458 765.125 321.19 765.572 320.813C769.103 317.834 772.556 314.661 775.836 311.383C777.458 309.761 777.46 307.131 775.839 305.508C774.216 303.883 771.585 303.883 769.961 305.505Z" fill="url(#paint25_linear_1_123)"/>
<path d="M812.286 244.776C810.125 243.995 807.746 245.115 806.966 247.272C805.475 251.405 803.786 255.528 801.949 259.533C800.992 261.619 801.907 264.085 803.994 265.042C804.951 265.482 805.989 265.526 806.925 265.244C808.026 264.912 808.986 264.126 809.503 262.998C811.436 258.785 813.212 254.443 814.783 250.096C815.562 247.936 814.444 245.556 812.286 244.776Z" fill="url(#paint26_linear_1_123)"/>
<path d="M677.898 350.354C673.526 350.896 669.083 351.261 664.694 351.436C662.404 351.52 660.616 353.459 660.707 355.753C660.798 358.045 662.731 359.83 665.023 359.739C669.645 359.555 674.322 359.172 678.922 358.6C679.161 358.57 679.393 358.521 679.615 358.454C681.518 357.88 682.787 356.003 682.534 353.964C682.251 351.687 680.175 350.07 677.898 350.354Z" fill="url(#paint27_linear_1_123)"/>
<path d="M711.681 342.339C707.565 343.805 703.322 345.116 699.023 346.257C696.814 346.835 695.484 349.122 696.073 351.34C696.661 353.558 698.937 354.879 701.155 354.292C703.017 353.798 704.865 353.275 706.695 352.722C709.307 351.934 711.922 351.076 714.468 350.169C716.63 349.4 717.76 347.023 716.989 344.86C716.219 342.698 713.846 341.573 711.681 342.339Z" fill="url(#paint28_linear_1_123)"/>
<path d="M816.364 142.265C815.653 140.084 813.322 138.839 811.127 139.601C808.944 140.31 807.751 142.655 808.461 144.838C808.821 145.945 809.172 147.06 809.51 148.181C810.444 151.276 811.295 154.443 812.039 157.595C812.567 159.829 814.805 161.211 817.039 160.684C817.122 160.663 817.205 160.642 817.287 160.617C819.373 159.988 820.635 157.834 820.127 155.685C819.344 152.369 818.448 149.037 817.466 145.781C817.111 144.601 816.743 143.43 816.364 142.265Z" fill="url(#paint29_linear_1_123)"/>
<path d="M594.919 336.304C592.891 335.632 590.838 334.905 588.818 334.143C586.67 333.331 584.275 334.416 583.463 336.563C582.653 338.71 583.736 341.108 585.884 341.918C588.011 342.721 590.172 343.487 592.308 344.194C593.15 344.472 594.019 344.466 594.81 344.227C596.061 343.85 597.116 342.889 597.558 341.554C598.279 339.374 597.097 337.024 594.919 336.304Z" fill="url(#paint30_linear_1_123)"/>
<path d="M780.524 152.085L757.133 148.787C752.658 138.824 746.682 129.808 739.56 121.931L709.368 127.733L686.294 152.751L706.664 196.855L655.11 195.133L624.977 217.569L629.068 257.162L597.38 251.018L586.593 261.717L580.505 284.479C580.29 285.279 580.608 286.127 581.295 286.591L604.801 302.445C605.488 302.909 606.393 302.885 607.055 302.387L625.939 288.169C636.257 292.092 647.275 294.398 658.627 294.831L670.448 315.283C670.863 316.001 671.687 316.376 672.5 316.218L700.333 310.807C701.146 310.649 701.77 309.992 701.885 309.172L705.183 285.781C715.546 281.127 724.898 274.861 732.995 267.358L755.831 273.466C756.631 273.68 757.479 273.362 757.942 272.676L773.797 249.17C774.261 248.482 774.237 247.577 773.738 246.915L759.521 228.031C763.444 217.713 765.75 206.695 766.183 195.343L786.635 183.522C787.352 183.107 787.728 182.283 787.57 181.47L782.159 153.637C782.002 152.824 781.345 152.2 780.524 152.085Z" fill="url(#paint31_linear_1_123)"/>
<path opacity="0.6" d="M671.954 211.086C661.952 215.79 650.175 212.203 644.334 203.168L638.998 207.148C645.93 217.515 658.925 222.206 670.873 218.602C672.192 218.205 673.499 217.705 674.781 217.103C683.434 213.037 689.084 205.149 690.685 196.392L683.939 196.153C682.491 202.484 678.274 208.117 671.954 211.086Z" fill="url(#paint32_linear_1_123)"/>
<path opacity="0.6" d="M730.015 170.409C725.557 155.638 716.42 142.881 703.752 133.822L701.48 136.286C713.721 144.929 722.548 157.175 726.834 171.375C727.491 173.554 728.043 175.78 728.482 178.045C730.993 190.959 729.582 203.743 725.08 215.16C716.988 235.687 698.914 251.8 675.693 256.309C671.019 257.219 666.254 257.632 661.532 257.536C660.615 257.519 659.854 258.245 659.836 259.163C659.832 259.342 659.857 259.516 659.906 259.68C660.109 260.351 660.725 260.845 661.464 260.859C661.744 260.864 662.026 260.713 662.307 260.715C662.451 260.717 662.595 260.562 662.74 260.562C662.791 260.562 662.841 260.562 662.892 260.562C666.625 260.562 670.372 260.415 674.079 259.817C674.831 259.695 675.581 259.641 676.328 259.495C678.702 259.034 681.035 258.494 683.319 257.805C698.716 253.161 711.939 243.463 721.053 229.95C731.52 214.432 735.317 195.776 731.746 177.4C731.284 175.023 730.705 172.696 730.015 170.409Z" fill="url(#paint33_linear_1_123)"/>
<path d="M604.919 239.168L601.021 201.443L631.154 179.007L681.382 180.686C681.99 180.706 682.407 180.078 682.151 179.525L662.339 136.626L685.413 111.608L715.604 105.805C715.319 105.489 715.044 105.162 714.754 104.85L720.862 82.014C721.076 81.2138 720.758 80.3661 720.072 79.9031L696.565 64.0481C695.878 63.5843 694.973 63.6082 694.311 64.1065L675.427 78.3241C665.109 74.4005 654.091 72.0945 642.739 71.6622L630.918 51.2095C630.503 50.4921 629.679 50.1167 628.866 50.2748L601.034 55.6855C600.22 55.8436 599.597 56.5006 599.481 57.3212L596.183 80.7123C585.82 85.3657 576.468 91.6318 568.371 99.135L545.536 93.0273C544.736 92.8126 543.887 93.1303 543.424 93.8173L527.569 117.324C527.106 118.01 527.13 118.915 527.628 119.577L541.845 138.461C537.922 148.78 535.616 159.798 535.184 171.15L514.731 182.971C514.014 183.385 513.638 184.209 513.796 185.023L519.207 212.855C519.365 213.669 520.022 214.292 520.842 214.408L544.233 217.705C548.887 228.069 555.153 237.42 562.656 245.517L562.636 245.59L573.424 234.891L603.268 240.678C604.186 240.857 605.015 240.098 604.919 239.168Z" fill="url(#paint34_linear_1_123)"/>
<path opacity="0.6" d="M620.378 187.043C619.85 186.226 619.352 185.381 618.928 184.476C613.804 173.572 618.506 160.53 629.411 155.406C630.401 154.942 631.411 154.556 632.438 154.246C636.899 152.901 641.656 153.019 646.118 154.628C651.609 156.608 656 160.607 658.482 165.891C660.637 170.476 661.034 175.434 659.983 180.028L666.73 180.267C667.76 174.629 667.117 168.633 664.499 163.062C661.262 156.172 655.535 150.955 648.373 148.373C641.214 145.79 633.475 146.149 626.584 149.389C612.362 156.073 606.228 173.081 612.911 187.305C613.53 188.621 614.257 189.849 615.043 191.023L620.378 187.043Z" fill="url(#paint35_linear_1_123)"/>
<path opacity="0.6" d="M678.186 116.561C662.667 106.093 644.002 102.295 625.628 105.867C587.708 113.239 562.835 150.097 570.209 188.031C570.665 190.369 571.236 192.675 571.92 194.941C574.883 204.76 579.964 213.822 586.826 221.459C587.441 222.145 588.489 222.196 589.174 221.584C589.669 221.14 589.834 220.465 589.654 219.868C589.587 219.641 589.469 219.426 589.3 219.238C582.763 211.964 577.925 203.333 575.103 193.979C574.451 191.821 573.906 189.623 573.473 187.395C566.45 151.266 590.116 116.161 626.263 109.131C643.765 105.728 661.546 109.346 676.328 119.317C676.734 119.591 677.126 119.88 677.524 120.161L679.796 117.697C679.262 117.315 678.732 116.929 678.186 116.561Z" fill="url(#paint36_linear_1_123)"/>
<path d="M129.107 196.706C174.248 196.706 210.842 160.112 210.842 114.971C210.842 69.8298 174.248 33.2358 129.107 33.2358C83.9663 33.2358 47.3723 69.8298 47.3723 114.971C47.3723 160.112 83.9663 196.706 129.107 196.706Z" fill="white"/>
<path d="M129.107 193.988C172.747 193.988 208.124 158.611 208.124 114.971C208.124 71.3308 172.747 35.9536 129.107 35.9536C85.4672 35.9536 50.0901 71.3308 50.0901 114.971C50.0901 158.611 85.4672 193.988 129.107 193.988Z" fill="url(#paint37_linear_1_123)"/>
<path d="M194.265 82.9814C194.391 82.9814 194.52 82.9528 194.64 82.8915C195.052 82.6836 195.217 82.1815 195.009 81.7705C182.376 56.7419 157.124 41.1938 129.107 41.1938C124.639 41.1938 120.162 41.5964 115.799 42.3922C115.345 42.4745 115.044 42.9091 115.127 43.363C115.209 43.8172 115.643 44.1203 116.098 44.034C120.362 43.2572 124.739 42.8636 129.107 42.8636C156.49 42.8636 181.171 58.0605 193.519 82.5225C193.666 82.8134 193.96 82.9814 194.265 82.9814Z" fill="white"/>
<path d="M127.386 183.571C164.322 183.571 194.264 153.628 194.264 116.692C194.264 79.7565 164.322 49.814 127.386 49.814C90.45 49.814 60.5074 79.7565 60.5074 116.692C60.5074 153.628 90.45 183.571 127.386 183.571Z" fill="white"/>
<path d="M131.526 129.696L123.957 129.515C121.847 129.465 120.102 127.661 119.992 125.538L117.221 72.2154C117.164 71.1165 117.559 70.2104 118.313 69.4668C119.067 68.7238 120.112 68.4849 121.203 68.5608L134.238 69.4686C135.306 69.543 136.325 69.8974 137.059 70.7323C137.791 71.566 138.174 72.566 138.119 73.6404L135.423 125.992C135.315 128.085 133.605 129.746 131.526 129.696Z" fill="url(#paint38_linear_1_123)"/>
<path d="M119.845 142.722C121.735 140.917 124.394 140.043 127.814 140.098C131.338 140.154 134.01 141.084 135.839 142.882C137.664 144.675 138.574 147.296 138.574 150.748C138.574 154.076 137.643 156.651 135.778 158.477C133.908 160.309 131.256 161.226 127.814 161.226C124.435 161.226 121.787 160.279 119.877 158.382C117.961 156.479 117.001 153.875 117.001 150.576C117.001 147.151 117.95 144.532 119.845 142.722Z" fill="url(#paint39_linear_1_123)"/>
<path d="M427.474 79.3658L216.481 433.883C211.849 441.667 217.903 451.19 227.534 451.269L645.786 454.711C655.453 454.79 661.689 445.305 657.137 437.444L449.879 79.4848C445.114 71.2553 432.341 71.1876 427.474 79.3658Z" fill="url(#paint40_linear_1_123)"/>
<path d="M428.539 100.544L236.916 422.516C232.709 429.585 238.208 438.233 246.955 438.305L626.81 441.431C635.59 441.503 641.253 432.889 637.119 425.75L448.887 100.652C444.56 93.1783 432.96 93.1168 428.539 100.544Z" fill="url(#paint41_linear_1_123)"/>
<path d="M395.601 321.169L386.239 321.29V338.007L370.085 338.276V321.5L336.338 321.939V309.947L370.997 257.33L386.239 257.347V308.05L395.601 307.955V321.169ZM370.085 308.213V294.481C370.085 292.193 370.173 288.87 370.353 284.514C370.531 280.158 370.676 277.63 370.782 276.927L370.353 276.929C369.028 279.961 367.434 282.921 365.571 285.812L351.109 308.404L370.085 308.213Z" fill="url(#paint42_linear_1_123)"/>
<path d="M457.343 297.123C457.343 310.99 455.182 321.282 450.853 328.011C446.515 334.752 439.819 338.204 430.743 338.358C421.911 338.507 415.228 335.149 410.716 328.271C406.194 321.38 403.93 311.132 403.93 297.54C403.93 283.36 406.132 272.905 410.531 266.181C414.922 259.471 421.666 256.126 430.743 256.138C439.541 256.15 446.169 259.644 450.645 266.608C455.114 273.559 457.343 283.727 457.343 297.123ZM420.109 297.413C420.109 307.234 420.923 314.261 422.549 318.493C424.175 322.721 426.907 324.808 430.743 324.755C434.503 324.703 437.215 322.52 438.882 318.207C440.548 313.899 441.38 306.913 441.38 297.248C441.38 287.474 440.539 280.456 438.856 276.19C437.171 271.923 434.468 269.79 430.743 269.797C426.942 269.803 424.218 271.951 422.575 276.241C420.931 280.535 420.109 287.593 420.109 297.413Z" fill="url(#paint43_linear_1_123)"/>
<path d="M521.547 319.532L512.699 319.646V335.898L497.432 336.153V319.845L465.551 320.259V308.604L498.294 257.468L512.699 257.483V306.775L521.547 306.685V319.532ZM497.432 306.928V293.58C497.432 291.356 497.516 288.126 497.685 283.891C497.855 279.658 497.99 277.199 498.092 276.517L497.685 276.518C496.433 279.465 494.928 282.343 493.167 285.152L479.505 307.109L497.432 306.928Z" fill="url(#paint44_linear_1_123)"/>
<path d="M359.153 408.723L334.23 409.522V364.998L359.153 364.44V372.134L343.438 372.512V382.268L358.062 381.885V389.58L343.438 389.988V401.447L359.153 400.97V408.723Z" fill="url(#paint45_linear_1_123)"/>
<path d="M378.68 391.177V408.097L369.613 408.388V364.207L382.063 363.928C387.845 363.799 392.114 364.791 394.879 366.903C397.64 369.012 399.018 372.277 399.018 376.7C399.018 379.282 398.334 381.597 396.964 383.646C395.593 385.695 393.651 387.326 391.137 388.539C397.514 398.233 401.659 404.479 403.584 407.299L393.632 407.618L383.49 391.041L378.68 391.177ZM378.68 383.578L381.596 383.5C384.451 383.424 386.556 382.875 387.913 381.857C389.269 380.838 389.947 379.276 389.947 377.17C389.947 375.084 389.254 373.617 387.869 372.768C386.483 371.918 384.335 371.528 381.421 371.598L378.68 371.664V383.578Z" fill="url(#paint46_linear_1_123)"/>
<path d="M419.269 390.027V406.796L410.364 407.081V363.295L422.592 363.021C428.272 362.894 432.465 363.878 435.181 365.972C437.893 368.063 439.247 371.299 439.247 375.683C439.247 378.242 438.575 380.536 437.229 382.566C435.883 384.598 433.975 386.214 431.505 387.415C437.77 397.025 441.841 403.217 443.732 406.011L433.956 406.324L423.994 389.893L419.269 390.027ZM419.269 382.495L422.134 382.419C424.938 382.344 427.006 381.801 428.339 380.792C429.671 379.782 430.337 378.234 430.337 376.147C430.337 374.079 429.657 372.625 428.296 371.784C426.935 370.941 424.825 370.554 421.963 370.623L419.27 370.688V382.495H419.269Z" fill="url(#paint47_linear_1_123)"/>
<path d="M487.601 383.028C487.601 390.152 485.932 395.678 482.59 399.609C479.243 403.547 474.438 405.618 468.163 405.82C461.871 406.022 457.027 404.252 453.642 400.503C450.252 396.749 448.555 391.257 448.555 384.031C448.555 376.805 450.256 371.245 453.656 367.355C457.05 363.471 461.908 361.462 468.219 361.322C474.512 361.182 479.313 362.982 482.632 366.719C485.945 370.45 487.601 375.885 487.601 383.028ZM457.732 383.84C457.732 388.681 458.606 392.3 460.351 394.698C462.096 397.094 464.7 398.238 468.163 398.133C475.089 397.922 478.545 392.97 478.545 383.274C478.545 373.56 475.109 368.785 468.219 368.949C464.757 369.032 462.142 370.324 460.379 372.824C458.615 375.327 457.732 379 457.732 383.84Z" fill="url(#paint48_linear_1_123)"/>
<path d="M505.993 387.57V404.016L497.427 404.29V361.348L509.189 361.085C514.653 360.963 518.687 361.93 521.299 363.984C523.908 366.036 525.212 369.211 525.212 373.511C525.212 376.021 524.565 378.271 523.27 380.262C521.975 382.253 520.14 383.837 517.764 385.014C523.79 394.443 527.707 400.519 529.527 403.261L520.122 403.563L510.538 387.441L505.993 387.57ZM505.993 380.182L508.748 380.109C511.446 380.037 513.435 379.505 514.717 378.516C515.998 377.527 516.639 376.009 516.639 373.961C516.639 371.934 515.984 370.507 514.675 369.681C513.366 368.854 511.336 368.474 508.583 368.54L505.993 368.602V380.182Z" fill="url(#paint49_linear_1_123)"/>
<path d="M177.768 779.805C177.768 779.805 175.668 791.693 174.638 803.46C174.236 808.059 177.782 812.053 182.394 812.245C198.065 812.897 231.585 814.167 243.614 813.63C245.422 813.549 246.604 811.698 245.935 810.016C245.374 808.607 244.292 807.468 242.914 806.835L187.545 781.387L177.768 779.805Z" fill="url(#paint50_linear_1_123)"/>
<path d="M176.047 772.821L177.734 787.04C177.734 787.04 187.433 791.555 194.057 786.471L190.041 770.625L176.047 772.821Z" fill="url(#paint51_linear_1_123)"/>
<path d="M177.315 505.496C176.587 509.209 173.404 690.796 192.814 772.171C193.131 773.499 192.458 774.867 191.194 775.384C188.217 776.6 182.38 778.361 175.386 778.596C173.22 778.669 171.278 777.261 170.667 775.182C165.119 756.302 138.532 661.706 135.063 571.341C131.188 470.368 135.063 567.903 135.063 567.903L137.337 505.488L177.315 505.496Z" fill="url(#paint52_linear_1_123)"/>
<path d="M114.074 786.007C114.074 786.007 110.731 792.009 107.495 807.955C106.911 810.835 108.923 813.591 111.848 813.879C117.022 814.388 124.988 815.042 131.369 814.998C134.311 814.978 136.607 812.417 136.252 809.496C135.545 803.675 133.343 794.125 126.541 786.682L114.074 786.007Z" fill="url(#paint53_linear_1_123)"/>
<path d="M111.138 767.718L115.08 789.221C115.08 789.221 118.978 792.12 126.689 790.019L124.807 766.883L111.138 767.718Z" fill="url(#paint54_linear_1_123)"/>
<path d="M100.489 511.068C84.614 606.875 103.933 747.862 110.448 775.457C110.847 777.146 112.21 778.441 113.923 778.724C116.831 779.207 121.619 779.6 126.339 778.229C127.966 777.757 129.108 776.29 129.175 774.597C130.049 752.288 128.475 615.329 143.267 561.203C144.017 558.46 145.692 556.068 148.01 554.42L176.72 534.01L178.921 501.018L100.489 511.068Z" fill="url(#paint55_linear_1_123)"/>
<path d="M241.827 374.5C239.414 391.663 236.866 395.607 234.887 395.709C228.587 396.035 229.857 357.339 206.815 337.765C192.261 325.401 172.381 324.384 156.784 325.825C164.062 351.925 171.339 378.024 178.616 404.123C181.794 411.921 195.65 443.459 226.998 453.032C233.381 454.981 242.88 457.881 251.715 454.084C269.154 446.588 277.333 415.871 269.535 377.409C265.869 376.048 260.795 374.597 241.827 374.5Z" fill="url(#paint56_linear_1_123)"/>
<path d="M236.271 307.57L239.156 323.881C243.791 343.831 244.232 360.46 241.826 374.5C245.809 374.664 249.988 374.945 254.344 375.375C259.716 375.905 264.788 376.604 269.534 377.409C267.028 357.12 253.526 323.428 253.526 323.428C245.384 311.674 244.414 319.324 236.271 307.57Z" fill="url(#paint57_linear_1_123)"/>
<path d="M269.253 273.2C265.985 273.114 262.855 274.519 260.746 277.017L240.167 301.401C240.167 301.401 236.422 300.636 236.071 293.464C235.721 286.291 228.102 285.428 228.102 285.428C228.102 285.428 229.2 295.431 231.292 310.235C232.489 318.702 237.493 324.881 241.56 328.624L253.465 324.527C264.385 308.917 271.164 291.712 274.932 273.349L269.253 273.2Z" fill="url(#paint58_linear_1_123)"/>
<path d="M75.3031 339.539C76.6747 339.179 86.0478 329.495 87.4568 329.226C110.559 324.824 168.221 309.294 206.814 337.765C206.911 338.587 206.971 339.243 207.01 339.787C207.384 340.295 207.897 341.147 208.601 342.512C212.246 349.576 216.619 356.44 221.626 362.853C220.525 363.946 219.609 365.229 218.942 366.658C209.669 386.524 174.515 465.857 180.693 514.371C181.012 516.877 179.307 519.185 176.805 519.531C163.159 521.418 122.519 526.021 101.523 517.35C100.301 516.845 99.5192 515.647 99.5385 514.325C99.6764 504.592 99.2648 462.347 83.7771 411.424C83.2001 409.526 82.7293 407.598 82.3527 405.652C82.1616 406.044 81.9825 406.432 81.7975 406.821L75.3031 339.539Z" fill="url(#paint59_linear_1_123)"/>
<path d="M110.558 324.824C67.4768 327.974 58.4737 352.593 28.7007 337.54L33.9725 383.644C45.0128 395.836 61.6814 404.139 82.6854 407.252L110.558 324.824Z" fill="url(#paint60_linear_1_123)"/>
<path d="M139.995 283.127C132.613 297.843 129.532 312.83 128.607 326.784C130.195 327.375 151.383 342.073 165.565 327.846C162.533 318.082 163.034 303.382 163.806 288.305L139.995 283.127Z" fill="url(#paint61_linear_1_123)"/>
<path d="M178.432 244.441C178.837 245.098 189.426 295.032 189.426 295.032L160.786 300.472L143.719 254.635C143.718 254.635 171.637 233.446 178.432 244.441Z" fill="url(#paint62_linear_1_123)"/>
<path d="M154.652 258.71C153.885 259.759 153.646 261.095 154.003 262.344L160.995 286.818C161.102 287.189 161.253 287.54 161.457 287.867C162.587 289.672 166.645 295.13 172.115 290.649C176.778 286.83 181.116 283.384 185.004 282.526C187.274 282.024 189.504 283.509 189.978 285.786C190.954 290.474 192.732 299.975 193.126 308.638C193.225 310.809 191.616 312.68 189.459 312.947C183.767 313.65 172.61 314.69 163.272 313.517C161.738 313.325 160.441 312.308 159.884 310.866C157.433 304.519 150.492 286.758 147.761 282.046C145.223 277.668 138.484 277.255 135.383 277.31C134.206 277.331 133.082 276.867 132.266 276.019C129.816 273.476 125.893 267.727 132.547 261.559C134.202 260.025 134.269 257.41 132.77 255.724C130.084 252.704 127.625 247.727 132.746 242.109C137.931 236.423 144.185 237.465 148.201 239.086C149.978 239.803 152.101 239.34 153.265 237.818C153.782 237.141 154.576 236.658 155.793 236.734C158.087 236.876 160.049 235.269 160.207 232.976C160.476 229.043 162.33 224.337 169.175 222.658C181.729 219.577 188.684 231.949 188.901 240.876C189.119 249.804 175.318 252.37 167.361 251.282C161.517 250.483 156.764 255.821 154.652 258.71Z" fill="url(#paint63_linear_1_123)"/>
<path d="M152.052 291.33C152.052 291.33 149.387 275.522 143.02 274.374C136.652 273.226 130.087 278.116 135.934 287.16C143.208 298.409 152.052 291.33 152.052 291.33Z" fill="url(#paint64_linear_1_123)"/>
<path d="M141.55 234.457C142.661 234.412 143.866 234.518 145.196 234.799C148.223 235.441 152.256 236.997 151.205 239.908C149.628 244.281 141.444 240.195 137.086 247.246C133.247 253.458 136.39 260.204 135.214 266.899C134.643 270.156 132.55 274.992 129.641 276.894C128.34 277.745 118.064 279.372 117.502 277.549C117.502 277.549 114.647 268.283 114.646 268.279C112.077 259.943 121.947 246.051 127.038 240.435C130.972 236.095 136.301 234.672 141.55 234.457Z" fill="url(#paint65_linear_1_123)"/>
<path d="M131.811 267.916L121.982 276.098C103.135 284.114 89.4419 293.56 79.5187 303.779C75.9256 297.02 70.1088 289.207 60.8358 283.111C79.8337 273.753 93.9761 269.866 93.9761 269.866C132.317 254.446 131.811 267.916 131.811 267.916Z" fill="url(#paint66_linear_1_123)"/>
<path d="M79.5182 303.779C48.5328 335.688 57.5874 319.473 57.3409 346.671C57.249 356.812 48.4488 395.532 48.4488 395.532C-46.313 354.595 32.7677 298.718 60.8356 283.111C70.1084 289.207 75.9251 297.02 79.5182 303.779Z" fill="url(#paint67_linear_1_123)"/>
<defs>
<linearGradient id="paint0_linear_1_123" x1="921.321" y1="1055.54" x2="194.868" y2="153.329" gradientUnits="userSpaceOnUse">
<stop stop-color="#B37CFF"/>
<stop offset="1" stop-color="#F895E7"/>
</linearGradient>
<linearGradient id="paint1_linear_1_123" x1="167.918" y1="544.422" x2="567.144" y2="1005.56" gradientUnits="userSpaceOnUse">
<stop stop-color="#B37CFF"/>
<stop offset="1" stop-color="#F895E7"/>
</linearGradient>
<linearGradient id="paint2_linear_1_123" x1="755.661" y1="618.508" x2="291.492" y2="913.483" gradientUnits="userSpaceOnUse">
<stop stop-color="#B37CFF"/>
<stop offset="1" stop-color="#F895E7"/>
</linearGradient>
<linearGradient id="paint3_linear_1_123" x1="435.753" y1="804.49" x2="425.154" y2="594.619" gradientUnits="userSpaceOnUse">
<stop stop-color="#2B3582"/>
<stop offset="1" stop-color="#150E42"/>
</linearGradient>
<linearGradient id="paint4_linear_1_123" x1="4.07706" y1="370.33" x2="819.371" y2="370.33" gradientUnits="userSpaceOnUse">
<stop stop-color="#2B3582"/>
<stop offset="1" stop-color="#150E42"/>
</linearGradient>
<linearGradient id="paint5_linear_1_123" x1="547.736" y1="193.894" x2="-140.245" y2="982.002" gradientUnits="userSpaceOnUse">
<stop stop-color="#53D8FF"/>
<stop offset="1" stop-color="#3840F7"/>
</linearGradient>
<linearGradient id="paint6_linear_1_123" x1="668.632" y1="493.013" x2="382.241" y2="1083.01" gradientUnits="userSpaceOnUse">
<stop stop-color="#A737D5"/>
<stop offset="1" stop-color="#EF497A"/>
</linearGradient>
<linearGradient id="paint7_linear_1_123" x1="436.413" y1="725.297" x2="338.897" y2="939.409" gradientUnits="userSpaceOnUse">
<stop stop-color="#2B3582"/>
<stop offset="1" stop-color="#150E42"/>
</linearGradient>
<linearGradient id="paint8_linear_1_123" x1="668.739" y1="-83.9352" x2="619.43" y2="470.923" gradientUnits="userSpaceOnUse">
<stop stop-color="#18459F"/>
<stop offset="0.9901" stop-color="#3E60F9"/>
</linearGradient>
<linearGradient id="paint9_linear_1_123" x1="542.823" y1="-95.1243" x2="493.516" y2="459.719" gradientUnits="userSpaceOnUse">
<stop stop-color="#18459F"/>
<stop offset="0.9901" stop-color="#3E60F9"/>
</linearGradient>
<linearGradient id="paint10_linear_1_123" x1="507.291" y1="-98.2847" x2="457.984" y2="456.564" gradientUnits="userSpaceOnUse">
<stop stop-color="#18459F"/>
<stop offset="0.9901" stop-color="#3E60F9"/>
</linearGradient>
<linearGradient id="paint11_linear_1_123" x1="523.575" y1="-96.8359" x2="474.268" y2="458.01" gradientUnits="userSpaceOnUse">
<stop stop-color="#18459F"/>
<stop offset="0.9901" stop-color="#3E60F9"/>
</linearGradient>
<linearGradient id="paint12_linear_1_123" x1="632.93" y1="-87.1139" x2="583.624" y2="467.721" gradientUnits="userSpaceOnUse">
<stop stop-color="#18459F"/>
<stop offset="0.9901" stop-color="#3E60F9"/>
</linearGradient>
<linearGradient id="paint13_linear_1_123" x1="511.537" y1="-97.9074" x2="462.23" y2="456.941" gradientUnits="userSpaceOnUse">
<stop stop-color="#18459F"/>
<stop offset="0.9901" stop-color="#3E60F9"/>
</linearGradient>
<linearGradient id="paint14_linear_1_123" x1="511.277" y1="-97.9321" x2="461.969" y2="456.919" gradientUnits="userSpaceOnUse">
<stop stop-color="#18459F"/>
<stop offset="0.9901" stop-color="#3E60F9"/>
</linearGradient>
<linearGradient id="paint15_linear_1_123" x1="568.337" y1="-92.8563" x2="519.03" y2="461.986" gradientUnits="userSpaceOnUse">
<stop stop-color="#18459F"/>
<stop offset="0.9901" stop-color="#3E60F9"/>
</linearGradient>
<linearGradient id="paint16_linear_1_123" x1="598.893" y1="-90.1401" x2="549.586" y2="464.7" gradientUnits="userSpaceOnUse">
<stop stop-color="#18459F"/>
<stop offset="0.9901" stop-color="#3E60F9"/>
</linearGradient>
<linearGradient id="paint17_linear_1_123" x1="523.007" y1="-96.8895" x2="473.699" y2="457.962" gradientUnits="userSpaceOnUse">
<stop stop-color="#18459F"/>
<stop offset="0.9901" stop-color="#3E60F9"/>
</linearGradient>
<linearGradient id="paint18_linear_1_123" x1="701.181" y1="-81.0514" x2="651.873" y2="473.805" gradientUnits="userSpaceOnUse">
<stop stop-color="#18459F"/>
<stop offset="0.9901" stop-color="#3E60F9"/>
</linearGradient>
<linearGradient id="paint19_linear_1_123" x1="660.173" y1="-84.7081" x2="610.864" y2="470.157" gradientUnits="userSpaceOnUse">
<stop stop-color="#18459F"/>
<stop offset="0.9901" stop-color="#3E60F9"/>
</linearGradient>
<linearGradient id="paint20_linear_1_123" x1="819.053" y1="-64.5532" x2="769.745" y2="490.297" gradientUnits="userSpaceOnUse">
<stop stop-color="#18459F"/>
<stop offset="0.9901" stop-color="#3E60F9"/>
</linearGradient>
<linearGradient id="paint21_linear_1_123" x1="842.086" y1="-62.5063" x2="792.778" y2="492.344" gradientUnits="userSpaceOnUse">
<stop stop-color="#18459F"/>
<stop offset="0.9901" stop-color="#3E60F9"/>
</linearGradient>
<linearGradient id="paint22_linear_1_123" x1="843.233" y1="-62.4034" x2="793.926" y2="492.444" gradientUnits="userSpaceOnUse">
<stop stop-color="#18459F"/>
<stop offset="0.9901" stop-color="#3E60F9"/>
</linearGradient>
<linearGradient id="paint23_linear_1_123" x1="822.441" y1="-64.2497" x2="773.134" y2="490.595" gradientUnits="userSpaceOnUse">
<stop stop-color="#18459F"/>
<stop offset="0.9901" stop-color="#3E60F9"/>
</linearGradient>
<linearGradient id="paint24_linear_1_123" x1="774.979" y1="-68.465" x2="725.672" y2="486.377" gradientUnits="userSpaceOnUse">
<stop stop-color="#18459F"/>
<stop offset="0.9901" stop-color="#3E60F9"/>
</linearGradient>
<linearGradient id="paint25_linear_1_123" x1="801.588" y1="-66.1023" x2="752.281" y2="488.741" gradientUnits="userSpaceOnUse">
<stop stop-color="#18459F"/>
<stop offset="0.9901" stop-color="#3E60F9"/>
</linearGradient>
<linearGradient id="paint26_linear_1_123" x1="836.557" y1="-62.9955" x2="787.25" y2="491.852" gradientUnits="userSpaceOnUse">
<stop stop-color="#18459F"/>
<stop offset="0.9901" stop-color="#3E60F9"/>
</linearGradient>
<linearGradient id="paint27_linear_1_123" x1="709.784" y1="-74.2549" x2="660.477" y2="480.58" gradientUnits="userSpaceOnUse">
<stop stop-color="#18459F"/>
<stop offset="0.9901" stop-color="#3E60F9"/>
</linearGradient>
<linearGradient id="paint28_linear_1_123" x1="743.861" y1="-71.2282" x2="694.555" y2="483.61" gradientUnits="userSpaceOnUse">
<stop stop-color="#18459F"/>
<stop offset="0.9901" stop-color="#3E60F9"/>
</linearGradient>
<linearGradient id="paint29_linear_1_123" x1="833.211" y1="-63.2956" x2="783.903" y2="491.556" gradientUnits="userSpaceOnUse">
<stop stop-color="#18459F"/>
<stop offset="0.9901" stop-color="#3E60F9"/>
</linearGradient>
<linearGradient id="paint30_linear_1_123" x1="628.398" y1="-87.5255" x2="579.089" y2="467.331" gradientUnits="userSpaceOnUse">
<stop stop-color="#18459F"/>
<stop offset="0.9901" stop-color="#3E60F9"/>
</linearGradient>
<linearGradient id="paint31_linear_1_123" x1="692.596" y1="14.6544" x2="665.182" y2="714.095" gradientUnits="userSpaceOnUse">
<stop stop-color="#18459F"/>
<stop offset="0.9901" stop-color="#3E60F9"/>
</linearGradient>
<linearGradient id="paint32_linear_1_123" x1="534.912" y1="516.93" x2="712.765" y2="86.673" gradientUnits="userSpaceOnUse">
<stop stop-color="#53D8FF"/>
<stop offset="1" stop-color="#3840F7"/>
</linearGradient>
<linearGradient id="paint33_linear_1_123" x1="737.138" y1="-16.5838" x2="659.248" y2="451.308" gradientUnits="userSpaceOnUse">
<stop stop-color="#53D8FF"/>
<stop offset="1" stop-color="#3840F7"/>
</linearGradient>
<linearGradient id="paint34_linear_1_123" x1="616.125" y1="45.8902" x2="609.914" y2="-398.391" gradientUnits="userSpaceOnUse">
<stop stop-color="#18459F"/>
<stop offset="0.9901" stop-color="#3E60F9"/>
</linearGradient>
<linearGradient id="paint35_linear_1_123" x1="654.46" y1="31.8856" x2="616.529" y2="376.788" gradientUnits="userSpaceOnUse">
<stop stop-color="#53D8FF"/>
<stop offset="1" stop-color="#3840F7"/>
</linearGradient>
<linearGradient id="paint36_linear_1_123" x1="599.212" y1="351.342" x2="649.042" y2="-59.4498" gradientUnits="userSpaceOnUse">
<stop stop-color="#53D8FF"/>
<stop offset="1" stop-color="#3840F7"/>
</linearGradient>
<linearGradient id="paint37_linear_1_123" x1="180.166" y1="-83.6886" x2="106.057" y2="204.654" gradientUnits="userSpaceOnUse">
<stop stop-color="#FDF53F"/>
<stop offset="1" stop-color="#D93C65"/>
</linearGradient>
<linearGradient id="paint38_linear_1_123" x1="391.021" y1="-221.02" x2="275.397" y2="-81.2354" gradientUnits="userSpaceOnUse">
<stop stop-color="#FDF53F"/>
<stop offset="1" stop-color="#D93C65"/>
</linearGradient>
<linearGradient id="paint39_linear_1_123" x1="417.248" y1="-199.324" x2="301.624" y2="-59.5398" gradientUnits="userSpaceOnUse">
<stop stop-color="#FDF53F"/>
<stop offset="1" stop-color="#D93C65"/>
</linearGradient>
<linearGradient id="paint40_linear_1_123" x1="373.737" y1="84.5233" x2="445.454" y2="490.356" gradientUnits="userSpaceOnUse">
<stop offset="0.0036" stop-color="#26264F"/>
<stop offset="1" stop-color="#444B8C"/>
</linearGradient>
<linearGradient id="paint41_linear_1_123" x1="562.725" y1="137.988" x2="191.616" y2="997.492" gradientUnits="userSpaceOnUse">
<stop stop-color="#FDF53F"/>
<stop offset="1" stop-color="#D93C65"/>
</linearGradient>
<linearGradient id="paint42_linear_1_123" x1="331.994" y1="398.174" x2="521.515" y2="-62.6631" gradientUnits="userSpaceOnUse">
<stop stop-color="#2B3582"/>
<stop offset="1" stop-color="#150E42"/>
</linearGradient>
<linearGradient id="paint43_linear_1_123" x1="380.844" y1="418.264" x2="570.366" y2="-42.5727" gradientUnits="userSpaceOnUse">
<stop stop-color="#2B3582"/>
<stop offset="1" stop-color="#150E42"/>
</linearGradient>
<linearGradient id="paint44_linear_1_123" x1="440.593" y1="442.836" x2="630.114" y2="-18.0014" gradientUnits="userSpaceOnUse">
<stop stop-color="#2B3582"/>
<stop offset="1" stop-color="#150E42"/>
</linearGradient>
<linearGradient id="paint45_linear_1_123" x1="340.585" y1="401.707" x2="530.107" y2="-59.1295" gradientUnits="userSpaceOnUse">
<stop stop-color="#2B3582"/>
<stop offset="1" stop-color="#150E42"/>
</linearGradient>
<linearGradient id="paint46_linear_1_123" x1="374.33" y1="415.585" x2="563.852" y2="-45.2531" gradientUnits="userSpaceOnUse">
<stop stop-color="#2B3582"/>
<stop offset="1" stop-color="#150E42"/>
</linearGradient>
<linearGradient id="paint47_linear_1_123" x1="408.541" y1="429.655" x2="598.064" y2="-31.1837" gradientUnits="userSpaceOnUse">
<stop stop-color="#2B3582"/>
<stop offset="1" stop-color="#150E42"/>
</linearGradient>
<linearGradient id="paint48_linear_1_123" x1="443.236" y1="443.923" x2="632.754" y2="-16.9053" gradientUnits="userSpaceOnUse">
<stop stop-color="#2B3582"/>
<stop offset="1" stop-color="#150E42"/>
</linearGradient>
<linearGradient id="paint49_linear_1_123" x1="481.64" y1="459.717" x2="671.163" y2="-1.12152" gradientUnits="userSpaceOnUse">
<stop stop-color="#2B3582"/>
<stop offset="1" stop-color="#150E42"/>
</linearGradient>
<linearGradient id="paint50_linear_1_123" x1="241.861" y1="763.376" x2="39.0992" y2="983.924" gradientUnits="userSpaceOnUse">
<stop stop-color="#2B3582"/>
<stop offset="1" stop-color="#150E42"/>
</linearGradient>
<linearGradient id="paint51_linear_1_123" x1="176.047" y1="779.756" x2="194.057" y2="779.756" gradientUnits="userSpaceOnUse">
<stop stop-color="#F9B776"/>
<stop offset="1" stop-color="#F47960"/>
</linearGradient>
<linearGradient id="paint52_linear_1_123" x1="-890.499" y1="1876.9" x2="-696.361" y2="1649.36" gradientUnits="userSpaceOnUse">
<stop stop-color="#53D8FF"/>
<stop offset="1" stop-color="#3840F7"/>
</linearGradient>
<linearGradient id="paint53_linear_1_123" x1="196.374" y1="721.558" x2="-6.38783" y2="942.106" gradientUnits="userSpaceOnUse">
<stop stop-color="#2B3582"/>
<stop offset="1" stop-color="#150E42"/>
</linearGradient>
<linearGradient id="paint54_linear_1_123" x1="111.138" y1="778.833" x2="126.688" y2="778.833" gradientUnits="userSpaceOnUse">
<stop stop-color="#F9B776"/>
<stop offset="1" stop-color="#F47960"/>
</linearGradient>
<linearGradient id="paint55_linear_1_123" x1="-917.718" y1="1853.68" x2="-723.58" y2="1626.14" gradientUnits="userSpaceOnUse">
<stop stop-color="#53D8FF"/>
<stop offset="1" stop-color="#3840F7"/>
</linearGradient>
<linearGradient id="paint56_linear_1_123" x1="-89.4516" y1="609.609" x2="215.324" y2="382.07" gradientUnits="userSpaceOnUse">
<stop stop-color="#A737D5"/>
<stop offset="1" stop-color="#EF497A"/>
</linearGradient>
<linearGradient id="paint57_linear_1_123" x1="175.573" y1="240.977" x2="357.717" y2="513.77" gradientUnits="userSpaceOnUse">
<stop stop-color="#F9B776"/>
<stop offset="1" stop-color="#F47960"/>
</linearGradient>
<linearGradient id="paint58_linear_1_123" x1="204.599" y1="221.596" x2="386.743" y2="494.389" gradientUnits="userSpaceOnUse">
<stop stop-color="#F9B776"/>
<stop offset="1" stop-color="#F47960"/>
</linearGradient>
<linearGradient id="paint59_linear_1_123" x1="28.0623" y1="563.477" x2="251.426" y2="260.788" gradientUnits="userSpaceOnUse">
<stop stop-color="#A737D5"/>
<stop offset="1" stop-color="#EF497A"/>
</linearGradient>
<linearGradient id="paint60_linear_1_123" x1="-45.3407" y1="509.311" x2="177.979" y2="206.682" gradientUnits="userSpaceOnUse">
<stop stop-color="#A737D5"/>
<stop offset="1" stop-color="#EF497A"/>
</linearGradient>
<linearGradient id="paint61_linear_1_123" x1="167.207" y1="278.405" x2="94.752" y2="414.414" gradientUnits="userSpaceOnUse">
<stop stop-color="#F9B776"/>
<stop offset="1" stop-color="#F47960"/>
</linearGradient>
<linearGradient id="paint62_linear_1_123" x1="68.9264" y1="259.145" x2="209.07" y2="275.952" gradientUnits="userSpaceOnUse">
<stop stop-color="#F9B776"/>
<stop offset="1" stop-color="#F47960"/>
</linearGradient>
<linearGradient id="paint63_linear_1_123" x1="140.571" y1="290.108" x2="200.074" y2="253.333" gradientUnits="userSpaceOnUse">
<stop stop-color="#2B3582"/>
<stop offset="1" stop-color="#150E42"/>
</linearGradient>
<linearGradient id="paint64_linear_1_123" x1="67.0585" y1="274.709" x2="207.203" y2="291.517" gradientUnits="userSpaceOnUse">
<stop stop-color="#F9B776"/>
<stop offset="1" stop-color="#F47960"/>
</linearGradient>
<linearGradient id="paint65_linear_1_123" x1="149.399" y1="244.1" x2="36.3287" y2="320.757" gradientUnits="userSpaceOnUse">
<stop stop-color="#F9B776"/>
<stop offset="1" stop-color="#F47960"/>
</linearGradient>
<linearGradient id="paint66_linear_1_123" x1="147.139" y1="241.822" x2="29.5138" y2="321.567" gradientUnits="userSpaceOnUse">
<stop stop-color="#F9B776"/>
<stop offset="1" stop-color="#F47960"/>
</linearGradient>
<linearGradient id="paint67_linear_1_123" x1="-67.8224" y1="492.72" x2="155.541" y2="190.031" gradientUnits="userSpaceOnUse">
<stop stop-color="#A737D5"/>
<stop offset="1" stop-color="#EF497A"/>
</linearGradient>
</defs>
</svg>
