<svg viewBox="0 0 36 36" fill="none" xmlns="http://www.w3.org/2000/svg">
<path d="M25.6789 35.0397C24.3155 35.0296 22.9581 34.8584 21.6349 34.5298C17.0654 33.4273 12.3599 30.6305 8.38743 26.6545C4.41492 22.6785 1.61464 17.9722 0.512135 13.407C-0.648764 8.6048 0.179205 4.49633 2.84091 1.83462L3.6009 1.07464C4.29043 0.386484 5.22481 0 6.19898 0C7.17314 0 8.10752 0.386484 8.79705 1.07464L13.1644 5.44108C13.853 6.13039 14.2397 7.06485 14.2397 8.03916C14.2397 9.01347 13.853 9.94794 13.1644 10.6372L10.5846 13.2161C11.8213 15.3863 13.5034 17.5582 15.4914 19.5462C17.4794 21.5342 19.653 23.2171 21.8223 24.4539L24.4012 21.8741C24.7424 21.5328 25.1474 21.2621 25.5932 21.0774C26.039 20.8927 26.5168 20.7977 26.9993 20.7977C27.4818 20.7977 27.9596 20.8927 28.4054 21.0774C28.8512 21.2621 29.2562 21.5328 29.5974 21.8741L33.9638 26.2405C34.6526 26.9296 35.0395 27.8639 35.0395 28.8382C35.0395 29.8124 34.6526 30.7468 33.9638 31.4358L33.203 32.1958C31.3265 34.0757 28.7293 35.0397 25.6789 35.0397ZM6.19898 2.61291C6.05982 2.61222 5.92193 2.63931 5.79337 2.69259C5.66482 2.74587 5.54819 2.82426 5.45032 2.92319L4.68946 3.68317C2.69623 5.6764 2.11404 8.91245 3.05008 12.79C4.04103 16.8976 6.59204 21.1655 10.2325 24.8051C13.8729 28.4447 18.14 30.9931 22.2485 31.9875C26.1269 32.9236 29.3612 32.3414 31.3544 30.3481L32.1144 29.5881C32.313 29.3894 32.4245 29.12 32.4245 28.8391C32.4245 28.5581 32.313 28.2887 32.1144 28.09L27.7488 23.7235C27.5501 23.5249 27.2807 23.4134 26.9997 23.4134C26.7188 23.4134 26.4494 23.5249 26.2506 23.7235L22.9815 26.9927C22.7853 27.189 22.5318 27.3177 22.2576 27.3603C21.9834 27.4029 21.7027 27.3572 21.4563 27.2297C18.7763 25.844 16.0745 23.8264 13.6429 21.3947C11.2112 18.9631 9.19797 16.2631 7.80872 13.5831C7.68114 13.3367 7.63527 13.0561 7.67773 12.7819C7.72019 12.5077 7.84878 12.2541 8.04491 12.0579L11.315 8.78869C11.5135 8.58997 11.6251 8.32053 11.6251 8.0396C11.6251 7.75867 11.5135 7.48923 11.315 7.2905L6.94851 2.92319C6.85033 2.82443 6.73351 2.74616 6.60485 2.69289C6.47619 2.63963 6.33823 2.61245 6.19898 2.61291Z" fill="#0054AB"/>
<path d="M27.0753 19.3229C26.7286 19.3229 26.396 19.1852 26.1509 18.94C25.9057 18.6949 25.768 18.3623 25.768 18.0156C25.7654 15.7222 24.8533 13.5234 23.2317 11.9016C21.61 10.2798 19.4113 9.36741 17.1179 9.36464C16.7711 9.36464 16.4386 9.2269 16.1935 8.98173C15.9483 8.73656 15.8105 8.40404 15.8105 8.05732C15.8105 7.7106 15.9483 7.37808 16.1935 7.13291C16.4386 6.88774 16.7711 6.75 17.1179 6.75C23.3294 6.75 28.3826 11.805 28.3826 18.0156C28.3826 18.3623 28.2449 18.6949 27.9997 18.94C27.7545 19.1852 27.422 19.3229 27.0753 19.3229Z" fill="#0054AB"/>
<path d="M32.6009 19.3229C32.2542 19.3229 31.9216 19.1852 31.6765 18.94C31.4313 18.6948 31.2936 18.3623 31.2936 18.0156C31.2936 10.1987 24.9313 3.839 17.1179 3.839C16.7711 3.839 16.4386 3.70127 16.1935 3.4561C15.9483 3.21093 15.8105 2.87841 15.8105 2.53168C15.8105 2.18496 15.9483 1.85244 16.1935 1.60727C16.4386 1.3621 16.7711 1.22437 17.1179 1.22437C26.3763 1.22437 33.9082 8.75714 33.9082 18.0156C33.9082 18.3623 33.7705 18.6948 33.5253 18.94C33.2801 19.1852 32.9476 19.3229 32.6009 19.3229Z" fill="#0054AB"/>
</svg>
