<svg  viewBox="0 0 33 33" fill="none" xmlns="http://www.w3.org/2000/svg">
<g clip-path="url(#clip0_171_3991)">
<path d="M30.9375 4.8125H2.0625C1.51549 4.8125 0.990886 5.0298 0.604092 5.41659C0.217298 5.80339 0 6.32799 0 6.875L0 26.125C0 26.672 0.217298 27.1966 0.604092 27.5834C0.990886 27.9702 1.51549 28.1875 2.0625 28.1875H30.9375C31.4845 28.1875 32.0091 27.9702 32.3959 27.5834C32.7827 27.1966 33 26.672 33 26.125V6.875C33 6.32799 32.7827 5.80339 32.3959 5.41659C32.0091 5.0298 31.4845 4.8125 30.9375 4.8125ZM30.4975 6.1875L16.5 17.0088L2.5025 6.1875H30.4975ZM1.375 25.8431V7.05375L11.9694 15.2419L1.375 25.8431ZM2.34438 26.8125L13.0625 16.0944L16.0737 18.425C16.194 18.5175 16.3414 18.5677 16.4931 18.5677C16.6448 18.5677 16.7923 18.5175 16.9125 18.425L19.9375 16.0944L30.6556 26.8125H2.34438ZM31.625 25.8431L21.0306 15.2419L31.625 7.05375V25.8431Z" fill="#0054AB"/>
</g>
<defs>
<clipPath id="clip0_171_3991">
<rect width="33" height="33" fill="white"/>
</clipPath>
</defs>
</svg>
