<svg viewBox="0 0 18 18" fill="none" xmlns="http://www.w3.org/2000/svg">
<path d="M3 12C2.17157 12 1.5 11.3284 1.5 10.5C1.5 9.67157 2.17157 9 3 9C3.82843 9 4.5 9.67157 4.5 10.5C4.49893 11.328 3.82799 11.9989 3 12ZM3 4.5C2.17157 4.5 1.5 3.82843 1.5 3C1.5 2.17157 2.17157 1.5 3 1.5C3.82843 1.5 4.5 2.17157 4.5 3C4.49893 3.82799 3.82799 4.49893 3 4.5ZM10.5 4.5C9.67157 4.5 9 3.82843 9 3C9 2.17157 9.67157 1.5 10.5 1.5C11.3284 1.5 12 2.17157 12 3C11.9989 3.82799 11.328 4.49893 10.5 4.5ZM10.5 12C9.67157 12 9 11.3284 9 10.5C9 9.67157 9.67157 9 10.5 9C11.3284 9 12 9.67157 12 10.5C11.9989 11.328 11.328 11.9989 10.5 12Z" fill="white"/>
<path d="M7.5 16.5C6.67157 16.5 6 15.8284 6 15C6 14.1716 6.67157 13.5 7.5 13.5C8.32843 13.5 9 14.1716 9 15C8.99893 15.828 8.32799 16.4989 7.5 16.5ZM7.5 9C6.67157 9 6 8.32843 6 7.5C6 6.67157 6.67157 6 7.5 6C8.32843 6 9 6.67157 9 7.5C8.99893 8.32799 8.32799 8.99893 7.5 9ZM15 9C14.1716 9 13.5 8.32843 13.5 7.5C13.5 6.67157 14.1716 6 15 6C15.8284 6 16.5 6.67157 16.5 7.5C16.4989 8.32799 15.828 8.99893 15 9ZM15 16.5C14.1716 16.5 13.5 15.8284 13.5 15C13.5 14.1716 14.1716 13.5 15 13.5C15.8284 13.5 16.5 14.1716 16.5 15C16.4989 15.828 15.828 16.4989 15 16.5Z" fill="white"/>
<path d="M9.20874 3.75C8.93042 3.28873 8.93042 2.71127 9.20874 2.25H4.29126C4.56958 2.71127 4.56958 3.28873 4.29126 3.75H9.20874ZM3 9C3.26414 9.00151 3.52306 9.07358 3.75 9.20874V4.29126C3.28873 4.56958 2.71127 4.56958 2.25 4.29126V9.20874C2.47693 9.07358 2.73586 9.00151 3 9Z" fill="white"/>
<path d="M15 13.4998C15.2641 13.5013 15.5231 13.5733 15.75 13.7085V8.79102C15.2887 9.06933 14.7113 9.06933 14.25 8.79102V13.7085C14.4769 13.5733 14.7359 13.5013 15 13.4998ZM7.5 13.4998C7.76414 13.5013 8.02306 13.5733 8.25 13.7085V8.79102C7.78873 9.06933 7.21127 9.06933 6.75 8.79102V13.7085C6.97693 13.5733 7.23586 13.5013 7.5 13.4998Z" fill="white"/>
<path d="M9.20898 9.75H8.25024V11.25H9.20898C8.93067 10.7887 8.93067 10.2113 9.20898 9.75ZM6.75024 11.25V9.75H4.2915C4.56982 10.2113 4.56982 10.7887 4.2915 11.25H6.75024Z" fill="white"/>
<path d="M13.7085 14.25H8.79102C9.06933 14.7113 9.06933 15.2887 8.79102 15.75H13.7085C13.4302 15.2887 13.4302 14.7113 13.7085 14.25ZM13.7085 8.25C13.4302 7.78873 13.4302 7.21127 13.7085 6.75H8.79102C9.06933 7.21127 9.06933 7.78873 8.79102 8.25H13.7085Z" fill="white"/>
<path d="M11.25 6.75024V4.2915C10.7887 4.56982 10.2113 4.56982 9.75 4.2915V6.75024H11.25ZM9.75 8.25024V9.20898C10.2113 8.93067 10.7887 8.93067 11.25 9.20898V8.25024H9.75Z" fill="white"/>
</svg>
