<svg viewBox="0 0 19 13" fill="none" xmlns="http://www.w3.org/2000/svg">
<path d="M9.16883 6.0952C12.8799 6.0952 16.383 4.12913 18.3377 0.958611C18.1697 0.628255 17.985 0.308504 17.7835 0L17.7417 0.0756799C15.9832 3.24122 12.7785 5.13112 9.16883 5.13112C5.45778 5.13112 1.9545 7.09719 0 10.2677C0.16791 10.5981 0.352851 10.9178 0.554182 11.2263L0.596119 11.1506C2.35443 7.9851 5.55917 6.0952 9.16883 6.0952Z" fill="white"/>
<path d="M11.9317 10.8963L11.3916 11.2446L12.5238 13.0001L13.0639 12.6518L11.9317 10.8963Z" fill="#E6E6E6"/>
<path d="M13.3617 10.7392L9.39844 7.55957L10.6611 12.4813L11.6629 11.0704L13.3617 10.7392Z" fill="#E6E6E6"/>
<path d="M11.6629 11.0704L13.3617 10.7392L9.39844 7.55957L11.6629 11.0704Z" fill="#CCCCCC"/>
<path d="M15.7567 5.13135H2.58105V6.09542H15.7567V5.13135Z" fill="white"/>
<path d="M9.97202 4.80957H8.36523V6.41636H9.97202V4.80957Z" fill="white"/>
<path d="M15.9157 6.57707C16.4482 6.57707 16.8798 6.14544 16.8798 5.613C16.8798 5.08056 16.4482 4.64893 15.9157 4.64893C15.3833 4.64893 14.9517 5.08056 14.9517 5.613C14.9517 6.14544 15.3833 6.57707 15.9157 6.57707Z" fill="white"/>
<path d="M2.41964 6.57707C2.95208 6.57707 3.38371 6.14544 3.38371 5.613C3.38371 5.08056 2.95208 4.64893 2.41964 4.64893C1.8872 4.64893 1.45557 5.08056 1.45557 5.613C1.45557 6.14544 1.8872 6.57707 2.41964 6.57707Z" fill="white"/>
</svg>
