<svg viewBox="0 0 15 15" fill="none" xmlns="http://www.w3.org/2000/svg">
<path d="M13.8904 0H1.10958C0.49783 0 0 0.49783 0 1.10958V13.8904C0 14.5022 0.49783 15 1.10958 15H13.8904C14.5022 15 15 14.5022 15 13.8904V1.10958C15 0.49783 14.5022 0 13.8904 0ZM14.2603 1.10958V3.51366H5.19874V0.739718H13.8904C14.0943 0.739718 14.2603 0.905661 14.2603 1.10958ZM1.10958 0.739718H4.45877V3.51366H0.739718V1.10958C0.739718 0.905661 0.905661 0.739718 1.10958 0.739718ZM0.739718 13.8904V4.25338H4.45877V14.26H1.10958C0.905661 14.2603 0.739718 14.0943 0.739718 13.8904ZM13.8904 14.2603H5.19874V4.25338H14.2603V13.8902C14.2603 14.0943 14.0943 14.2603 13.8904 14.2603Z" fill="white"/>
</svg>
