<svg width="866" height="866" viewBox="0 0 866 866" fill="none" xmlns="http://www.w3.org/2000/svg">
<path d="M710.546 431.498C555.312 342.241 303.627 342.241 148.389 431.498C-6.84653 520.755 -6.8448 665.471 148.391 754.726C303.63 843.981 555.314 843.981 710.548 754.726C865.778 665.471 865.778 520.755 710.546 431.498Z" fill="#F5F5F5"/>
<path d="M318.901 496.635C361.82 521.415 361.82 561.591 318.901 586.37C275.98 611.15 206.396 611.15 163.475 586.37C120.556 561.591 120.556 521.415 163.475 496.635C206.394 471.856 275.98 471.856 318.901 496.635Z" fill="#E0E0E0"/>
<path d="M428.299 708.322L418.082 702.421L425.514 698.131C429.384 695.89 429.962 692.718 429.962 691.018C429.959 689.327 429.377 686.156 425.507 683.923L406.998 673.235C404.945 672.05 402.508 671.448 399.744 671.446C396.988 671.448 394.551 672.05 392.502 673.233L380.015 680.445L315.482 643.187C313.431 642.004 310.998 641.403 308.241 641.401C305.49 641.401 303.052 642.002 300.991 643.188L274.617 658.416C272.342 659.732 270.847 661.031 269.889 662.537C268.749 664.357 268.399 666.6 268.872 669.335L282.524 737.641C283.317 741.072 285.887 744.064 290.167 746.532L308.677 757.22C310.731 758.406 313.163 759.007 315.907 759.007H315.92C318.679 759.007 321.118 758.406 323.167 757.222L375.65 726.919L390.933 735.741C392.987 736.928 395.419 737.529 398.192 737.529C400.937 737.529 403.371 736.929 405.427 735.743L428.291 722.538C432.169 720.313 432.752 717.134 432.756 715.418C432.752 713.728 432.169 710.555 428.299 708.322ZM326.666 711.244L323.598 695.86L338.454 704.437L326.666 711.244Z" fill="#E0E0E0"/>
<path d="M531.075 602.017C526.45 599.078 521.334 595.99 515.871 592.834C510.453 589.706 504.989 586.689 499.594 583.845C492.681 580.275 485.066 577.334 476.962 575.095C468.785 572.841 460.156 571.645 451.318 571.536L450.123 571.53C441.686 571.53 432.939 572.615 424.127 574.754C414.845 577.012 405.524 580.823 396.419 586.077C386.991 591.521 380.368 596.96 376.173 602.706C371.786 608.73 369.668 614.829 369.881 620.84C370.096 626.844 372.458 632.602 376.888 637.949C380.917 642.823 386.181 647.375 392.57 651.505C397.35 654.533 402.583 657.69 408.122 660.888C413.659 664.085 419.007 667.036 424.046 669.672C430.975 673.251 438.593 676.193 446.678 678.423C454.854 680.681 463.483 681.876 472.323 681.982L473.522 681.989C481.979 681.989 490.724 680.904 499.514 678.765C508.794 676.507 518.117 672.698 527.221 667.442C536.655 661.994 543.277 656.556 547.466 650.816C551.86 644.796 553.977 638.69 553.76 632.679C553.546 626.684 551.187 620.927 546.751 615.568C542.714 610.691 537.45 606.139 531.075 602.017ZM499.675 638.197C499.202 638.917 497.863 640.438 494.212 642.542C491.194 644.287 488.215 645.489 485.358 646.115C483.081 646.616 480.807 646.869 478.6 646.869C477.999 646.869 477.398 646.852 476.795 646.814C474.005 646.644 471.248 646.103 468.596 645.206C465.77 644.248 462.941 643.02 460.115 641.514C449.851 636.25 440.132 630.638 431.147 624.782C428.725 623.272 426.76 621.738 425.307 620.229C424.238 619.117 423.569 618.048 423.368 617.158C423.33 616.987 423.216 616.46 423.964 615.321C424.435 614.605 425.769 613.088 429.425 610.977C432.453 609.229 435.432 608.027 438.277 607.404C440.47 606.924 442.644 606.68 444.738 606.68C445.396 606.68 446.049 606.704 446.692 606.751C449.464 606.957 452.218 607.516 454.874 608.413C457.752 609.388 460.691 610.608 463.487 611.983C473.447 617.207 483.197 622.837 492.493 628.731C494.954 630.273 496.985 631.823 498.52 633.335C499.55 634.353 500.177 635.329 500.332 636.156C500.366 636.361 500.479 636.972 499.675 638.197Z" fill="#E0E0E0"/>
<path d="M683.395 561.04L673.177 555.139L680.61 550.849C684.48 548.609 685.056 545.436 685.056 543.744C685.056 542.055 684.48 538.886 680.603 536.639L662.095 525.956C660.048 524.772 657.613 524.169 654.836 524.164C652.083 524.169 649.647 524.77 647.597 525.953L635.109 533.165L570.578 495.908C568.529 494.725 566.094 494.122 563.335 494.12C560.586 494.12 558.148 494.72 556.087 495.906L529.715 511.132C527.443 512.447 525.946 513.742 524.98 515.259C523.845 517.083 523.495 519.324 523.967 522.056L537.62 590.362C538.413 593.793 540.983 596.783 545.26 599.253L563.77 609.937C565.822 611.126 568.256 611.727 571.001 611.727H571.015C573.768 611.727 576.207 611.126 578.261 609.939L630.744 579.638L646.028 588.461C648.082 589.647 650.52 590.248 653.286 590.248C656.033 590.248 658.467 589.647 660.519 588.461L683.383 575.258C687.254 573.035 687.845 569.859 687.85 568.129C687.847 566.437 687.26 563.272 683.395 561.04ZM581.762 563.962L578.694 548.578L593.55 557.156L581.762 563.962Z" fill="#E0E0E0"/>
<path d="M754.063 148.524L737.673 139.062C737.754 138.425 737.811 137.763 737.811 137.051V132.304C737.811 123.854 731.879 113.579 724.561 109.355C721.598 107.644 718.872 107.207 716.665 107.831C715.467 95.8229 707.13 82.2388 697.007 76.3933C686.059 70.0733 677.184 75.1965 677.184 87.8384V94.9413C677.184 98.2148 677.79 101.672 678.863 105.108L665.249 97.2483C661.189 94.9049 657.9 96.8049 657.9 101.492C657.9 106.179 661.191 111.879 665.249 114.222L754.064 165.5C758.124 167.843 761.413 165.943 761.413 161.256C761.413 156.568 758.122 150.868 754.063 148.524Z" fill="#EBEBEB"/>
<path d="M654.691 166.085L644.25 160.058C644.302 159.651 644.339 159.23 644.339 158.776V155.752C644.339 150.369 640.559 143.824 635.899 141.132C634.011 140.043 632.273 139.764 630.867 140.16C630.103 132.51 624.793 123.857 618.343 120.133C611.368 116.106 605.715 119.369 605.715 127.423V131.949C605.715 134.034 606.101 136.237 606.784 138.427L598.111 133.419C595.526 131.926 593.43 133.137 593.43 136.123C593.43 139.109 595.526 142.739 598.111 144.232L654.692 176.9C657.278 178.393 659.374 177.182 659.374 174.196C659.372 171.21 657.277 167.578 654.691 166.085Z" fill="#EBEBEB"/>
<path d="M647.456 520.895C641.853 495.245 632.883 470.103 638.459 430.861C643.511 395.296 662.19 363.505 688.815 359.948C706.767 357.549 722.44 377.564 704.869 403.268C701.952 407.534 663.905 444.764 670.177 496.223L666.628 530.402L647.456 520.895Z" fill="#21A415"/>
<g opacity="0.2">
<path d="M647.456 520.895C641.853 495.245 632.883 470.103 638.459 430.861C643.511 395.296 662.19 363.505 688.815 359.948C706.767 357.549 722.44 377.564 704.869 403.268C701.952 407.534 663.905 444.764 670.177 496.223L666.628 530.402L647.456 520.895Z" fill="black"/>
</g>
<path d="M656.769 517.087C657.23 516.876 657.514 516.377 657.433 515.852C647.117 450.05 660.29 400.904 692.073 373.894C692.561 373.48 692.62 372.745 692.206 372.259C691.795 371.772 691.07 371.696 690.571 372.127C658.382 399.481 644.694 449.584 655.141 516.212C655.24 516.844 655.832 517.276 656.464 517.179C656.572 517.161 656.674 517.13 656.769 517.087Z" fill="white"/>
<path d="M677.46 540.484C677.33 530.506 682.832 508.766 695.883 489.792C712.344 465.859 737.998 458.026 740.622 445.482C743.773 430.414 728.003 421.818 707.567 429.127C683.006 437.914 653.984 473.297 664.045 532.947L677.46 540.484Z" fill="#455A64"/>
<path d="M670.745 529.947C671.188 529.774 671.51 529.356 671.538 528.849C674.306 475.903 705.749 448.179 721.984 440.915C722.613 440.634 722.894 439.897 722.613 439.268C722.332 438.637 721.619 438.348 720.966 438.639C703.01 446.67 671.872 474.679 669.046 528.72C669.009 529.406 669.539 529.995 670.227 530.032C670.409 530.039 670.584 530.009 670.745 529.947Z" fill="white"/>
<path d="M423.743 695.116L400.863 708.317C399.588 709.067 398.008 709.431 396.145 709.431C394.281 709.431 392.722 709.067 391.448 708.317L373.629 698.031L318.615 729.799C317.341 730.528 315.761 730.913 313.897 730.913C312.035 730.913 310.475 730.528 309.179 729.799L290.673 719.109C287.635 717.368 285.894 715.484 285.428 713.459L271.801 645.305C271.72 644.86 271.701 644.455 271.701 644.091C271.701 645.407 271.68 662.416 271.701 663.245C271.701 663.569 271.74 663.914 271.801 664.298L285.428 732.453C285.894 734.477 287.635 736.36 290.673 738.102L309.179 748.792C310.475 749.521 312.034 749.906 313.897 749.906C315.761 749.906 317.341 749.521 318.615 748.792L373.629 717.024L391.448 727.31C392.722 728.06 394.283 728.424 396.145 728.424C398.007 728.424 399.586 728.06 400.863 727.31L423.743 714.109C425.019 713.359 425.667 712.469 425.667 711.376V692.383C425.667 693.455 425.019 694.366 423.743 695.116Z" fill="#21A415"/>
<path d="M422.873 686.975V667.982C422.873 669.056 422.225 669.967 420.951 670.715L405.927 679.382L422.146 688.737C422.61 688.21 422.873 687.623 422.873 686.975Z" fill="#21A415"/>
<path d="M318.717 684.303L330.097 690.904L346.558 681.407L314.424 662.84L318.697 684.303H318.717Z" fill="#21A415"/>
<path opacity="0.35" d="M318.717 684.303L330.097 690.904L346.558 681.407L314.424 662.84L318.697 684.303H318.717Z" fill="black"/>
<path opacity="0.2" d="M422.873 686.975V667.982C422.873 669.056 422.225 669.967 420.951 670.715L405.927 679.382L422.146 688.737C422.61 688.21 422.873 687.623 422.873 686.975Z" fill="black"/>
<path opacity="0.2" d="M423.742 695.116L400.863 708.317C399.588 709.067 398.008 709.431 396.145 709.431V728.424C398.007 728.424 399.586 728.06 400.863 727.31L423.742 714.109C425.019 713.359 425.667 712.469 425.667 711.376V692.383C425.667 693.455 425.019 694.366 423.742 695.116Z" fill="black"/>
<path opacity="0.25" d="M285.43 713.459L271.803 645.305C271.721 644.86 271.702 644.455 271.702 644.091C271.702 645.407 271.682 662.416 271.702 663.245C271.702 663.569 271.742 663.914 271.803 664.298L285.43 732.453C285.512 732.837 285.654 733.221 285.855 733.606V714.613C285.652 714.228 285.51 713.844 285.43 713.459Z" fill="black"/>
<path opacity="0.35" d="M313.897 730.913C312.035 730.913 310.475 730.528 309.179 729.799L290.673 719.109C288.222 717.711 286.603 716.213 285.854 714.615V733.608C286.603 735.206 288.224 736.706 290.673 738.102L309.179 748.792C310.475 749.521 312.034 749.906 313.897 749.906C314.079 749.906 314.242 749.906 314.424 749.866V730.873C314.242 730.913 314.081 730.913 313.897 730.913Z" fill="black"/>
<path opacity="0.2" d="M318.615 729.799C317.46 730.468 316.064 730.831 314.424 730.873V749.866C316.064 749.826 317.46 749.461 318.615 748.792L373.629 717.024V698.031L318.615 729.799Z" fill="black"/>
<path opacity="0.35" d="M391.448 708.317L373.629 698.031V717.024L391.448 727.31C392.722 728.06 394.283 728.424 396.145 728.424V709.431C394.283 709.431 392.722 709.067 391.448 708.317Z" fill="black"/>
<path d="M400.871 708.317C399.588 709.057 398.015 709.427 396.151 709.425C394.289 709.425 392.72 709.055 391.439 708.315L373.625 698.031L318.611 729.794C317.33 730.533 315.764 730.902 313.895 730.902C312.03 730.904 310.464 730.532 309.182 729.792L290.671 719.104C287.643 717.356 285.897 715.475 285.43 713.458L271.809 645.296C271.577 643.952 271.695 642.91 272.156 642.172C272.625 641.434 273.614 640.625 275.126 639.751L301.496 624.526C302.777 623.788 304.35 623.42 306.215 623.418C308.077 623.42 309.65 623.79 310.928 624.528L377.99 663.245L393.008 654.573C394.286 653.833 395.862 653.466 397.724 653.463C399.589 653.466 401.157 653.835 402.438 654.575L420.95 665.261C422.232 666.001 422.873 666.908 422.873 667.982C422.873 669.061 422.228 669.967 420.95 670.707L405.932 679.379L423.742 689.662C425.027 690.403 425.665 691.309 425.668 692.384C425.666 693.462 425.024 694.369 423.744 695.107L400.871 708.317ZM346.554 681.397L314.423 662.845L321.059 696.117L346.554 681.397Z" fill="#21A415"/>
<path d="M546.689 610.783C546.607 615.359 544.806 620.037 541.344 624.795C537.618 629.897 531.402 634.979 522.655 640.021C513.928 645.063 505.141 648.646 496.293 650.813C487.444 652.959 478.798 653.991 470.354 653.891C461.931 653.79 453.791 652.656 445.995 650.51C438.2 648.364 430.972 645.57 424.33 642.127C419.329 639.515 414.104 636.619 408.617 633.46C403.151 630.301 398.028 627.223 393.249 624.187C387.317 620.359 382.478 616.188 378.771 611.694C375.025 607.179 373.082 602.5 372.919 597.621C373.021 600.638 372.797 613.292 372.919 616.614C373.08 621.493 375.025 626.172 378.771 630.687C382.476 635.181 387.315 639.352 393.249 643.18C398.028 646.218 403.151 649.294 408.617 652.453C414.104 655.612 419.328 658.506 424.33 661.139C430.972 664.561 438.2 667.355 445.995 669.501C453.791 671.647 461.931 672.781 470.354 672.882C478.798 672.984 487.444 671.95 496.293 669.804C505.141 667.637 513.928 664.054 522.655 659.012C531.402 653.97 537.618 648.889 541.344 643.786C545.069 638.684 546.851 633.682 546.668 628.823C546.567 626.03 546.749 615.095 546.689 610.783Z" fill="#21A415"/>
<path opacity="0.35" d="M475.015 653.79C473.456 653.847 471.897 653.908 470.354 653.891C461.931 653.79 453.791 652.656 445.995 650.51C438.2 648.364 430.972 645.57 424.33 642.127C419.329 639.515 414.104 636.619 408.617 633.46C403.151 630.301 398.028 627.223 393.249 624.187C387.317 620.359 382.478 616.188 378.771 611.694C375.025 607.179 373.082 602.5 372.919 597.621C373.021 600.638 372.797 613.292 372.919 616.614C373.08 621.493 375.025 626.172 378.771 630.687C382.476 635.181 387.315 639.352 393.249 643.18C398.028 646.218 403.151 649.294 408.617 652.453C414.104 655.612 419.328 658.506 424.33 661.139C430.972 664.561 438.2 667.355 445.995 669.501C453.791 671.647 461.931 672.781 470.354 672.882C471.899 672.901 473.458 672.839 475.015 672.781V653.79Z" fill="black"/>
<path opacity="0.2" d="M546.688 610.783C546.607 615.359 544.806 620.037 541.343 624.795C537.618 629.897 531.402 634.979 522.655 640.021C513.928 645.063 505.141 648.646 496.292 650.813C489.063 652.566 481.977 653.536 475.018 653.79V672.783C481.977 672.527 489.063 671.559 496.292 669.806C505.141 667.639 513.928 664.056 522.655 659.014C531.402 653.972 537.618 648.89 541.343 643.788C545.069 638.685 546.851 633.683 546.668 628.825C546.567 626.03 546.749 615.096 546.688 610.783Z" fill="black"/>
<path d="M419.633 600.699C420.604 601.712 421.739 602.724 423.034 603.696C423.621 603.311 424.208 602.927 424.856 602.542C428.358 600.538 431.781 599.161 435.163 598.411C438.544 597.682 441.845 597.419 445.044 597.661C448.243 597.904 451.382 598.532 454.48 599.565C457.558 600.618 460.676 601.913 463.814 603.453C473.938 608.779 483.718 614.408 493.154 620.401C494.389 621.17 495.522 621.959 496.554 622.729C499.045 621.119 500.848 619.524 501.882 617.931C503.156 615.988 503.622 614.063 503.279 612.181C502.935 610.317 501.863 608.476 500.06 606.694C498.238 604.911 495.95 603.15 493.156 601.409C483.72 595.417 473.941 589.767 463.816 584.462C460.677 582.924 457.56 581.626 454.482 580.573C451.384 579.541 448.245 578.914 445.046 578.67C441.847 578.427 438.546 578.691 435.165 579.42C431.784 580.168 428.362 581.545 424.858 583.551C421.375 585.575 418.986 587.56 417.71 589.504C416.435 591.447 415.988 593.35 416.394 595.193C416.818 597.055 417.892 598.877 419.633 600.699Z" fill="#21A415"/>
<path opacity="0.35" d="M419.633 600.699C420.604 601.712 421.739 602.724 423.034 603.696C423.621 603.311 424.208 602.927 424.856 602.542C428.358 600.538 431.781 599.161 435.163 598.411C438.544 597.682 441.845 597.419 445.044 597.661C448.243 597.904 451.382 598.532 454.48 599.565C457.558 600.618 460.676 601.913 463.814 603.453C473.938 608.779 483.718 614.408 493.154 620.401C494.389 621.17 495.522 621.959 496.554 622.729C499.045 621.119 500.848 619.524 501.882 617.931C503.156 615.988 503.622 614.063 503.279 612.181C502.935 610.317 501.863 608.476 500.06 606.694C498.238 604.911 495.95 603.15 493.156 601.409C483.72 595.417 473.941 589.767 463.816 584.462C460.677 582.924 457.56 581.626 454.482 580.573C451.384 579.541 448.245 578.914 445.046 578.67C441.847 578.427 438.546 578.691 435.165 579.42C431.784 580.168 428.362 581.545 424.858 583.551C421.375 585.575 418.986 587.56 417.71 589.504C416.435 591.447 415.988 593.35 416.394 595.193C416.818 597.055 417.892 598.877 419.633 600.699Z" fill="black"/>
<path d="M396.924 567.422C405.655 562.38 414.45 558.785 423.297 556.632C432.144 554.484 440.792 553.459 449.231 553.558C457.667 553.661 465.792 554.786 473.591 556.937C481.392 559.09 488.609 561.878 495.248 565.304C500.486 568.065 505.843 571.02 511.314 574.179C516.785 577.338 521.789 580.364 526.334 583.251C532.27 587.084 537.102 591.253 540.827 595.754C544.555 600.257 546.503 604.949 546.68 609.818C546.855 614.692 545.079 619.685 541.356 624.791C537.627 629.899 531.398 634.977 522.667 640.017C513.936 645.059 505.145 648.653 496.296 650.806C487.452 652.957 478.804 653.981 470.363 653.88C461.924 653.781 453.798 652.656 446.004 650.501C438.199 648.352 430.982 645.561 424.343 642.135C419.336 639.513 414.102 636.624 408.629 633.463C403.156 630.304 398.031 627.213 393.256 624.187C387.32 620.354 382.488 616.188 378.766 611.682C375.035 607.182 373.09 602.492 372.913 597.618C372.74 592.746 374.516 587.754 378.238 582.646C381.967 577.539 388.193 572.462 396.924 567.422ZM493.151 601.401C483.718 595.42 473.939 589.774 463.811 584.462C460.67 582.917 457.551 581.623 454.47 580.578C451.383 579.538 448.24 578.9 445.037 578.663C441.838 578.429 438.542 578.68 435.168 579.42C431.791 580.159 428.362 581.538 424.865 583.554C421.375 585.57 418.986 587.553 417.706 589.503C416.426 591.454 415.99 593.354 416.395 595.2C416.807 597.05 417.883 598.879 419.627 600.696C421.375 602.511 423.645 604.295 426.439 606.039C435.518 611.955 445.301 617.603 455.779 622.978C458.805 624.592 461.862 625.917 464.948 626.96C468.028 628.002 471.204 628.626 474.464 628.823C477.727 629.026 481.044 628.758 484.42 628.016C487.797 627.277 491.233 625.9 494.723 623.882C498.218 621.866 500.602 619.883 501.882 617.933C503.162 615.986 503.631 614.068 503.279 612.186C502.929 610.305 501.852 608.472 500.051 606.692C498.241 604.915 495.943 603.15 493.151 601.401Z" fill="#21A415"/>
<path d="M678.838 547.833L655.959 561.035C654.684 561.783 653.104 562.148 651.241 562.148C649.377 562.148 647.818 561.785 646.544 561.035L628.725 550.748L573.711 582.517C572.435 583.246 570.857 583.63 568.993 583.63C567.131 583.63 565.571 583.246 564.275 582.517L545.769 571.825C542.731 570.084 540.99 568.2 540.524 566.175L526.897 498.021C526.816 497.576 526.797 497.171 526.797 496.807C526.797 498.123 526.776 515.131 526.797 515.961C526.797 516.285 526.836 516.63 526.897 517.014L540.524 585.168C540.99 587.193 542.731 589.076 545.769 590.818L564.275 601.51C565.571 602.239 567.13 602.623 568.993 602.623C570.857 602.623 572.435 602.239 573.711 601.51L628.725 569.741L646.544 580.028C647.82 580.776 649.379 581.141 651.241 581.141C653.103 581.141 654.682 580.778 655.959 580.028L678.838 566.826C680.115 566.078 680.763 565.186 680.763 564.093V545.1C680.763 546.172 680.115 547.083 678.838 547.833Z" fill="#21A415"/>
<path d="M677.967 539.693V520.7C677.967 521.774 677.32 522.685 676.043 523.433L661.02 532.1L677.238 541.455C677.704 540.928 677.967 540.341 677.967 539.693Z" fill="#21A415"/>
<path d="M573.813 537.021L585.191 543.621L601.654 534.125L569.52 515.558L573.793 537.021H573.813Z" fill="#21A415"/>
<path opacity="0.35" d="M573.813 537.02L585.191 543.621L601.654 534.124L569.52 515.557L573.793 537.02H573.813Z" fill="black"/>
<path opacity="0.2" d="M677.967 539.693V520.7C677.967 521.774 677.32 522.685 676.043 523.433L661.02 532.1L677.238 541.454C677.704 540.928 677.967 540.341 677.967 539.693Z" fill="black"/>
<path opacity="0.2" d="M678.838 547.833L655.959 561.035C654.684 561.783 653.104 562.148 651.241 562.148V581.141C653.103 581.141 654.682 580.778 655.959 580.028L678.838 566.826C680.115 566.078 680.763 565.186 680.763 564.093V545.1C680.763 546.172 680.115 547.083 678.838 547.833Z" fill="black"/>
<path opacity="0.25" d="M540.524 566.177L526.897 498.023C526.816 497.578 526.797 497.172 526.797 496.809C526.797 498.125 526.776 515.133 526.797 515.963C526.797 516.287 526.836 516.631 526.897 517.016L540.524 585.17C540.606 585.555 540.748 585.939 540.949 586.324V567.33C540.748 566.946 540.606 566.561 540.524 566.177Z" fill="black"/>
<path opacity="0.35" d="M568.993 583.632C567.131 583.632 565.571 583.248 564.275 582.518L545.769 571.827C543.318 570.429 541.699 568.931 540.95 567.332V586.325C541.699 587.926 543.32 589.424 545.769 590.82L564.275 601.511C565.571 602.241 567.13 602.625 568.993 602.625C569.175 602.625 569.338 602.625 569.52 602.585V583.592C569.338 583.632 569.175 583.632 568.993 583.632Z" fill="black"/>
<path opacity="0.2" d="M573.711 582.518C572.556 583.187 571.16 583.551 569.52 583.592V602.585C571.16 602.545 572.558 602.18 573.711 601.511L628.725 569.743V550.75L573.711 582.518Z" fill="black"/>
<path opacity="0.35" d="M646.544 561.035L628.725 550.748V569.741L646.544 580.028C647.82 580.776 649.379 581.141 651.241 581.141V562.148C649.377 562.148 647.818 561.783 646.544 561.035Z" fill="black"/>
<path d="M655.967 561.035C654.684 561.774 653.111 562.145 651.247 562.143C649.385 562.143 647.816 561.772 646.535 561.033L628.721 550.748L573.707 582.511C572.426 583.251 570.86 583.62 568.991 583.62C567.126 583.622 565.56 583.249 564.278 582.51L545.767 571.822C542.739 570.074 540.993 568.193 540.526 566.175L526.905 498.016C526.673 496.672 526.791 495.629 527.252 494.891C527.721 494.152 528.71 493.345 530.222 492.47L556.592 477.246C557.873 476.51 559.446 476.139 561.311 476.137C563.173 476.139 564.746 476.51 566.024 477.247L633.086 515.965L648.104 507.292C649.382 506.553 650.958 506.186 652.82 506.182C654.685 506.186 656.253 506.555 657.534 507.294L676.046 517.981C677.328 518.72 677.969 519.628 677.969 520.702C677.969 521.781 677.324 522.686 676.046 523.426L661.028 532.098L678.838 542.381C680.121 543.122 680.761 544.028 680.764 545.104C680.762 546.181 680.12 547.089 678.84 547.826L655.967 561.035ZM601.648 534.114L569.518 515.563L576.153 548.834L601.648 534.114Z" fill="#21A415"/>
<path d="M537.577 708.674C537.966 708.447 538.446 708.336 539.014 708.336C539.581 708.336 540.059 708.449 540.448 708.674L546.091 711.932C546.483 712.157 546.678 712.434 546.677 712.761C546.677 713.089 546.483 713.367 546.091 713.591L520.863 728.157C520.471 728.382 519.993 728.495 519.425 728.493C518.859 728.495 518.379 728.382 517.988 728.157L483.604 708.305C483.214 708.08 483.019 707.804 483.017 707.475C483.019 707.148 483.213 706.871 483.604 706.647L508.408 692.325C508.798 692.1 509.277 691.988 509.844 691.988C510.414 691.988 510.893 692.1 511.283 692.325L516.926 695.583C517.316 695.808 517.508 696.084 517.51 696.413C517.508 696.74 517.316 697.019 516.924 697.243L500.529 706.708L506.278 710.026L521.502 701.238C521.892 701.013 522.37 700.901 522.939 700.901C523.506 700.901 523.986 701.015 524.374 701.238L530.016 704.496C530.408 704.721 530.604 704.998 530.602 705.326C530.604 705.655 530.408 705.932 530.016 706.155L514.794 714.944L520.755 718.385L537.577 708.674Z" fill="#455A64"/>
<path d="M545.984 681.691C546.373 681.466 546.855 681.355 547.421 681.355C547.988 681.355 548.467 681.466 548.861 681.693L554.237 684.796C554.626 685.022 554.819 685.297 554.82 685.626C554.819 685.953 554.626 686.232 554.237 686.456L549.392 689.251C546.127 691.137 546.126 693.022 549.392 694.906L562.486 702.466C562.878 702.691 563.073 702.968 563.072 703.296C563.072 703.623 562.878 703.902 562.486 704.125L555.78 707.996C555.39 708.223 554.91 708.334 554.342 708.334C553.776 708.334 553.296 708.222 552.905 707.996L528.103 693.676C527.709 693.449 527.515 693.174 527.515 692.845C527.517 692.518 527.709 692.24 528.101 692.015L534.275 688.449C534.665 688.224 535.145 688.113 535.711 688.113C536.279 688.113 536.759 688.224 537.15 688.451L538.373 689.156C538.41 688.236 538.754 687.299 539.411 686.345C540.067 685.392 541.193 684.453 542.79 683.532L545.984 681.691Z" fill="#455A64"/>
<path d="M571.745 666.818C572.135 666.591 572.617 666.48 573.183 666.48C573.751 666.48 574.229 666.591 574.622 666.818L579.998 669.922C580.39 670.147 580.582 670.424 580.582 670.752C580.582 671.079 580.39 671.358 579.998 671.581L575.154 674.377C571.889 676.263 571.887 678.147 575.154 680.032L588.248 687.592C588.639 687.817 588.835 688.094 588.833 688.42C588.833 688.749 588.639 689.026 588.248 689.251L581.542 693.122C581.15 693.349 580.672 693.46 580.104 693.46C579.538 693.462 579.056 693.347 578.668 693.122L553.866 678.802C553.473 678.575 553.277 678.3 553.277 677.972C553.279 677.645 553.471 677.368 553.863 677.143L560.037 673.578C560.427 673.353 560.908 673.242 561.473 673.24C562.041 673.24 562.519 673.353 562.912 673.578L564.135 674.285C564.171 673.363 564.518 672.426 565.174 671.472C565.831 670.52 566.956 669.582 568.553 668.661L571.745 666.818Z" fill="#455A64"/>
<path d="M617.522 654.033C618.09 654.32 618.79 654.705 619.625 655.184C620.46 655.668 621.123 656.073 621.622 656.398C623.252 657.424 624.461 658.57 625.242 659.84C626.019 661.11 626.352 662.428 626.227 663.789C626.101 665.152 625.479 666.524 624.362 667.906C623.245 669.29 621.601 670.606 619.438 671.855C617.273 673.105 614.994 674.053 612.6 674.699C610.203 675.343 607.827 675.703 605.469 675.774C603.109 675.847 600.826 675.657 598.626 675.206C596.426 674.754 594.44 674.058 592.666 673.116C592.098 672.83 591.4 672.445 590.564 671.964C589.731 671.482 589.065 671.077 588.567 670.75C586.9 669.747 585.674 668.609 584.897 667.338C584.115 666.07 583.795 664.747 583.937 663.375C584.079 662.001 584.701 660.619 585.801 659.227C586.9 657.833 588.532 656.513 590.697 655.262C592.862 654.012 595.15 653.07 597.564 652.434C599.979 651.8 602.371 651.442 604.749 651.358C607.125 651.277 609.406 651.468 611.588 651.928C613.769 652.389 615.749 653.09 617.522 654.033ZM601.981 667.431C603.436 668.148 604.977 668.477 606.611 668.413C608.242 668.353 609.77 667.913 611.188 667.092C612.607 666.273 613.371 665.393 613.476 664.451C613.582 663.508 613.014 662.616 611.774 661.776C611.311 661.428 610.745 661.059 610.069 660.67C609.396 660.28 608.757 659.953 608.156 659.686C606.699 658.969 605.159 658.641 603.526 658.704C601.891 658.766 600.365 659.206 598.945 660.025C597.526 660.846 596.762 661.726 596.659 662.668C596.553 663.611 597.119 664.503 598.361 665.343C598.822 665.691 599.39 666.06 600.062 666.449C600.739 666.837 601.377 667.166 601.981 667.431Z" fill="#455A64"/>
<path d="M631.361 632.396C631.752 632.171 632.232 632.06 632.798 632.059C633.367 632.06 633.846 632.171 634.238 632.398L639.614 635.502C640.005 635.727 640.198 636.002 640.198 636.332C640.198 636.659 640.005 636.938 639.614 637.161L634.769 639.957C631.505 641.843 631.503 643.727 634.769 645.612L647.863 653.172C648.253 653.397 648.451 653.674 648.449 654C648.449 654.329 648.255 654.606 647.863 654.831L641.157 658.702C640.766 658.927 640.288 659.04 639.719 659.04C639.153 659.04 638.673 658.929 638.284 658.702L613.481 644.382C613.088 644.155 612.893 643.88 612.893 643.552C612.894 643.225 613.087 642.946 613.478 642.723L619.653 639.156C620.044 638.931 620.524 638.82 621.088 638.82C621.656 638.82 622.136 638.931 622.529 639.158L623.75 639.863C623.787 638.943 624.133 638.006 624.79 637.052C625.446 636.099 626.572 635.162 628.169 634.239L631.361 632.396Z" fill="#455A64"/>
<path d="M264.282 475.191C256.98 474.899 253.748 475.623 254.883 483.351C256.019 491.079 256.35 497.027 256.35 497.027C256.35 497.027 269.362 497.404 275.395 494.034C281.429 490.665 275.267 475.631 264.282 475.191Z" fill="#21A415"/>
<path opacity="0.5" d="M264.282 475.191C256.98 474.899 253.748 475.623 254.883 483.351C256.019 491.079 256.35 497.027 256.35 497.027C256.35 497.027 269.362 497.404 275.395 494.034C281.429 490.665 275.267 475.631 264.282 475.191Z" fill="black"/>
<path d="M265.453 508.373C264.98 508.373 264.501 508.326 264.021 508.231C260.034 507.445 257.439 503.576 258.227 499.588C260.12 489.997 261.987 482.589 263.636 476.052C266.04 466.523 267.94 458.994 269.097 448.371C270.909 431.743 265.649 415.869 260.122 406.556C258.049 403.062 259.201 398.547 262.694 396.474C266.182 394.401 270.703 395.551 272.776 399.046C276.046 404.555 286.5 424.51 283.726 449.965C282.458 461.604 280.348 469.968 277.906 479.651C276.301 486.013 274.482 493.223 272.663 502.438C271.972 505.945 268.896 508.373 265.453 508.373Z" fill="#455A64"/>
<path d="M247.856 518.32C247.856 518.32 247.151 521.405 247.806 522.629C248.828 524.538 254.483 526.874 257.462 528.104C260.441 529.334 263.723 531.146 266.846 536.823C270.183 542.89 276.24 547.011 283.014 549.584C289.788 552.158 299.652 553.497 311.237 550.603C322.82 547.709 323.307 540.734 323.307 540.734C323.307 540.734 323.489 534.19 320.501 533.359C317.514 532.526 247.856 518.32 247.856 518.32Z" fill="#455A64"/>
<path d="M252.527 494.001C252.198 496.06 251.73 498.097 251.124 500.093C249.456 505.588 246.704 511.243 247.856 518.318C249.759 521.71 253.729 522.99 256.713 524.313C260.723 526.092 263.598 527.269 266.466 530.735C271.615 536.955 276.524 544.821 292.086 546.841C307.646 548.86 318.972 543.2 321.516 538.64C324.06 534.08 321.192 530.134 310.996 525.482C305.819 523.119 294.008 513.405 292.65 512.12C291.332 510.873 290.354 509.423 289.33 507.942C287.262 504.951 285.679 501.151 285.175 497.573C284.702 494.23 284.877 489.898 285.738 485.734C285.922 484.841 286.367 483.912 285.987 483.083C284.992 480.909 281.581 481.484 279.704 481.633C276.872 481.856 274.089 482.461 271.319 483.065C270.422 483.261 269.471 483.484 268.82 484.132C268.191 484.756 267.954 485.662 267.725 486.515C267.377 487.818 266.991 489.11 266.567 490.39C266.272 491.278 265.884 492.247 265.041 492.648C264.206 493.045 263.154 492.711 262.526 492.035C261.897 491.358 261.634 490.412 261.575 489.491C261.514 488.57 261.637 487.646 261.672 486.723C261.707 485.84 261.646 484.906 261.173 484.16C260.153 482.551 257.564 482.301 256.911 480.512C256.561 479.555 256.954 478.432 257.693 477.729C258.433 477.026 259.458 476.693 260.473 476.586C261.488 476.478 262.41 476.511 263.516 476.543L264.055 474.404C261.412 474.159 259.375 474.256 256.978 475.294C255.7 475.846 254.273 477.033 253.736 478.351C252.792 480.67 253.363 482.598 253.48 483.658C253.925 487.74 253.175 489.945 252.527 494.001Z" fill="#21A415"/>
<path opacity="0.35" d="M252.527 494.001C252.198 496.06 251.73 498.097 251.124 500.093C249.456 505.588 246.704 511.243 247.856 518.318C249.759 521.71 253.729 522.99 256.713 524.313C260.723 526.092 263.598 527.269 266.466 530.735C271.615 536.955 276.524 544.821 292.086 546.841C307.646 548.86 318.972 543.2 321.516 538.64C324.06 534.08 321.192 530.134 310.996 525.482C305.819 523.119 294.008 513.405 292.65 512.12C291.332 510.873 290.354 509.423 289.33 507.942C287.262 504.951 285.679 501.151 285.175 497.573C284.702 494.23 284.877 489.898 285.738 485.734C285.922 484.841 286.367 483.912 285.987 483.083C284.992 480.909 281.581 481.484 279.704 481.633C276.872 481.856 274.089 482.461 271.319 483.065C270.422 483.261 269.471 483.484 268.82 484.132C268.191 484.756 267.954 485.662 267.725 486.515C267.377 487.818 266.991 489.11 266.567 490.39C266.272 491.278 265.884 492.247 265.041 492.648C264.206 493.045 263.154 492.711 262.526 492.035C261.897 491.358 261.634 490.412 261.575 489.491C261.514 488.57 261.637 487.646 261.672 486.723C261.707 485.84 261.646 484.906 261.173 484.16C260.153 482.551 257.564 482.301 256.911 480.512C256.561 479.555 256.954 478.432 257.693 477.729C258.433 477.026 259.458 476.693 260.473 476.586C261.488 476.478 262.41 476.511 263.516 476.543L264.055 474.404C261.412 474.159 259.375 474.256 256.978 475.294C255.7 475.846 254.273 477.033 253.736 478.351C252.792 480.67 253.363 482.598 253.48 483.658C253.925 487.74 253.175 489.945 252.527 494.001Z" fill="black"/>
<path d="M281.76 544.146C281.76 544.146 280.965 533.11 292.147 526.414C303.328 519.718 310.618 523.062 314.332 525.375C318.754 528.128 325.214 534.062 321.857 538.912C318.232 544.149 312.056 546.938 300.252 547.87C288.451 548.802 281.76 544.146 281.76 544.146Z" fill="#FAFAFA"/>
<path d="M266.349 503.934C266.756 503.972 267.173 503.83 267.462 503.517C268.997 501.857 278.363 496.196 285.454 499.109C285.624 498.84 285.92 497.119 285.061 496.587C275.487 494.186 267.306 499.807 265.457 501.812C264.972 502.337 265.029 503.144 265.581 503.614C265.805 503.804 266.073 503.908 266.349 503.934Z" fill="#FAFAFA"/>
<path d="M288.425 506.596C288.444 505.36 287.72 504.26 287.283 503.951C279.217 502.794 271.108 507.871 269.335 509.794C268.85 510.318 268.909 511.124 269.463 511.593C269.688 511.784 269.955 511.888 270.23 511.913C270.637 511.95 271.054 511.808 271.344 511.494C272.83 509.88 282.049 504.53 288.425 506.596Z" fill="#FAFAFA"/>
<path d="M300.646 518.592C300.524 517.766 298.889 516.514 297.533 516.169C288.615 515.556 281.084 522.351 279.611 524.602C279.219 525.2 279.41 525.988 280.033 526.357C280.286 526.507 280.568 526.566 280.842 526.545C281.249 526.514 281.639 526.306 281.871 525.95C283.178 523.954 292.187 516.342 300.646 518.592Z" fill="#FAFAFA"/>
<path d="M274.861 519.671C275.27 519.661 275.668 519.47 275.918 519.124C277.229 517.314 285.047 510.457 293.104 512.527C293.16 511.82 291.681 510.427 290.964 510.227C282.967 509.503 275.256 515.551 273.722 517.669C273.303 518.247 273.455 519.042 274.059 519.441C274.307 519.607 274.586 519.678 274.861 519.671Z" fill="#FAFAFA"/>
<path d="M183.007 500.745C175.724 500.146 172.464 500.733 173.273 508.503C174.082 516.273 174.165 522.227 174.165 522.227C174.165 522.227 187.15 523.152 193.319 520.038C199.488 516.926 193.961 501.646 183.007 500.745Z" fill="#21A415"/>
<path opacity="0.5" d="M183.007 500.745C175.724 500.146 172.464 500.733 173.273 508.503C174.082 516.273 174.165 522.227 174.165 522.227C174.165 522.227 187.15 523.152 193.319 520.038C199.488 516.926 193.961 501.646 183.007 500.745Z" fill="black"/>
<path d="M182.781 533.946C182.31 533.927 181.832 533.859 181.356 533.743C177.405 532.791 174.975 528.814 175.931 524.865C178.226 515.362 180.403 508.039 182.326 501.578C185.128 492.158 187.342 484.716 188.946 474.152C191.454 457.613 186.866 441.533 181.737 431.995C179.813 428.417 181.153 423.955 184.732 422.029C188.303 420.105 192.772 421.444 194.698 425.024C197.734 430.665 207.34 451.042 203.498 476.359C201.742 487.934 199.282 496.201 196.435 505.773C194.563 512.062 192.443 519.189 190.238 528.319C189.396 531.793 186.221 534.092 182.781 533.946Z" fill="#455A64"/>
<path d="M164.781 543.145C164.781 543.145 163.946 546.196 164.55 547.447C165.491 549.395 171.042 551.969 173.967 553.322C176.893 554.676 180.095 556.623 182.977 562.427C186.057 568.629 191.935 573.001 198.595 575.857C205.254 578.713 215.054 580.466 226.748 578.062C238.443 575.658 239.224 568.709 239.224 568.709C239.224 568.709 239.681 562.179 236.73 561.223C233.779 560.267 164.781 543.145 164.781 543.145Z" fill="#455A64"/>
<path d="M170.47 519.042C170.055 521.086 169.502 523.102 168.813 525.069C166.915 530.489 163.927 536.024 164.781 543.143C166.539 546.612 170.453 548.057 173.378 549.505C177.31 551.451 180.132 552.747 182.853 556.33C187.737 562.761 192.309 570.827 207.773 573.5C223.236 576.172 234.788 570.992 237.521 566.542C240.256 562.093 237.556 558.031 227.562 552.953C222.489 550.376 211.098 540.173 209.795 538.832C208.531 537.531 207.615 536.04 206.655 534.518C204.716 531.441 203.294 527.579 202.939 523.982C202.608 520.622 202.964 516.302 203.998 512.176C204.22 511.293 204.703 510.382 204.359 509.539C203.455 507.325 200.024 507.756 198.141 507.826C195.302 507.93 192.496 508.416 189.704 508.903C188.798 509.061 187.841 509.244 187.162 509.864C186.509 510.462 186.233 511.355 185.968 512.201C185.565 513.488 185.125 514.762 184.647 516.023C184.316 516.898 183.888 517.851 183.027 518.214C182.177 518.574 181.14 518.199 180.54 517.495C179.941 516.792 179.718 515.836 179.697 514.913C179.676 513.99 179.837 513.074 179.91 512.152C179.981 511.271 179.96 510.335 179.518 509.57C178.568 507.919 175.99 507.561 175.414 505.746C175.105 504.774 175.543 503.669 176.312 502.999C177.081 502.328 178.119 502.039 179.137 501.973C180.156 501.907 181.074 501.98 182.179 502.058L182.807 499.943C180.177 499.588 178.138 499.6 175.699 500.534C174.399 501.033 172.923 502.159 172.332 503.452C171.291 505.73 171.782 507.68 171.853 508.745C172.13 512.847 171.288 515.017 170.47 519.042Z" fill="#21A415"/>
<path opacity="0.35" d="M170.47 519.042C170.055 521.086 169.502 523.102 168.813 525.069C166.915 530.489 163.927 536.024 164.781 543.143C166.539 546.612 170.453 548.057 173.378 549.505C177.31 551.451 180.132 552.747 182.853 556.33C187.737 562.761 192.309 570.827 207.773 573.5C223.236 576.172 234.788 570.992 237.521 566.542C240.256 562.093 237.556 558.031 227.562 552.953C222.489 550.376 211.098 540.173 209.795 538.832C208.531 537.531 207.615 536.04 206.655 534.518C204.716 531.441 203.294 527.579 202.939 523.982C202.608 520.622 202.964 516.302 203.998 512.176C204.22 511.293 204.703 510.382 204.359 509.539C203.455 507.325 200.024 507.756 198.141 507.826C195.302 507.93 192.496 508.416 189.704 508.903C188.798 509.061 187.841 509.244 187.162 509.864C186.509 510.462 186.233 511.355 185.968 512.201C185.565 513.488 185.125 514.762 184.647 516.023C184.316 516.898 183.888 517.851 183.027 518.214C182.177 518.574 181.14 518.199 180.54 517.495C179.941 516.792 179.718 515.836 179.697 514.913C179.676 513.99 179.837 513.074 179.91 512.152C179.981 511.271 179.96 510.335 179.518 509.57C178.568 507.919 175.99 507.561 175.414 505.746C175.105 504.774 175.543 503.669 176.312 502.999C177.081 502.328 178.119 502.039 179.137 501.973C180.156 501.907 181.074 501.98 182.179 502.058L182.807 499.943C180.177 499.588 178.138 499.6 175.699 500.534C174.399 501.033 172.923 502.159 172.332 503.452C171.291 505.73 171.782 507.68 171.853 508.745C172.13 512.847 171.288 515.017 170.47 519.042Z" fill="black"/>
<path d="M197.569 570.373C197.569 570.373 197.239 559.313 208.692 553.093C220.146 546.874 227.289 550.521 230.902 552.989C235.204 555.927 241.408 562.127 237.852 566.831C234.011 571.913 227.722 574.438 215.89 574.873C204.057 575.306 197.569 570.373 197.569 570.373Z" fill="#FAFAFA"/>
<path d="M183.862 529.55C184.268 529.604 184.692 529.481 184.993 529.18C186.595 527.586 196.192 522.324 203.155 525.532C203.335 525.272 203.704 523.563 202.867 522.996C193.402 520.196 184.991 525.466 183.06 527.392C182.553 527.896 182.577 528.705 183.111 529.197C183.325 529.396 183.589 529.512 183.862 529.55Z" fill="#FAFAFA"/>
<path d="M205.807 533.136C205.878 531.901 205.201 530.771 204.778 530.446C196.769 528.951 188.452 533.681 186.599 535.527C186.093 536.031 186.117 536.839 186.651 537.332C186.867 537.531 187.131 537.647 187.404 537.684C187.81 537.737 188.232 537.614 188.534 537.313C190.089 535.763 199.523 530.804 205.807 533.136Z" fill="#FAFAFA"/>
<path d="M217.512 545.635C217.425 544.804 215.844 543.486 214.505 543.084C205.62 542.097 197.81 548.569 196.243 550.757C195.825 551.337 195.985 552.132 196.591 552.529C196.837 552.69 197.116 552.761 197.393 552.752C197.801 552.738 198.198 552.546 198.446 552.2C199.835 550.26 209.155 543.032 217.512 545.635Z" fill="#FAFAFA"/>
<path d="M191.706 545.63C192.115 545.637 192.52 545.462 192.785 545.128C194.171 543.375 202.272 536.852 210.235 539.26C210.32 538.557 208.902 537.102 208.193 536.873C200.233 535.815 192.276 541.532 190.653 543.585C190.21 544.146 190.329 544.946 190.917 545.37C191.154 545.542 191.429 545.625 191.706 545.63Z" fill="#FAFAFA"/>
<path d="M370.759 373.064C363.722 373.064 354.954 370.599 345.229 363.957C342.834 362.321 342.217 359.049 343.854 356.653C345.492 354.255 348.762 353.643 351.158 355.278C364.262 364.229 373.632 363.18 377.108 361.15C378.518 360.324 379.564 358.375 379.975 355.803C380.796 350.666 379.095 342.264 371.859 334.094C356.55 316.8 337.342 307.911 307.629 304.373C304.747 304.03 302.69 301.415 303.032 298.533C303.375 295.651 305.984 293.584 308.873 293.936C340.936 297.755 362.79 307.993 379.731 327.126C387.937 336.394 391.908 347.734 390.355 357.462C389.433 363.235 386.614 367.768 382.415 370.225C379.474 371.94 375.511 373.064 370.759 373.064Z" fill="#455A64"/>
<path d="M304.285 238.282C312.235 230.794 319.239 208.767 315.626 185.624C312.013 162.481 290.626 140.838 282.11 136.156C273.594 131.474 267.601 137.529 269.917 146.156C273.067 157.893 276.994 184.295 255.091 195.922C255.091 195.922 258.333 213.161 269.621 226.845C280.908 240.53 304.285 238.282 304.285 238.282Z" fill="#21A415"/>
<path opacity="0.75" d="M304.285 238.282C312.235 230.794 319.239 208.767 315.626 185.624C312.013 162.481 290.626 140.838 282.11 136.156C273.594 131.474 267.601 137.529 269.917 146.156C273.067 157.893 276.994 184.295 255.091 195.922C255.091 195.922 258.333 213.161 269.621 226.845C280.908 240.53 304.285 238.282 304.285 238.282Z" fill="white"/>
<path d="M274.559 150.707C272.627 150.707 270.713 150.426 268.942 149.861C268.387 149.685 268.081 149.094 268.258 148.54C268.436 147.989 269.027 147.677 269.577 147.857C276.474 150.057 285.78 147.489 288.11 140.289C288.288 139.738 288.874 139.433 289.435 139.613C289.987 139.792 290.289 140.386 290.11 140.938C288.013 147.416 281.176 150.707 274.559 150.707Z" fill="#21A415"/>
<path d="M282.436 165.243C276.536 165.243 272.444 162.919 270.859 162.021C270.353 161.734 270.178 161.093 270.464 160.589C270.75 160.082 271.392 159.907 271.896 160.192C275.13 162.028 280.264 164.266 287.491 162.527C297.05 160.227 299.091 154.628 299.524 152.326C299.631 151.752 300.189 151.382 300.751 151.487C301.321 151.595 301.695 152.144 301.59 152.714C301.081 155.417 298.735 161.985 287.985 164.573C285.997 165.049 284.14 165.243 282.436 165.243Z" fill="#21A415"/>
<path d="M293.318 183.465C293.292 183.465 293.264 183.465 293.236 183.465C280.894 183.441 273.246 177.272 269.785 173.597C269.387 173.174 269.408 172.509 269.83 172.11C270.251 171.714 270.916 171.731 271.316 172.156C274.546 175.585 281.686 181.342 293.24 181.365C293.266 181.365 293.294 181.365 293.32 181.365C306.815 181.365 310.825 175.025 312.54 172.315C312.853 171.823 313.504 171.677 313.991 171.989C314.481 172.299 314.627 172.949 314.317 173.439C312.581 176.182 307.972 183.465 293.318 183.465Z" fill="#21A415"/>
<path d="M298.829 204.608C294.973 204.608 290.808 204.036 286.554 202.602C276.614 199.251 269.435 193.489 265.221 185.478C264.951 184.964 265.147 184.328 265.663 184.058C266.172 183.789 266.813 183.983 267.081 184.498C271.091 192.122 277.681 197.393 287.228 200.611C300.403 205.05 312.979 200.635 316.483 197.399C316.911 197.006 317.576 197.034 317.968 197.458C318.362 197.884 318.335 198.55 317.909 198.944C315.155 201.489 307.839 204.608 298.829 204.608Z" fill="#21A415"/>
<path opacity="0.1" d="M272.258 219.499C291.109 197.962 283.821 164.034 279.186 154.307C272.66 140.615 275.423 134.61 281.133 135.684C273.145 131.978 267.691 137.865 269.917 146.154C273.067 157.89 276.994 184.293 255.091 195.92C255.091 195.92 257.93 211 267.533 224.148C269.11 222.818 270.689 221.292 272.258 219.499Z" fill="black"/>
<path d="M321.594 366.056C315.186 350.456 311.996 307.335 313.321 278.985C317.614 278.086 322.867 272.232 320.744 264.663C318.835 257.86 316.982 256.963 311.246 249.618C307.15 244.373 304.304 237.433 300.634 231.814C288.033 212.516 272.009 199.642 248.428 194.095C244.38 193.142 241.945 188.966 243.107 184.976C244.614 179.795 245.897 172.997 244.314 168.007C241.392 158.798 235.576 157.865 231.719 159.569C227.862 161.273 227.587 165.103 228.742 171.286C229.897 177.469 228.085 178.552 226.019 177.887C223.953 177.222 222.427 165.984 208.034 160.697C193.641 155.409 183.918 162.347 184.159 168.29C184.42 174.773 189.136 175.278 199.123 176.359C203.368 176.818 207.882 178.606 210.753 181.522C214.77 185.601 212.544 192.503 206.957 193.748C170.353 201.906 141.941 232.407 133.905 273.559C132.687 279.846 131.849 287.431 131.341 295.905H131.339C131.339 295.905 127.673 289.014 119.801 287.079C112.731 285.34 109.934 288.726 110.027 291.88C110.121 295.036 114.058 296.541 118.024 298.183C124.38 300.815 125.414 303.258 125.414 303.258C125.414 303.258 119.919 302.328 115.573 304.248C111.227 306.167 110.09 310.868 114.291 312.657C116.638 313.657 120.218 311.866 123.907 311.01C126.23 310.473 130.527 309.621 130.766 312.41L130.77 312.408C130.685 318.924 130.742 325.744 130.931 332.745C131.462 352.509 134.925 366.043 131.766 383.967C129.372 397.551 117.489 408.286 129.42 419.497C134.753 424.508 140.983 424.899 145.871 424.046C149.87 423.346 153.606 425.838 154.534 429.791C155.859 435.432 159.94 442.282 171.434 445.323C182.044 448.131 188.835 444.899 192.973 440.965C195.972 438.115 200.755 438.078 203.41 441.253C207.823 446.529 216.013 452.194 230.822 452.121C245.603 452.049 253.087 445.626 256.783 440.157C258.964 436.93 263.219 435.761 266.571 437.742C272.194 441.068 281.234 443.742 292.499 437.734C300.869 433.268 303.034 425.244 303.237 418.739C303.369 414.471 307.226 411.133 311.447 411.781C317.907 412.775 324.483 411.083 328.926 404.368C336.928 392.272 327.369 380.113 321.594 366.056Z" fill="#21A415"/>
<g opacity="0.1">
<path d="M118.022 298.181C124.378 300.814 125.412 303.256 125.412 303.256C125.412 303.256 119.917 302.326 115.571 304.247C111.226 306.166 110.088 310.866 114.29 312.655C116.636 313.655 120.216 311.864 123.906 311.008C126.228 310.471 130.525 309.619 130.764 312.408L130.768 312.406C130.683 318.922 130.74 325.742 130.929 332.743C131.461 352.507 134.923 366.041 131.764 383.965C129.37 397.549 117.487 408.284 129.419 419.496C132.216 422.125 135.259 423.462 138.228 424.035C137.872 423.845 132.287 414.859 138.867 401.919C148.117 383.732 147.544 372.338 145.121 335.473C142.156 290.368 147.691 271.093 164.06 239.219C180.831 206.56 207.516 204.972 218.845 196.317C225.002 191.613 222.895 183.062 217.51 177.643C212.986 173.089 205.919 171.246 201.754 170.815C192.628 169.871 184.164 168.288 185.875 163.733C184.707 165.169 184.1 166.76 184.162 168.288C184.423 174.771 189.14 175.277 199.126 176.357C203.372 176.816 207.885 178.604 210.757 181.521C214.773 185.599 212.548 192.501 206.96 193.747C170.356 201.904 141.944 232.405 133.908 273.557C132.69 279.844 131.852 287.429 131.345 295.904H131.343C131.343 295.904 127.676 289.012 119.804 287.077C112.734 285.338 109.937 288.724 110.031 291.878C110.119 295.034 114.057 296.539 118.022 298.181Z" fill="black"/>
<path d="M164.059 429.967C159.406 423.845 155.653 422.84 149.193 424.2C149.181 424.201 149.172 424.208 149.16 424.21C151.761 424.912 153.867 426.964 154.531 429.789C155.856 435.43 159.936 442.28 171.43 445.321C178.923 447.305 184.503 446.269 188.598 444.109C171.984 447.72 168.709 436.09 164.059 429.967Z" fill="black"/>
<path d="M243.857 449.989C235.672 451.063 227.999 449.215 219.372 442.896C210.071 436.085 205.526 436.72 199.773 439.025C199.771 439.025 199.769 439.027 199.769 439.027C201.141 439.341 202.421 440.073 203.408 441.251C207.821 446.527 216.012 452.192 230.82 452.119C236.025 452.093 240.308 451.271 243.857 449.989Z" fill="black"/>
<path d="M232.552 168.589C232.242 163.128 235.729 159.003 240.014 160.804C237.269 158.473 234.116 158.509 231.719 159.567C227.862 161.272 227.587 165.101 228.742 171.284C229.897 177.468 228.085 178.55 226.019 177.885C225.714 177.786 225.416 177.436 225.091 176.929L225.093 176.934C226.676 180.443 228.222 183.949 231.83 181.99C235.44 180.031 232.862 174.052 232.552 168.589Z" fill="black"/>
</g>
<path opacity="0.2" d="M197.699 293.453C197.699 293.453 199.698 301.913 208.968 301.796C218.237 301.678 219.256 297.467 223.054 291.726C226.852 285.984 234.994 284.685 242.075 284.568C249.155 284.45 255.78 276.415 251.985 268.28C251.985 268.28 252.95 274.084 247.276 277.792C241.602 281.5 234.052 278.159 226.617 281.718C219.181 285.276 218.54 293.281 213.079 295.827C207.618 298.375 200.999 296.439 197.699 293.453Z" fill="black"/>
<path d="M241.103 288.655C240.284 296.286 233.43 301.794 225.799 300.975C221.279 300.492 217.496 297.885 215.35 294.248C219.029 290.82 220.416 284.893 226.618 281.718C231.517 279.217 235.237 280.352 239.337 280.246C240.746 282.706 241.441 285.628 241.103 288.655Z" fill="#455A64"/>
<path d="M194.76 289.197C196.459 293.035 200.386 297.623 209.331 296.844C218.686 296.028 217.932 286.147 226.615 281.718C234.56 277.665 239.428 283.159 247.761 277.477C255.285 272.345 251.022 262.218 248.187 260.146" stroke="#455A64" stroke-width="1.2138" stroke-miterlimit="10" stroke-linecap="round"/>
<path d="M233.671 290.912C235.778 290.912 237.487 289.203 237.487 287.096C237.487 284.989 235.778 283.281 233.671 283.281C231.564 283.281 229.855 284.989 229.855 287.096C229.855 289.203 231.564 290.912 233.671 290.912Z" fill="#F5F5F5"/>
<path opacity="0.2" d="M313.301 279.463L312.378 278.987C312.378 278.987 309.117 278.765 307.262 277.05C305.407 275.336 303.322 269.722 297.393 268.28C291.463 266.837 288.146 269.729 281.573 270.008C274.998 270.287 272.786 265.744 271.468 261.937C270.772 268.396 272.601 272.724 277.284 274.626C282.486 276.737 291.89 272.305 295.91 274.626C299.93 276.947 302.256 281.746 307.262 282.302C310.154 282.624 312.091 281.832 313.234 281.105C313.255 280.553 313.277 280.005 313.301 279.463Z" fill="black"/>
<path d="M307.262 277.051C305.642 283.357 299.61 287.709 292.924 286.994C285.608 286.195 280.31 279.616 281.109 272.3C281.194 271.522 281.341 270.744 281.571 270.008C286.448 269.882 290.905 266.497 297.402 268.285C303.121 269.861 303.498 274.38 307.262 277.051Z" fill="#455A64"/>
<path d="M271.732 257.573C270.402 261.289 272.165 266.13 275.977 268.436C283.532 273.005 288.558 265.846 297.395 268.28C304.032 270.109 303.484 275.849 309.313 278.161C310.44 278.608 312.217 279.027 313.322 278.983" stroke="#455A64" stroke-width="1.2138" stroke-miterlimit="10" stroke-linecap="round"/>
<path d="M297.928 279.86C299.897 279.86 301.493 278.264 301.493 276.295C301.493 274.327 299.897 272.731 297.928 272.731C295.96 272.731 294.364 274.327 294.364 276.295C294.364 278.264 295.96 279.86 297.928 279.86Z" fill="#F5F5F5"/>
<path d="M259.478 305.946C241.475 313.996 225.661 329.918 218.353 347.47C213.848 358.29 216.301 367.291 222.342 369.332C234.249 373.355 247.603 354.788 260.882 348.31C274.032 341.897 284.98 348.094 291.721 343.75C299.652 338.639 298.493 325.604 294.23 316.296C289.478 305.915 277.482 297.895 259.478 305.946Z" fill="#455A64"/>
<path d="M291.265 343.991C284.666 321.05 263.129 313.899 241.266 317.36C231.243 325.63 223.042 336.207 218.353 347.47C213.848 358.29 216.301 367.291 222.342 369.332C234.249 373.355 247.603 354.786 260.882 348.31C273.748 342.035 284.493 347.803 291.265 343.991Z" fill="#F28F8F"/>
<path opacity="0.1" d="M277.044 345.195C254.933 339.25 240.66 358.254 233.669 358.076C226.676 357.897 223.296 351.792 232.989 336.277C242.593 320.903 263.482 316.546 272.56 321.078C263.508 316.615 252.436 315.59 241.266 317.358C231.243 325.628 223.042 336.206 218.353 347.469C213.848 358.289 216.303 367.29 222.342 369.33C234.25 373.354 247.603 354.785 260.883 348.309C266.778 345.435 272.218 345.094 277.044 345.195Z" fill="black"/>
<path d="M285.534 323.231C281.268 325.081 281.325 330.748 277.811 342.778C277.565 343.622 277.324 344.429 277.089 345.205C283.018 345.34 288.011 346.14 291.723 343.748C292.481 343.26 293.141 342.674 293.752 342.046C294.613 332.918 290.048 321.274 285.534 323.231Z" fill="#F5F5F5"/>
<path d="M293.752 342.047C293.853 340.987 293.872 339.893 293.836 338.789C292.686 340.262 290.888 341.699 288.879 342.092C285.64 342.724 282.037 342.092 282.037 342.092C282.037 342.092 283.154 335.057 284.251 329.012C284.987 324.954 287.417 323.198 289.346 324.603C288.16 323.269 286.847 322.664 285.536 323.234C281.27 325.084 281.327 330.751 277.813 342.782C277.567 343.625 277.326 344.432 277.091 345.208C283.019 345.343 288.011 346.143 291.724 343.752C292.481 343.26 293.141 342.674 293.752 342.047Z" fill="#E0E0E0"/>
<path d="M239.823 338.18C235.557 340.03 235.614 345.697 232.1 357.727C230.562 362.991 229.251 366.869 228.224 369.65C234.575 368.428 241.245 362.71 248.026 357.216V357.215C248.984 348.058 244.371 336.207 239.823 338.18Z" fill="#F5F5F5"/>
<path d="M248.026 357.216C248.178 355.752 248.177 354.221 248.067 352.687C241.333 357.051 237.284 361.721 236.217 361.142C235.147 360.56 236.065 355.827 236.525 350.619C237.081 344.333 237.861 337.826 242.037 338.282C241.313 337.935 240.568 337.856 239.821 338.179C235.555 340.029 235.613 345.696 232.098 357.727C230.56 362.99 229.249 366.868 228.222 369.65C234.577 368.429 241.247 362.71 248.026 357.216Z" fill="#E0E0E0"/>
<path d="M93.1107 416.348C92.5565 416.348 91.9936 416.26 91.4393 416.073C88.6854 415.152 87.2046 412.171 88.1277 409.419C102.119 367.698 122.681 350.066 151.321 335.142C153.892 333.8 157.068 334.797 158.411 337.373C159.753 339.946 158.754 343.121 156.18 344.462C129.181 358.532 111.02 374.219 98.0937 412.761C97.3558 414.958 95.3069 416.348 93.1107 416.348Z" fill="#455A64"/>
<path d="M89.4076 405.665C87.2028 411.379 83.8479 413.697 80.6385 417.062C77.4291 420.427 73.979 422.488 70.631 427.759C67.283 433.029 65.7052 441.951 66.7098 446.12C67.2778 448.477 70.5427 448.503 70.7332 446.431C71.4433 438.754 72.7215 432.141 78.115 428.02C78.115 428.02 74.4622 435.43 73.979 442.193C73.4957 448.955 74.3808 457.012 77.1832 457.419C79.9855 457.826 79.8712 454.955 79.4815 450.895C79.0918 446.835 78.7264 436.081 84.1319 428.412C84.1319 428.412 82.2042 439.742 84.1285 446.968C86.0527 454.194 89.8025 459.376 91.8792 458.488C93.9541 457.599 93.8554 456.226 91.6107 450.664C89.8683 446.347 89.9549 440.879 90.3966 436.246C90.8452 431.521 91.9294 428.214 95.1042 424.918C96.4863 423.484 97.9481 422.684 99.1068 422.351C100.416 421.976 102.673 422.731 103.882 423.905C105.836 425.807 107.552 428.207 108.089 432.151C108.583 435.788 114.593 436.123 112.355 425.893C110.117 415.666 97.5255 413.873 100.685 405.529L89.4076 405.665Z" fill="#455A64"/>
<path d="M351.033 367.409L355.82 358.131C348.381 354.248 356.889 342.828 352.588 333.283C348.288 323.738 343.662 327.589 345.434 330.803C347.354 334.288 347.718 337.309 346.973 339.931C346.251 342.472 344.604 343.956 342.843 342.454C341.079 340.951 339.969 335.994 333.542 330.538C327.708 325.586 322.188 324.623 319.777 324.618C314.76 324.606 316.523 328.103 318.939 329.073C329.305 333.23 330.599 335.54 333.207 338.928C335.816 342.316 335.471 344.275 334.115 343.869C332.759 343.464 330.713 340.53 324.379 337.617C318.045 334.704 311.043 334.733 309.936 336.058C308.831 337.383 308.972 339.103 311.98 339.823C314.987 340.542 321.355 342.132 324.814 344.127C329.231 346.675 331.249 349.964 330.518 350.927C329.787 351.89 326.016 349.213 320.268 348.154C314.521 347.096 311.563 347.101 309.186 348.023C307.414 348.709 308.05 352.261 313.326 352.509C317.587 352.709 324.546 354.771 328.424 357.415C330.582 358.888 333.457 360.9 337.184 362.516C341.256 364.281 343.719 365.05 351.033 367.409Z" fill="#455A64"/>
<path d="M179.061 227.186C185.139 230.364 194.887 246.962 182.938 264.613C170.99 282.264 154.065 281.625 146.301 280.286C141.451 277.927 116.07 266.925 114.815 231.825C113.559 196.726 135.162 183.296 140.568 180.185C145.973 177.076 156.739 176.136 155.413 188.159C154.086 200.183 152.815 210.845 161.551 218.576C168.396 224.635 179.061 227.186 179.061 227.186Z" fill="#21A415"/>
<path opacity="0.75" d="M179.061 227.186C185.139 230.364 194.887 246.962 182.938 264.613C170.99 282.264 154.065 281.625 146.301 280.286C141.451 277.927 116.07 266.925 114.815 231.825C113.559 196.726 135.162 183.296 140.568 180.185C145.973 177.076 156.739 176.136 155.413 188.159C154.086 200.183 152.815 210.845 161.551 218.576C168.396 224.635 179.061 227.186 179.061 227.186Z" fill="white"/>
<path d="M133.586 272.821C132.585 272.821 131.724 272.774 131.038 272.702C130.461 272.639 130.044 272.121 130.106 271.543C130.169 270.964 130.695 270.554 131.265 270.611C136.541 271.179 152.648 270 163.775 257.863C175.164 245.435 175.618 233.337 173.99 225.376C173.876 224.808 174.241 224.252 174.811 224.136C175.369 224.022 175.933 224.386 176.051 224.955C177.776 233.396 177.314 246.202 165.321 259.285C155.052 270.488 140.715 272.821 133.586 272.821Z" fill="#21A415"/>
<path d="M127.144 249.655C120.779 249.655 116.072 248.632 115.677 248.543C115.111 248.415 114.754 247.854 114.88 247.288C115.01 246.721 115.566 246.365 116.136 246.493C116.933 246.671 135.765 250.762 149.269 241.706C161.49 233.51 162.557 223.613 163.012 219.387C163.073 218.808 163.619 218.403 164.171 218.455C164.748 218.516 165.165 219.035 165.103 219.612C164.658 223.741 163.477 234.71 150.44 243.45C143.006 248.436 134.088 249.655 127.144 249.655Z" fill="#21A415"/>
<path d="M132.171 221.673C123.112 221.673 117.194 218.824 114.184 216.853C113.699 216.535 113.564 215.883 113.883 215.398C114.201 214.908 114.853 214.78 115.337 215.095C118.834 217.385 126.561 220.942 139.087 219.029C148.975 217.517 153.256 214.337 156.412 211.124C156.815 210.71 157.482 210.705 157.898 211.112C158.312 211.519 158.317 212.184 157.91 212.598C154.501 216.067 149.9 219.501 139.402 221.105C136.802 221.502 134.393 221.673 132.171 221.673Z" fill="#21A415"/>
<path d="M143.193 201.425C141.231 201.425 139.116 201.175 136.858 200.586C131.3 199.138 127.15 195.955 124.853 191.382C124.595 190.865 124.805 190.232 125.321 189.973C125.833 189.711 126.471 189.919 126.734 190.44C128.776 194.514 132.361 197.243 137.388 198.553C145.221 200.593 151.147 198.172 154.737 195.78C155.213 195.456 155.872 195.584 156.195 196.073C156.518 196.554 156.386 197.207 155.904 197.529C152.993 199.467 148.689 201.425 143.193 201.425Z" fill="#21A415"/>
<path opacity="0.1" d="M160.008 267.764C152.344 267.066 142.755 264.895 134.455 252.167C126.156 239.438 123.573 212.932 131.151 196.956C136.134 186.45 146.103 176.813 153.282 180.031C150.071 177.041 144.151 178.124 140.568 180.185C135.162 183.294 113.559 196.724 114.815 231.825C116.07 266.925 141.451 277.925 146.301 280.286C154.065 281.623 170.99 282.264 182.938 264.613C190.938 252.794 189.207 241.456 185.369 234.294L185.362 234.291C191.364 253.118 171.392 268.801 160.008 267.764Z" fill="black"/>
<path d="M175.722 264.13C175.722 264.13 166.695 274.082 166.617 283.658C166.577 288.51 170.074 292.949 175.722 292.949C181.372 292.949 184.869 288.511 184.829 283.658C184.749 274.082 175.722 264.13 175.722 264.13Z" fill="#FAFAFA"/>
<path d="M484.989 105.124L373.308 169.523C372.148 170.193 371.207 171.823 371.207 173.163V243.374C371.207 244.714 372.153 246.334 373.32 246.993L380.849 251.214C382.017 251.873 383.905 251.864 385.065 251.194L496.746 186.794C497.907 186.124 498.847 184.494 498.847 183.154V112.944C498.847 111.603 497.901 109.984 496.734 109.324L489.205 105.103C488.038 104.445 486.151 104.453 484.989 105.124Z" fill="#21A415"/>
<path d="M382.964 249.981V179.771C382.964 178.431 383.905 176.801 385.067 176.131L496.748 111.731C497.908 111.061 498.849 111.605 498.849 112.945V183.156C498.849 184.496 497.908 186.126 496.748 186.796L385.067 251.195C383.905 251.864 382.964 251.32 382.964 249.981Z" fill="#21A415"/>
<path opacity="0.2" d="M385.065 251.194C383.825 251.904 381.902 251.866 380.846 251.218L373.32 246.988C372.155 246.337 371.204 244.716 371.204 243.377V173.162C371.204 172.462 371.465 171.697 371.874 171.016L383.582 177.701C383.194 178.351 382.961 179.099 382.961 179.769V249.976C382.964 251.204 383.828 251.911 385.065 251.194Z" fill="black"/>
<path opacity="0.4" d="M498.821 112.563C498.657 111.504 497.792 111.125 496.744 111.728L385.07 176.13C384.488 176.47 383.963 177.043 383.586 177.703L371.867 171.018C372.246 170.387 372.751 169.843 373.313 169.523L484.996 105.12C486.151 104.45 488.034 104.441 489.208 105.101L496.734 109.32C497.792 109.921 498.674 111.31 498.821 112.563Z" fill="white"/>
<path d="M371.206 198.11L354.294 215.314C353.392 216.232 353.705 217.598 354.613 218.189C354.961 218.416 366.32 224.923 366.32 224.923L382.962 204.883L371.206 198.11Z" fill="#21A415"/>
<path opacity="0.1" d="M371.206 198.11L354.294 215.314C353.392 216.232 353.705 217.598 354.613 218.189C354.961 218.416 366.32 224.923 366.32 224.923L382.962 204.883L371.206 198.11Z" fill="black"/>
<path d="M382.964 204.882L366.053 222.084C364.804 223.354 365.883 225.482 367.644 225.229L382.964 223.018C384.608 223.019 384.608 204.882 382.964 204.882Z" fill="#21A415"/>
<path d="M396.647 199.208C396.713 197.245 396.985 195.278 397.466 193.3C397.946 191.324 398.627 189.455 399.506 187.692C400.388 185.929 401.457 184.316 402.719 182.849C403.978 181.384 405.433 180.175 407.084 179.222C408.71 178.282 410.162 177.814 411.433 177.818C412.704 177.823 413.78 178.197 414.663 178.942C415.545 179.686 416.224 180.771 416.703 182.193C417.183 183.616 417.455 185.269 417.523 187.155C417.568 188.605 417.589 190.137 417.589 191.752C417.589 193.366 417.566 194.89 417.523 196.324C417.457 198.285 417.183 200.254 416.703 202.23C416.222 204.206 415.543 206.086 414.663 207.866C413.782 209.645 412.704 211.263 411.433 212.717C410.162 214.172 408.71 215.371 407.084 216.311C405.433 217.264 403.978 217.744 402.719 217.749C401.457 217.756 400.388 217.378 399.506 216.616C398.627 215.854 397.944 214.761 397.466 213.338C396.985 211.914 396.714 210.261 396.647 208.377C396.6 206.995 396.579 205.497 396.579 203.883C396.579 202.268 396.602 200.709 396.647 199.208ZM411.334 199.639C411.357 199.009 411.381 198.309 411.4 197.54C411.423 196.771 411.433 195.993 411.433 195.203C411.433 194.414 411.423 193.657 411.4 192.929C411.379 192.204 411.355 191.558 411.334 190.986C411.289 190.153 411.173 189.431 410.984 188.819C410.796 188.208 410.527 187.737 410.181 187.404C409.834 187.072 409.407 186.899 408.894 186.885C408.379 186.874 407.778 187.065 407.086 187.465C406.393 187.863 405.792 188.367 405.279 188.972C404.765 189.578 404.337 190.246 403.992 190.979C403.644 191.712 403.377 192.493 403.189 193.323C402.998 194.154 402.88 195.011 402.837 195.895C402.792 196.504 402.764 197.181 402.752 197.926C402.742 198.673 402.737 199.438 402.737 200.23C402.737 201.02 402.742 201.789 402.752 202.537C402.763 203.285 402.792 203.957 402.837 204.548C402.927 206.214 403.312 207.416 403.992 208.157C404.671 208.898 405.704 208.869 407.086 208.07C408.468 207.272 409.495 206.113 410.163 204.594C410.832 203.07 411.222 201.42 411.334 199.639Z" fill="#455A64"/>
<path d="M438.499 182.307C438.521 182.809 438.534 183.464 438.534 184.269C438.534 185.076 438.521 185.745 438.499 186.273C438.454 187.946 438.208 189.633 437.764 191.334C437.318 193.033 436.705 194.649 435.923 196.182C435.142 197.713 434.202 199.107 433.097 200.363C431.992 201.619 430.76 202.641 429.401 203.425C428.041 204.211 426.808 204.613 425.703 204.632C424.6 204.651 423.657 204.347 422.876 203.716C422.095 203.084 421.482 202.176 421.037 200.992C420.59 199.807 420.346 198.402 420.301 196.781C420.278 196.279 420.268 195.624 420.268 194.817C420.268 194.012 420.278 193.343 420.301 192.815C420.323 191.154 420.557 189.474 421.004 187.773C421.451 186.072 422.069 184.453 422.861 182.915C423.65 181.375 424.6 179.969 425.703 178.697C426.808 177.426 428.041 176.394 429.401 175.609C430.76 174.825 431.992 174.431 433.097 174.43C434.202 174.426 435.149 174.738 435.941 175.363C436.73 175.987 437.347 176.894 437.78 178.086C438.215 179.278 438.456 180.682 438.499 182.307ZM426.321 193.045C426.389 194.313 426.695 195.157 427.241 195.579C427.786 196.004 428.507 195.957 429.399 195.441C430.291 194.926 431.01 194.142 431.557 193.087C432.103 192.034 432.409 190.837 432.477 189.491C432.522 188.951 432.542 188.353 432.542 187.702C432.542 187.049 432.52 186.479 432.477 185.991C432.411 184.725 432.104 183.88 431.557 183.457C431.01 183.034 430.291 183.079 429.399 183.595C428.507 184.11 427.786 184.896 427.241 185.949C426.695 187.002 426.389 188.203 426.321 189.545C426.276 190.085 426.255 190.681 426.255 191.334C426.255 191.987 426.276 192.557 426.321 193.045Z" fill="#455A64"/>
<path d="M452.151 190.29C451.505 190.664 450.935 190.889 450.445 190.965C449.954 191.043 449.53 191.029 449.173 190.927C448.818 190.823 448.515 190.662 448.271 190.444C448.025 190.226 447.824 190.007 447.67 189.787V200.76C447.67 201.137 447.58 201.515 447.401 201.894C447.221 202.272 447.012 202.53 446.766 202.672L442.548 205.105C442.302 205.247 442.091 205.233 441.913 205.062C441.734 204.889 441.646 204.615 441.646 204.236V170.444C441.646 170.067 441.734 169.691 441.913 169.313C442.093 168.936 442.302 168.676 442.548 168.534L446.598 166.198C446.842 166.056 447.053 166.073 447.235 166.243C447.414 166.414 447.502 166.688 447.502 167.067V168.253C447.701 167.794 447.921 167.306 448.155 166.793C448.389 166.281 448.678 165.778 449.024 165.287C449.371 164.796 449.795 164.31 450.296 163.832C450.798 163.354 451.416 162.902 452.152 162.476C453.157 161.895 454.103 161.582 454.996 161.53C455.887 161.48 456.669 161.748 457.338 162.342C458.008 162.933 458.547 163.851 458.961 165.087C459.373 166.328 459.6 167.945 459.647 169.946C459.669 170.448 459.68 171.137 459.68 172.014C459.68 172.888 459.669 173.592 459.647 174.118C459.6 176.17 459.373 178.053 458.961 179.768C458.547 181.484 458.006 183.024 457.338 184.389C456.669 185.754 455.887 186.933 454.996 187.929C454.101 188.923 453.155 189.711 452.151 190.29ZM453.657 176.955C453.723 175.954 453.723 174.993 453.657 174.07C453.59 172.907 453.332 172.008 452.888 171.373C452.442 170.737 451.695 170.722 450.645 171.328C450.155 171.612 449.731 171.976 449.374 172.422C449.019 172.869 448.723 173.358 448.489 173.886C448.254 174.416 448.07 174.96 447.937 175.517C447.803 176.077 447.713 176.626 447.67 177.166C447.623 177.708 447.601 178.322 447.601 179.007C447.601 179.695 447.623 180.282 447.67 180.772C447.713 181.261 447.803 181.708 447.937 182.111C448.07 182.515 448.254 182.847 448.489 183.107C448.725 183.367 449.019 183.514 449.374 183.547C449.731 183.582 450.155 183.457 450.645 183.173C451.695 182.567 452.44 181.69 452.888 180.539C453.332 179.392 453.588 178.195 453.657 176.955Z" fill="#455A64"/>
<path d="M472.692 169.878C472.692 169.501 472.609 169.256 472.441 169.147C472.275 169.038 471.991 169.031 471.589 169.125C471.185 169.22 470.657 169.388 469.999 169.631C469.342 169.873 468.522 170.141 467.541 170.432C465.846 170.93 464.541 170.722 463.627 169.805C462.711 168.893 462.255 167.268 462.255 164.933C462.255 163.766 462.442 162.576 462.821 161.36C463.201 160.146 463.731 158.965 464.411 157.815C465.09 156.666 465.911 155.601 466.871 154.618C467.829 153.635 468.899 152.802 470.082 152.12C471.242 151.45 472.313 151.048 473.295 150.909C474.275 150.772 475.122 150.833 475.837 151.089C476.549 151.348 477.114 151.794 477.526 152.432C477.938 153.069 478.167 153.805 478.212 154.637C478.235 155.002 478.15 155.376 477.961 155.761C477.77 156.145 477.552 156.407 477.308 156.549L473.326 158.847C473.08 158.989 472.886 159.015 472.742 158.928C472.599 158.84 472.424 158.752 472.223 158.662C472.024 158.572 471.76 158.534 471.436 158.549C471.113 158.565 470.661 158.74 470.08 159.074C469.568 159.37 469.14 159.729 468.792 160.153C468.445 160.577 468.274 161.043 468.274 161.558C468.274 161.937 468.328 162.195 468.44 162.337C468.553 162.479 468.774 162.514 469.109 162.441C469.445 162.37 469.914 162.228 470.515 162.017C471.118 161.807 471.909 161.539 472.891 161.211C474.92 160.555 476.397 160.757 477.324 161.819C478.248 162.883 478.711 164.443 478.711 166.503C478.711 167.67 478.522 168.87 478.143 170.102C477.763 171.333 477.206 172.549 476.47 173.746C475.735 174.943 474.843 176.068 473.794 177.12C472.744 178.171 471.551 179.084 470.215 179.856C468.877 180.629 467.701 181.076 466.686 181.197C465.671 181.32 464.817 181.221 464.126 180.899C463.435 180.575 462.903 180.094 462.537 179.447C462.169 178.801 461.962 178.079 461.917 177.282C461.897 176.917 461.98 176.543 462.17 176.158C462.359 175.776 462.577 175.511 462.821 175.37L466.971 172.975C467.216 172.835 467.396 172.826 467.507 172.951C467.617 173.075 467.761 173.198 467.941 173.318C468.12 173.439 468.376 173.496 468.709 173.493C469.045 173.488 469.547 173.292 470.217 172.906C470.886 172.519 471.464 172.048 471.954 171.491C472.446 170.931 472.692 170.394 472.692 169.878Z" fill="#455A64"/>
<path d="M487.781 156.737C487.781 157.115 487.691 157.494 487.513 157.872C487.333 158.249 487.123 158.509 486.877 158.65L482.661 161.083C482.415 161.225 482.202 161.211 482.026 161.04C481.846 160.868 481.759 160.593 481.759 160.214V138.014C481.759 137.637 481.846 137.259 482.026 136.882C482.204 136.504 482.415 136.244 482.661 136.102L486.877 133.669C487.121 133.527 487.333 133.544 487.513 133.716C487.691 133.887 487.781 134.163 487.781 134.54V156.737ZM487.781 167.814C487.781 168.191 487.691 168.569 487.513 168.946C487.333 169.326 487.123 169.584 486.877 169.726L482.661 172.159C482.415 172.301 482.202 172.287 482.026 172.114C481.846 171.943 481.759 171.667 481.759 171.29V166.087C481.759 165.709 481.846 165.333 482.026 164.954C482.204 164.576 482.415 164.317 482.661 164.175L486.877 161.741C487.121 161.599 487.333 161.615 487.513 161.786C487.691 161.959 487.781 162.233 487.781 162.611V167.814Z" fill="#455A64"/>
</svg>
