<svg width="843" height="843" viewBox="0 0 843 843" fill="none" xmlns="http://www.w3.org/2000/svg">
<path d="M156.186 534.706L131.178 535.177L118.507 535.366C114.275 535.445 110.023 535.43 105.78 535.458L105.031 535.463L105.028 534.706L104.937 513.407L104.933 512.561L105.78 512.564L130.982 512.67C139.383 512.679 147.783 512.859 156.184 512.947L156.648 512.952L156.645 513.407C156.613 517.013 156.5 520.603 156.424 524.155L156.186 534.706ZM156.186 534.706L155.947 523.958C155.871 520.412 155.758 516.901 155.726 513.407L156.186 513.867C147.785 513.953 139.385 514.136 130.984 514.144L105.781 514.25L106.623 513.409L106.532 534.708L105.78 533.956C109.937 533.986 114.087 533.97 118.256 534.049L130.788 534.238L156.186 534.706Z" fill="#EBEBEB"/>
<path d="M128.067 561.564L103.058 562.035L90.3881 562.224C86.1563 562.303 81.9042 562.288 77.6605 562.316L76.9119 562.321L76.9086 561.564L76.8175 540.265L76.8142 539.419L77.6605 539.422L102.863 539.528C111.264 539.537 119.664 539.717 128.065 539.805L128.529 539.81L128.525 540.265C128.493 543.872 128.38 547.461 128.305 551.013L128.067 561.564ZM128.067 561.564L127.827 550.816C127.752 547.269 127.639 543.759 127.607 540.265L128.067 540.725C119.666 540.811 111.266 540.994 102.865 541.002L77.6622 541.108L78.5035 540.267L78.4125 561.566L77.6605 560.814C81.8182 560.845 85.9675 560.828 90.1369 560.907L102.669 561.096L128.067 561.564Z" fill="#EBEBEB"/>
<path d="M128.067 100.678L103.058 101.148L90.3881 101.337C86.1563 101.416 81.9042 101.399 77.6605 101.43L76.9119 101.435L76.9086 100.678L76.8175 79.3786L76.8142 78.5322L77.6605 78.5356L102.863 78.6418C111.264 78.6503 119.664 78.8306 128.065 78.9183L128.529 78.9234L128.525 79.3786C128.493 82.985 128.38 86.5745 128.305 90.1269L128.067 100.678ZM128.067 100.678L127.827 89.9296C127.752 86.3839 127.639 82.872 127.607 79.3786L128.067 79.8389C119.666 79.9249 111.266 80.107 102.865 80.1154L77.6622 80.2199L78.5035 79.3786L78.4125 100.678L77.6605 99.9259C81.8182 99.9562 85.9675 99.9394 90.1369 100.019L102.669 100.207L128.067 100.678Z" fill="#EBEBEB"/>
<path d="M765.338 100.678L740.329 101.148L727.659 101.337C723.427 101.416 719.175 101.399 714.931 101.43L714.183 101.435L714.179 100.678L714.088 79.3786L714.085 78.5322L714.931 78.5356L740.134 78.6418C748.535 78.6503 756.935 78.8306 765.336 78.9183L765.8 78.9234L765.796 79.3786C765.764 82.985 765.651 86.5745 765.575 90.1269L765.338 100.678ZM765.338 100.678L765.098 89.9296C765.022 86.3839 764.91 82.872 764.877 79.3786L765.338 79.8389C756.936 79.9249 748.535 80.107 740.135 80.1154L714.933 80.2216L715.774 79.3803L715.683 100.68L714.931 99.9276C719.089 99.9579 723.238 99.9411 727.408 100.02L739.94 100.209L765.338 100.678Z" fill="#EBEBEB"/>
<path d="M737.22 127.536L712.212 128.006L699.542 128.195C695.31 128.274 691.058 128.257 686.814 128.288L686.065 128.293L686.062 127.536L685.971 106.237L685.968 105.39L686.814 105.394L712.016 105.5C720.418 105.508 728.817 105.689 737.219 105.776L737.682 105.781L737.679 106.237C737.647 109.843 737.534 113.432 737.458 116.985L737.22 127.536ZM737.22 127.536L736.981 116.787C736.905 113.242 736.792 109.73 736.76 106.237L737.22 106.697C728.819 106.783 720.419 106.965 712.018 106.973L686.816 107.08L687.657 106.238L687.566 127.537L686.814 126.785C690.972 126.816 695.121 126.799 699.29 126.878L711.822 127.067L737.22 127.536Z" fill="#EBEBEB"/>
<path d="M608.127 376.715L583.118 377.185L570.448 377.374C566.216 377.453 561.964 377.438 557.72 377.467L556.972 377.472L556.968 376.715L556.877 355.416L556.874 354.569L557.72 354.573L582.923 354.679C591.324 354.687 599.724 354.869 608.125 354.955L608.589 354.96L608.585 355.416C608.553 359.022 608.44 362.612 608.364 366.164L608.127 376.715ZM608.127 376.715L607.887 365.967C607.811 362.419 607.699 358.909 607.666 355.416L608.127 355.876C599.725 355.962 591.324 356.144 582.924 356.152L557.722 356.259L558.563 355.417L558.472 376.717L557.72 375.966C561.878 375.995 566.027 375.98 570.197 376.059L582.729 376.248L608.127 376.715Z" fill="#EBEBEB"/>
<path d="M580.008 403.573L554.999 404.043L542.329 404.232C538.097 404.311 533.845 404.294 529.601 404.325L528.853 404.33L528.849 403.573L528.758 382.274L528.755 381.427L529.601 381.431L554.804 381.537C563.205 381.545 571.605 381.727 580.006 381.813L580.47 381.818L580.466 382.274C580.434 385.88 580.321 389.469 580.245 393.022L580.008 403.573ZM580.008 403.573L579.768 392.825C579.692 389.279 579.579 385.767 579.547 382.274L580.008 382.734C571.606 382.82 563.207 383.002 554.805 383.01L529.603 383.117L530.444 382.275L530.353 403.575L529.601 402.823C533.759 402.853 537.908 402.836 542.078 402.915L554.61 403.104L580.008 403.573Z" fill="#EBEBEB"/>
<path d="M552.001 376.715L526.993 377.185L514.323 377.374C510.091 377.453 505.839 377.438 501.595 377.467L500.847 377.472L500.843 376.715L500.752 355.416L500.749 354.569L501.595 354.573L526.797 354.679C535.199 354.687 543.598 354.869 552 354.955L552.463 354.96L552.46 355.416C552.428 359.022 552.315 362.612 552.239 366.164L552.001 376.715ZM552.001 376.715L551.762 365.967C551.686 362.419 551.573 358.909 551.541 355.416L552.001 355.876C543.6 355.962 535.199 356.144 526.799 356.152L501.597 356.259L502.438 355.417L502.347 376.717L501.595 375.966C505.753 375.995 509.902 375.98 514.072 376.059L526.604 376.248L552.001 376.715Z" fill="#EBEBEB"/>
<path d="M765.338 561.564L740.329 562.035L727.659 562.224C723.427 562.303 719.175 562.288 714.931 562.316L714.183 562.321L714.179 561.564L714.088 540.265L714.085 539.419L714.931 539.422L740.134 539.528C748.535 539.537 756.936 539.717 765.336 539.805L765.8 539.81L765.796 540.265C765.764 543.872 765.651 547.461 765.575 551.013L765.338 561.564ZM765.338 561.564L765.098 550.816C765.022 547.269 764.91 543.759 764.877 540.265L765.338 540.725C756.936 540.811 748.537 540.994 740.135 541.002L714.933 541.108L715.774 540.267L715.683 561.566L714.931 560.814C719.089 560.845 723.238 560.828 727.408 560.907L739.94 561.096L765.338 561.564Z" fill="#EBEBEB"/>
<path d="M337.075 164.016L312.067 164.486L299.397 164.675C295.165 164.754 290.913 164.737 286.669 164.768L285.92 164.773L285.917 164.016L285.826 142.716L285.823 141.87L286.669 141.873L311.871 141.98C320.273 141.988 328.672 142.169 337.074 142.256L337.537 142.261L337.534 142.716C337.502 146.323 337.389 149.912 337.313 153.465L337.075 164.016ZM337.075 164.016L336.836 153.267C336.76 149.722 336.647 146.21 336.615 142.716L337.075 143.177C328.674 143.263 320.274 143.445 311.873 143.453L286.671 143.559L287.512 142.718L287.421 164.017L286.669 163.265C290.827 163.296 294.976 163.279 299.145 163.358L311.677 163.547L337.075 164.016Z" fill="#EBEBEB"/>
<path d="M713.557 305.117L723.483 289.115L718.582 286.081C717.14 285.187 716.359 283.558 716.504 281.869C716.584 280.935 716.614 279.996 716.594 279.053C716.557 277.362 717.44 275.789 718.931 274.99L724.011 272.265L715.108 255.667L710.03 258.391C708.54 259.191 706.741 259.056 705.353 258.09C704.579 257.552 703.78 257.056 702.959 256.606C701.472 255.792 700.547 254.239 700.6 252.546L700.783 246.783L681.962 246.198L681.788 251.981C681.737 253.677 680.697 255.153 679.163 255.878C678.747 256.075 678.333 256.282 677.925 256.501C677.516 256.721 677.114 256.95 676.722 257.188C675.277 258.061 673.481 258.112 672.046 257.223L667.11 254.165L657.184 270.166L662.094 273.213C663.534 274.108 664.314 275.739 664.168 277.428C664.087 278.357 664.056 279.294 664.075 280.232C664.11 281.92 663.227 283.493 661.738 284.29L656.657 287.015L665.559 303.613L670.64 300.889C672.129 300.09 673.926 300.224 675.314 301.187C676.084 301.722 676.882 302.214 677.701 302.661C679.19 303.473 680.117 305.026 680.065 306.721L679.888 312.497L698.709 313.082L698.889 307.304C698.941 305.615 699.978 304.144 701.506 303.421C701.924 303.224 702.34 303.013 702.753 302.792C703.161 302.573 703.564 302.344 703.959 302.106C705.412 301.229 707.215 301.179 708.658 302.074L713.557 305.117ZM697.623 293.234C690.117 297.26 680.776 294.44 676.75 286.934C672.724 279.428 675.536 270.074 683.044 266.048C690.55 262.021 699.911 264.847 703.937 272.353C707.962 279.861 705.129 289.21 697.623 293.234Z" fill="#EBEBEB"/>
<path d="M171.18 486.428L181.105 470.426L176.204 467.39C174.762 466.496 173.982 464.867 174.127 463.178C174.208 462.244 174.236 461.305 174.216 460.362C174.179 458.671 175.062 457.098 176.553 456.299L181.633 453.575L172.731 436.976L167.652 439.7C166.162 440.5 164.363 440.365 162.976 439.399C162.202 438.861 161.402 438.365 160.581 437.915C159.094 437.101 158.169 435.548 158.223 433.855L158.405 428.092L139.584 427.507L139.41 433.29C139.36 434.986 138.319 436.462 136.785 437.187C136.369 437.382 135.956 437.591 135.548 437.81C135.138 438.03 134.737 438.259 134.344 438.497C132.899 439.37 131.103 439.421 129.669 438.532L124.732 435.474L114.806 451.475L119.716 454.522C121.156 455.417 121.937 457.048 121.79 458.737C121.709 459.668 121.679 460.603 121.697 461.541C121.733 463.229 120.849 464.802 119.36 465.599L114.279 468.324L123.181 484.922L128.262 482.198C129.751 481.399 131.548 481.534 132.936 482.496C133.707 483.031 134.504 483.523 135.323 483.97C136.812 484.782 137.739 486.335 137.687 488.03L137.51 493.806L156.331 494.391L156.511 488.613C156.564 486.924 157.601 485.453 159.128 484.732C159.546 484.535 159.963 484.324 160.376 484.103C160.785 483.884 161.187 483.654 161.581 483.417C163.035 482.54 164.837 482.489 166.28 483.385L171.18 486.428ZM155.244 474.545C147.737 478.571 138.397 475.751 134.371 468.244C130.345 460.738 133.157 451.384 140.665 447.358C148.171 443.332 157.531 446.158 161.558 453.664C165.584 461.172 162.75 470.519 155.244 474.545Z" fill="#EBEBEB"/>
<path d="M363.953 179.96L357.361 168.534L353.864 170.554C352.836 171.149 351.571 171.092 350.577 170.443C350.027 170.084 349.457 169.755 348.869 169.455C347.813 168.919 347.134 167.851 347.134 166.668V162.632H333.939V166.67C333.939 167.853 333.26 168.92 332.204 169.457C331.616 169.755 331.046 170.085 330.496 170.445C329.502 171.092 328.237 171.151 327.209 170.556L323.712 168.536L317.12 179.962L320.632 181.984C321.662 182.577 322.228 183.707 322.168 184.894C322.151 185.216 322.142 185.539 322.142 185.865C322.142 186.19 322.151 186.514 322.168 186.836C322.228 188.018 321.665 189.142 320.642 189.734L317.12 191.769L323.712 203.195L327.219 201.174C328.247 200.58 329.514 200.639 330.508 201.288C331.056 201.646 331.623 201.974 332.209 202.273C333.263 202.811 333.941 203.876 333.941 205.06V209.099H347.136V205.06C347.136 203.876 347.813 202.811 348.867 202.273C349.452 201.974 350.02 201.646 350.567 201.288C351.561 200.639 352.828 200.58 353.856 201.174L357.363 203.195L363.955 191.769L360.448 189.746C359.422 189.154 358.858 188.028 358.917 186.844C358.934 186.521 358.941 186.195 358.941 185.866C358.941 185.541 358.933 185.217 358.917 184.895C358.857 183.708 359.423 182.577 360.453 181.984L363.953 179.96ZM351.342 185.865C351.342 191.831 346.508 196.665 340.542 196.665C334.575 196.665 329.731 191.831 329.731 185.865C329.731 179.898 334.575 175.054 340.542 175.054C346.508 175.054 351.342 179.898 351.342 185.865Z" fill="#EBEBEB"/>
<path d="M149.776 512.274C127.741 533.845 124.044 567.216 128.687 596.446C128.807 597.109 129.834 596.928 129.834 596.306C129.834 589.651 129.633 583.058 129.653 576.484C129.773 576.182 129.874 575.9 129.996 575.599C135.745 571.417 141.032 566.693 144.31 560.219C147.989 552.983 149.435 544.819 152.251 537.261C152.512 536.537 151.74 536.75 151.236 537.122C137.834 547.006 133.562 557.644 129.716 571.859C129.896 564.481 130.459 557.103 132.048 549.725C134.942 536.236 140.671 522.867 150.363 512.856C150.722 512.475 150.159 511.891 149.776 512.274Z" fill="#263238"/>
<path d="M153.917 514.788C157.707 514.916 160.084 520.974 163.038 522.743C164.601 523.683 166.123 523.626 167.221 522.085C170.148 518 166.132 512.959 162.355 510.14C165.056 511.251 167.297 513.201 170.208 513.754C171.972 514.078 173.343 513.424 173.754 511.632C175.037 506.061 168.05 503.583 163.257 503.466C165.58 501.851 172.242 497.459 168.703 495.299C165.117 493.131 157.3 499.412 154.751 501.479C151.005 504.519 146.535 509.062 146.367 513.817C146.148 519.369 151 515.953 153.917 514.788Z" fill="#FF6B00"/>
<path opacity="0.1" d="M153.917 514.788C157.707 514.916 160.084 520.974 163.038 522.743C164.601 523.683 166.123 523.626 167.221 522.085C170.148 518 166.132 512.959 162.355 510.14C165.056 511.251 167.297 513.201 170.208 513.754C171.972 514.078 173.343 513.424 173.754 511.632C175.037 506.061 168.05 503.583 163.257 503.466C165.58 501.851 172.242 497.459 168.703 495.299C165.117 493.131 157.3 499.412 154.751 501.479C151.005 504.519 146.535 509.062 146.367 513.817C146.148 519.369 151 515.953 153.917 514.788Z" fill="black"/>
<path d="M152.821 515.724C157.668 513.52 166.976 516.692 167.769 514.857C169.374 511.124 161.934 508.562 157.918 508.066C161.617 507.065 168.703 505.468 168.485 501.9C168.219 497.545 157.616 501.29 152.249 505.406C145.488 510.59 145.532 515.592 146.65 516.594C148.183 517.97 152.02 516.088 152.821 515.724Z" fill="#FF6B00"/>
<path d="M99.5971 510.138C122.434 530.855 127.401 564.061 123.872 593.448C123.778 594.116 122.746 593.974 122.722 593.352C122.469 586.703 122.419 580.105 122.149 573.538C122.017 573.242 121.906 572.965 121.773 572.667C115.869 568.706 110.406 564.188 106.886 557.843C102.934 550.752 101.177 542.651 98.078 535.204C97.7897 534.49 98.5686 534.673 99.0879 535.027C112.856 544.394 117.531 554.862 121.915 568.919C121.453 561.552 120.61 554.202 118.743 546.889C115.338 533.519 109.104 520.379 99.0407 510.743C98.6613 510.376 99.2009 509.77 99.5971 510.138Z" fill="#263238"/>
<path d="M95.5557 512.809C91.7723 513.08 89.6294 519.225 86.7447 521.104C85.2189 522.104 83.6964 522.104 82.5398 520.606C79.4595 516.634 83.28 511.445 86.947 508.484C84.2899 509.696 82.1251 511.731 79.2369 512.395C77.4869 512.785 76.0925 512.185 75.612 510.409C74.1182 504.891 81.0056 502.15 85.7904 501.851C83.4064 500.325 76.5832 496.19 80.0378 493.897C83.5379 491.594 91.5886 497.571 94.2137 499.541C98.0729 502.436 102.711 506.806 103.062 511.551C103.492 517.089 98.5147 513.861 95.5557 512.809Z" fill="#FF6B00"/>
<path opacity="0.1" d="M95.5557 512.809C91.7723 513.08 89.6294 519.225 86.7447 521.104C85.2189 522.104 83.6964 522.104 82.5398 520.606C79.4595 516.634 83.28 511.445 86.947 508.484C84.2899 509.696 82.1251 511.731 79.2369 512.395C77.4869 512.785 76.0925 512.185 75.612 510.409C74.1182 504.891 81.0056 502.15 85.7904 501.851C83.4064 500.325 76.5832 496.19 80.0378 493.897C83.5379 491.594 91.5886 497.571 94.2137 499.541C98.0729 502.436 102.711 506.806 103.062 511.551C103.492 517.089 98.5147 513.861 95.5557 512.809Z" fill="black"/>
<path d="M96.687 513.701C91.7606 511.682 82.5769 515.206 81.717 513.404C79.972 509.733 87.3078 506.892 91.302 506.243C87.5675 505.384 80.4256 504.058 80.5082 500.486C80.6077 496.124 91.3458 499.462 96.8658 503.37C103.819 508.294 103.966 513.294 102.886 514.338C101.406 515.769 97.4997 514.034 96.687 513.701Z" fill="#FF6B00"/>
<path d="M122.952 564.854C124.638 575.772 126.728 587.062 130.043 597.611C130.36 598.572 131.786 598.326 131.64 597.289C130.139 587.195 127.404 577.286 125.905 567.192C124.381 556.978 123.567 546.623 124.152 536.293C125.113 519.283 129.733 501.189 140.833 487.878C141.078 487.562 140.56 487.116 140.309 487.409C118.086 513.319 121.621 545.089 121.642 547.936C118.495 537.208 115.253 524.914 103.353 513.991C102.841 513.518 102.44 513.743 102.526 514.544C104.653 534.44 110.185 544.827 121.721 555.464C122.044 558.617 122.451 561.755 122.952 564.854Z" fill="#263238"/>
<path d="M141.031 490.857C145.028 489.082 150.543 494.172 154.498 494.519C156.592 494.708 158.143 493.882 158.508 491.732C159.489 486.018 152.784 482.811 147.446 481.786C150.808 481.579 154.114 482.476 157.413 481.584C159.406 481.031 160.499 479.664 160.025 477.596C158.551 471.169 150.056 472.115 145.023 474.408C146.621 471.562 151.32 463.652 146.562 463.193C141.75 462.748 136.802 473.198 135.197 476.627C132.84 481.668 130.49 488.63 132.708 493.649C135.276 499.52 138.591 493.533 141.031 490.857Z" fill="#FF6B00"/>
<path opacity="0.1" d="M141.031 490.857C145.028 489.082 150.543 494.172 154.498 494.519C156.592 494.708 158.143 493.882 158.508 491.732C159.489 486.018 152.784 482.811 147.446 481.786C150.808 481.579 154.114 482.476 157.413 481.584C159.406 481.031 160.499 479.664 160.025 477.596C158.551 471.169 150.056 472.115 145.023 474.408C146.621 471.562 151.32 463.652 146.562 463.193C141.75 462.748 136.802 473.198 135.197 476.627C132.84 481.668 130.49 488.63 132.708 493.649C135.276 499.52 138.591 493.533 141.031 490.857Z" fill="black"/>
<path d="M140.363 492.379C144.283 487.654 155.539 486.258 155.436 483.956C155.222 479.276 146.213 480.363 141.796 481.869C145.129 478.967 151.678 473.744 149.656 470.153C147.188 465.768 138.072 474.992 134.575 481.963C130.169 490.746 132.732 495.913 134.398 496.39C136.682 497.043 139.717 493.16 140.363 492.379Z" fill="#FF6B00"/>
<path d="M108.331 570.842L98.5298 645.728H158.17C156.941 639.092 145.841 570.756 145.841 570.756L108.331 570.842Z" fill="#FF6B00"/>
<path d="M73.1286 645.979L160.221 645.569L247.314 645.421L421.5 645.138L595.686 645.419L682.778 645.568L769.871 645.979L682.778 646.392L595.686 646.541L421.5 646.82L247.314 646.539L160.221 646.389L73.1286 645.979Z" fill="#263238"/>
<path d="M421.5 792.614C560.295 792.614 672.81 776.706 672.81 757.082C672.81 737.458 560.295 721.549 421.5 721.549C282.705 721.549 170.19 737.458 170.19 757.082C170.19 776.706 282.705 792.614 421.5 792.614Z" fill="#EBEBEB"/>
<path d="M265.668 383.855L255.2 342.666L172.522 363.678L161.595 320.685L227.666 170.105L260.436 161.777L292.298 287.146L318.755 280.422L329.758 323.715L303.301 330.439L313.77 371.628L265.668 383.855ZM209.022 308.312L249.911 297.921L236.386 244.706L209.022 308.312Z" fill="#263238"/>
<path d="M502.463 246.355C502.463 260.005 500.393 272.567 496.259 284.045C492.12 295.524 486.433 305.449 479.195 313.825C471.954 322.201 463.424 328.716 453.605 333.368C443.779 338.021 433.076 340.348 421.497 340.348C409.912 340.348 399.162 338.021 389.235 333.368C379.308 328.714 370.724 322.2 363.488 313.825C356.247 305.449 350.614 295.524 346.583 284.045C342.55 272.567 340.533 260.005 340.533 246.355C340.533 232.707 342.55 220.143 346.583 208.666C350.615 197.188 356.247 187.262 363.488 178.886C370.724 170.51 379.308 163.948 389.235 159.189C399.162 154.434 409.912 152.053 421.497 152.053C433.076 152.053 443.777 154.434 453.605 159.189C463.424 163.948 471.954 170.51 479.195 178.886C486.433 187.262 492.12 197.188 496.259 208.666C500.393 220.143 502.463 232.707 502.463 246.355ZM452.519 246.355C452.519 231.882 449.621 220.143 443.833 211.146C438.04 202.151 430.598 197.653 421.498 197.653C411.984 197.653 404.384 202.151 398.699 211.146C393.008 220.143 390.167 231.882 390.167 246.355C390.167 260.832 393.008 272.52 398.699 281.408C404.384 290.302 411.984 294.748 421.498 294.748C430.598 294.748 438.04 290.304 443.833 281.408C449.622 272.52 452.519 260.832 452.519 246.355Z" fill="#263238"/>
<path d="M591.521 375.917L598.318 333.966L514.11 320.323L521.205 276.534L641.767 164.71L675.145 170.117L654.458 297.808L681.405 302.173L674.262 346.269L647.314 341.904L640.518 383.855L591.521 375.917ZM569.635 284.067L611.28 290.815L620.06 236.615L569.635 284.067Z" fill="#263238"/>
<path d="M351.826 122.169C348.284 122.169 345.072 121.476 342.189 120.092C339.304 118.708 336.831 116.868 334.765 114.575C332.698 112.284 331.098 109.661 329.964 106.71C328.829 103.76 328.261 100.74 328.261 97.6513C328.261 94.4277 328.861 91.3406 330.065 88.3884C331.267 85.4379 332.926 82.8263 335.037 80.5553C337.148 78.2843 339.656 76.4802 342.563 75.1399C345.468 73.8012 348.624 73.1318 352.03 73.1318C355.527 73.1318 358.715 73.8467 361.6 75.2764C364.483 76.7062 366.946 78.5793 368.99 80.8959C371.033 83.2124 372.621 85.846 373.758 88.7965C374.892 91.7486 375.46 94.7447 375.46 97.7879C375.46 101.013 374.869 104.087 373.69 107.017C372.508 109.946 370.874 112.534 368.785 114.781C366.697 117.029 364.2 118.822 361.295 120.161C358.386 121.5 355.232 122.169 351.826 122.169ZM337.795 97.6496C337.795 99.7386 338.112 101.76 338.748 103.711C339.383 105.663 340.302 107.39 341.506 108.887C342.708 110.386 344.185 111.588 345.933 112.497C347.68 113.405 349.668 113.859 351.893 113.859C354.163 113.859 356.173 113.394 357.921 112.463C359.669 111.534 361.145 110.295 362.348 108.75C363.55 107.208 364.459 105.471 365.073 103.541C365.687 101.61 365.992 99.6476 365.992 97.648C365.992 95.5607 365.661 93.5392 365.004 91.5868C364.345 89.6344 363.414 87.9096 362.212 86.4108C361.008 84.9119 359.533 83.7216 357.786 82.8348C356.038 81.9496 354.073 81.5062 351.895 81.5062C349.624 81.5062 347.604 81.9715 345.832 82.9022C344.062 83.8329 342.587 85.0586 341.407 86.5794C340.225 88.1018 339.329 89.8266 338.716 91.7554C338.102 93.6892 337.795 95.6517 337.795 97.6496Z" fill="#263238"/>
<path d="M398.277 122.51C395.37 122.51 392.76 122.011 390.446 121.011C388.129 120.013 386.165 118.661 384.553 116.959C382.941 115.257 381.704 113.292 380.84 111.067C379.977 108.843 379.546 106.503 379.546 104.051C379.546 101.554 379.977 99.194 380.84 96.9685C381.702 94.7447 382.941 92.7805 384.553 91.0776C386.165 89.3748 388.129 88.0243 390.446 87.0245C392.76 86.0264 395.37 85.5256 398.277 85.5256C401.182 85.5256 403.782 86.0264 406.076 87.0245C408.368 88.0243 410.322 89.3748 411.934 91.0776C413.545 92.7805 414.783 94.7447 415.646 96.9685C416.508 99.194 416.939 101.554 416.939 104.051C416.939 106.503 416.508 108.843 415.646 111.067C414.783 113.292 413.557 115.255 411.969 116.959C410.379 118.662 408.427 120.014 406.112 121.011C403.794 122.009 401.182 122.51 398.277 122.51ZM388.945 104.051C388.945 105.641 389.184 107.083 389.66 108.376C390.137 109.671 390.795 110.794 391.634 111.748C392.474 112.701 393.462 113.439 394.596 113.962C395.731 114.484 396.957 114.746 398.275 114.746C399.592 114.746 400.818 114.484 401.953 113.962C403.087 113.441 404.075 112.702 404.915 111.748C405.754 110.794 406.414 109.659 406.889 108.342C407.366 107.026 407.604 105.574 407.604 103.984C407.604 102.441 407.365 101.012 406.889 99.6931C406.412 98.3763 405.754 97.2416 404.915 96.2874C404.073 95.3331 403.086 94.5963 401.953 94.0737C400.818 93.551 399.592 93.2897 398.275 93.2897C396.957 93.2897 395.731 93.5628 394.596 94.1074C393.462 94.652 392.474 95.4022 391.634 96.3548C390.793 97.3091 390.135 98.4438 389.66 99.7605C389.183 101.079 388.945 102.509 388.945 104.051Z" fill="#263238"/>
<path d="M444.452 122.51C441.636 122.51 439.184 121.886 437.097 120.637C435.008 119.389 433.373 117.698 432.193 115.563V136.337H423.066V86.1393H431.034V92.2679C432.351 90.1807 434.054 88.5335 436.143 87.3297C438.23 86.1275 440.638 85.5256 443.361 85.5256C445.768 85.5256 447.992 86.0146 450.036 86.9908C452.079 87.967 453.839 89.2837 455.314 90.9411C456.79 92.5984 457.948 94.5508 458.789 96.7982C459.629 99.0457 460.049 101.42 460.049 103.917C460.049 106.505 459.663 108.934 458.89 111.203C458.118 113.474 457.039 115.45 455.655 117.13C454.269 118.811 452.624 120.126 450.717 121.08C448.812 122.033 446.723 122.51 444.452 122.51ZM441.388 114.746C442.75 114.746 444.01 114.451 445.168 113.861C446.325 113.27 447.313 112.476 448.13 111.477C448.946 110.478 449.582 109.32 450.037 108.002C450.492 106.685 450.718 105.324 450.718 103.917C450.718 102.418 450.469 101.022 449.97 99.7285C449.469 98.4337 448.778 97.3108 447.893 96.3565C447.007 95.4039 445.962 94.6536 444.76 94.1091C443.556 93.5645 442.251 93.2913 440.845 93.2913C439.982 93.2913 439.097 93.4397 438.19 93.7348C437.281 94.0298 436.441 94.4496 435.669 94.9959C434.897 95.5405 434.206 96.1778 433.592 96.9028C432.98 97.6294 432.513 98.4252 432.196 99.2868V107.665C433.014 109.708 434.263 111.399 435.942 112.738C437.618 114.076 439.436 114.746 441.388 114.746Z" fill="#263238"/>
<path d="M479.733 122.51C476.737 122.51 473.806 122.033 470.947 121.08C468.086 120.127 465.634 118.763 463.591 116.993L466.997 111.273C469.177 112.817 471.299 113.985 473.365 114.779C475.432 115.575 477.485 115.971 479.529 115.971C481.343 115.971 482.774 115.631 483.82 114.95C484.863 114.269 485.386 113.292 485.386 112.021C485.386 110.75 484.774 109.819 483.546 109.229C482.321 108.639 480.323 107.958 477.553 107.186C475.238 106.55 473.262 105.936 471.626 105.346C469.991 104.756 468.674 104.087 467.676 103.337C466.676 102.588 465.951 101.725 465.496 100.749C465.041 99.7724 464.817 98.6023 464.817 97.24C464.817 95.4242 465.167 93.7904 465.872 92.3354C466.575 90.8838 467.563 89.6446 468.834 88.6228C470.106 87.6011 471.594 86.8188 473.296 86.2743C474.998 85.7297 476.846 85.4565 478.846 85.4565C481.525 85.4565 484.032 85.8426 486.372 86.6148C488.711 87.387 490.855 88.6347 492.808 90.3611L489.129 95.8777C487.313 94.5154 485.554 93.5173 483.85 92.8817C482.147 92.2461 480.456 91.9291 478.777 91.9291C477.232 91.9291 475.938 92.2477 474.894 92.8817C473.849 93.5173 473.326 94.539 473.326 95.9468C473.326 96.5825 473.451 97.1051 473.702 97.5131C473.95 97.9211 474.349 98.2853 474.894 98.6023C475.439 98.9209 476.153 99.2278 477.039 99.5212C477.924 99.8179 479.025 100.123 480.341 100.44C482.793 101.076 484.892 101.711 486.64 102.347C488.389 102.983 489.818 103.709 490.931 104.525C492.044 105.343 492.862 106.285 493.384 107.351C493.905 108.418 494.167 109.701 494.167 111.2C494.167 114.697 492.873 117.455 490.284 119.475C487.702 121.5 484.182 122.51 479.733 122.51Z" fill="#263238"/>
<path d="M501.867 103.643V72.9937H510.993V103.643H501.867ZM501.867 121.829V111.544H510.993V121.829H501.867Z" fill="#263238"/>
<path d="M456.233 529.143H396.36V534.047H456.233V529.143Z" fill="#37474F"/>
<path d="M456.233 535.533H396.36V540.437H456.233V535.533Z" fill="#37474F"/>
<path d="M456.233 541.921H396.36V546.826H456.233V541.921Z" fill="#37474F"/>
<path d="M456.233 548.309H396.36V553.214H456.233V548.309Z" fill="#37474F"/>
<path d="M456.233 554.698H396.36V559.602H456.233V554.698Z" fill="#37474F"/>
<path d="M482.152 682.146H368.32V687.05H482.152V682.146Z" fill="#37474F"/>
<path d="M482.152 688.534H368.32V693.438H482.152V688.534Z" fill="#37474F"/>
<path d="M482.152 694.922H368.32V699.827H482.152V694.922Z" fill="#37474F"/>
<path d="M482.152 701.31H368.32V706.215H482.152V701.31Z" fill="#37474F"/>
<path d="M482.152 707.7H368.32V712.605H482.152V707.7Z" fill="#37474F"/>
<path d="M318.374 488.6C318.43 487.937 293.46 479.573 293.46 479.573L294.935 393.779L328.047 386.674L318.374 488.6Z" fill="#FF6B00"/>
<path opacity="0.2" d="M318.374 488.6C318.43 487.937 293.46 479.573 293.46 479.573L294.935 393.779L328.047 386.674L318.374 488.6Z" fill="black"/>
<path d="M547.089 522.276C547.264 521.633 573.589 522.373 573.589 522.373L601.728 441.312L573.085 423.247L547.089 522.276Z" fill="#FF6B00"/>
<path opacity="0.2" d="M547.089 522.276C547.264 521.633 573.589 522.373 573.589 522.373L601.728 441.312L573.085 423.247L547.089 522.276Z" fill="black"/>
<path d="M313.567 520.192C313.567 520.192 322.825 381.437 330.945 335.792C330.945 335.792 498.562 348.469 589.048 383.054C589.048 383.054 542.398 545.126 539.984 553.168C539.984 553.168 421.95 529.917 313.567 520.192Z" fill="#FF6B00"/>
<path opacity="0.1" d="M463.181 354.321C460.457 371.028 457.698 387.729 454.844 404.414L446.205 454.453L445.74 453.746L501.902 467.088L529.954 473.886L557.973 480.819L529.805 474.515L501.669 468.077L445.456 454.947L444.888 454.814L444.991 454.239L453.935 404.254C456.941 387.596 460.045 370.955 463.181 354.321Z" fill="black"/>
<path opacity="0.1" d="M457.019 363.844C457.049 365.375 455.829 366.948 454.075 367.101C453.225 367.182 452.302 366.911 451.61 366.309C450.919 365.707 450.506 364.78 450.501 363.844C450.506 362.908 450.916 361.979 451.609 361.377C452.298 360.77 453.225 360.504 454.075 360.583C455.83 360.737 457.049 362.313 457.019 363.844ZM457.019 363.844C457.012 363.072 456.67 362.313 456.095 361.826C455.518 361.339 454.763 361.14 454.077 361.219C452.662 361.382 451.745 362.652 451.765 363.844C451.743 365.036 452.659 366.312 454.077 366.472C454.763 366.55 455.52 366.351 456.097 365.864C456.67 365.375 457.012 364.616 457.019 363.844Z" fill="black"/>
<path opacity="0.1" d="M454.075 384.489C454.106 386.02 452.885 387.595 451.131 387.746C450.282 387.827 449.358 387.556 448.667 386.954C447.975 386.352 447.562 385.425 447.557 384.489C447.562 383.553 447.972 382.624 448.665 382.022C449.354 381.415 450.282 381.149 451.131 381.228C452.888 381.383 454.107 382.96 454.075 384.489ZM454.075 384.489C454.068 383.717 453.726 382.958 453.151 382.471C452.575 381.984 451.819 381.785 451.133 381.864C449.719 382.027 448.801 383.297 448.822 384.489C448.8 385.681 449.715 386.957 451.133 387.117C451.819 387.195 452.576 386.996 453.153 386.507C453.728 386.022 454.068 385.261 454.075 384.489Z" fill="black"/>
<path opacity="0.1" d="M450.45 406.304C450.481 407.835 449.26 409.41 447.507 409.562C446.657 409.642 445.733 409.373 445.042 408.769C444.35 408.167 443.937 407.24 443.932 406.304C443.937 405.368 444.347 404.439 445.04 403.838C445.73 403.231 446.657 402.964 447.507 403.043C449.263 403.199 450.482 404.773 450.45 406.304ZM450.45 406.304C450.444 405.532 450.101 404.773 449.526 404.286C448.95 403.799 448.194 403.6 447.508 403.679C446.094 403.843 445.176 405.112 445.197 406.304C445.175 407.496 446.09 408.772 447.508 408.933C448.194 409.012 448.951 408.811 449.528 408.324C450.101 407.835 450.444 407.076 450.45 406.304Z" fill="black"/>
<path opacity="0.1" d="M446.825 428.119C446.857 429.65 445.635 431.223 443.882 431.376C443.032 431.456 442.108 431.186 441.417 430.584C440.725 429.982 440.312 429.055 440.307 428.119C440.311 427.183 440.724 426.254 441.415 425.652C442.105 425.045 443.032 424.779 443.882 424.858C445.638 425.012 446.857 426.588 446.825 428.119ZM446.825 428.119C446.819 427.347 446.476 426.588 445.9 426.101C445.323 425.614 444.568 425.415 443.882 425.494C442.467 425.658 441.55 426.927 441.57 428.119C441.548 429.311 442.464 430.587 443.882 430.748C444.568 430.825 445.325 430.626 445.901 430.139C446.476 429.65 446.819 428.891 446.825 428.119Z" fill="black"/>
<path opacity="0.1" d="M459.177 462.91C459.209 464.441 457.987 466.014 456.233 466.167C455.384 466.246 454.46 465.977 453.768 465.375C453.077 464.773 452.664 463.846 452.659 462.91C452.662 461.974 453.074 461.045 453.767 460.443C454.456 459.836 455.384 459.57 456.233 459.649C457.988 459.803 459.207 461.379 459.177 462.91ZM459.177 462.91C459.17 462.138 458.828 461.379 458.251 460.892C457.675 460.404 456.92 460.205 456.233 460.285C454.819 460.448 453.902 461.718 453.922 462.91C453.9 464.102 454.815 465.378 456.233 465.538C456.92 465.618 457.677 465.417 458.253 464.928C458.828 464.441 459.169 463.682 459.177 462.91Z" fill="black"/>
<path opacity="0.1" d="M479.768 467.932C479.8 469.463 478.578 471.038 476.824 471.19C475.975 471.269 475.051 470.999 474.359 470.397C473.668 469.795 473.255 468.868 473.25 467.932C473.255 466.997 473.667 466.068 474.358 465.466C475.047 464.859 475.975 464.592 476.824 464.672C478.581 464.827 479.8 466.401 479.768 467.932ZM479.768 467.932C479.761 467.16 479.419 466.401 478.844 465.914C478.268 465.427 477.512 465.228 476.826 465.307C475.412 465.471 474.494 466.74 474.515 467.932C474.493 469.124 475.408 470.401 476.826 470.561C477.512 470.638 478.269 470.439 478.846 469.95C479.419 469.463 479.761 468.705 479.768 467.932Z" fill="black"/>
<path opacity="0.1" d="M500.361 472.957C500.391 474.488 499.171 476.061 497.417 476.214C496.567 476.293 495.644 476.024 494.952 475.422C494.261 474.82 493.848 473.892 493.843 472.957C493.848 472.021 494.258 471.092 494.951 470.49C495.64 469.883 496.567 469.617 497.417 469.696C499.172 469.849 500.391 471.426 500.361 472.957ZM500.361 472.957C500.354 472.185 500.012 471.426 499.437 470.939C498.86 470.451 498.105 470.252 497.419 470.332C496.004 470.495 495.087 471.765 495.107 472.957C495.085 474.149 496.001 475.425 497.419 475.585C498.105 475.663 498.862 475.464 499.439 474.975C500.012 474.488 500.353 473.727 500.361 472.957Z" fill="black"/>
<path opacity="0.1" d="M520.952 477.979C520.984 479.51 519.762 481.083 518.008 481.237C517.159 481.316 516.235 481.048 515.543 480.444C514.852 479.842 514.439 478.915 514.434 477.979C514.439 477.043 514.849 476.114 515.542 475.513C516.231 474.906 517.159 474.639 518.008 474.718C519.765 474.872 520.982 476.448 520.952 477.979ZM520.952 477.979C520.945 477.207 520.603 476.448 520.028 475.961C519.452 475.474 518.696 475.275 518.01 475.354C516.595 475.518 515.678 476.787 515.699 477.979C515.677 479.171 516.592 480.448 518.01 480.608C518.696 480.685 519.453 480.486 520.03 479.999C520.603 479.51 520.945 478.751 520.952 477.979Z" fill="black"/>
<path opacity="0.1" d="M541.535 483.228C541.449 484.757 540.11 486.232 538.35 486.249C537.497 486.264 536.596 485.924 535.952 485.27C535.308 484.615 534.968 483.661 535.035 482.727C535.111 481.795 535.593 480.901 536.33 480.353C537.065 479.802 538.009 479.606 538.851 479.751C540.591 480.04 541.683 481.705 541.535 483.228ZM541.535 483.228C541.587 482.457 541.304 481.675 540.768 481.144C540.23 480.613 539.491 480.357 538.802 480.383C537.379 480.437 536.365 481.633 536.295 482.823C536.18 484.01 536.996 485.352 538.397 485.622C539.075 485.753 539.845 485.613 540.457 485.17C541.069 484.728 541.469 483.998 541.535 483.228Z" fill="black"/>
<path opacity="0.1" d="M443.201 449.934C443.231 451.465 442.01 453.04 440.257 453.192C439.407 453.273 438.483 453.003 437.792 452.399C437.101 451.797 436.687 450.87 436.682 449.934C436.687 448.998 437.099 448.07 437.79 447.468C438.48 446.861 439.407 446.593 440.257 446.674C442.014 446.827 443.233 448.403 443.201 449.934ZM443.201 449.934C443.194 449.162 442.851 448.403 442.275 447.916C441.698 447.429 440.943 447.23 440.257 447.309C438.842 447.473 437.925 448.742 437.945 449.934C437.923 451.126 438.839 452.403 440.257 452.563C440.943 452.64 441.7 452.441 442.275 451.952C442.853 451.465 443.194 450.706 443.201 449.934Z" fill="black"/>
<path opacity="0.2" d="M376.71 498.28C402.997 498.28 424.307 476.97 424.307 450.683C424.307 424.396 402.997 403.085 376.71 403.085C350.422 403.085 329.112 424.396 329.112 450.683C329.112 476.97 350.422 498.28 376.71 498.28Z" fill="black"/>
<path d="M376.71 488.856C397.792 488.856 414.882 471.765 414.882 450.683C414.882 429.601 397.792 412.51 376.71 412.51C355.628 412.51 338.537 429.601 338.537 450.683C338.537 471.765 355.628 488.856 376.71 488.856Z" fill="#263238"/>
<path d="M374.399 436.654L365.475 435.208L364.029 444.132L372.953 445.577L374.399 436.654Z" fill="#FF6B00"/>
<path d="M366.919 426.285L357.996 424.839L356.55 433.763L365.474 435.209L366.919 426.285Z" fill="#FF6B00"/>
<path d="M402.614 432.067L393.691 430.621L392.245 439.545L401.169 440.991L402.614 432.067Z" fill="#FF6B00"/>
<path d="M361.17 461.777L352.246 460.332L350.8 469.255L359.724 470.701L361.17 461.777Z" fill="#FF6B00"/>
<path d="M396.865 467.56L387.941 466.114L386.495 475.038L395.419 476.483L396.865 467.56Z" fill="#FF6B00"/>
<path d="M371.539 454.3L362.616 452.855L361.17 461.778L370.094 463.224L371.539 454.3Z" fill="#FF6B00"/>
<path d="M381.893 446.922L372.969 445.477L371.524 454.401L380.447 455.846L381.893 446.922Z" fill="#FF6B00"/>
<path d="M392.246 439.544L383.322 438.099L381.877 447.023L390.801 448.468L392.246 439.544Z" fill="#FF6B00"/>
<path d="M389.397 457.186L380.473 455.74L379.027 464.664L387.951 466.109L389.397 457.186Z" fill="#FF6B00"/>
<path d="M504.438 518.227C530.725 518.227 552.035 496.917 552.035 470.63C552.035 444.343 530.725 423.032 504.438 423.032C478.15 423.032 456.84 444.343 456.84 470.63C456.84 496.917 478.15 518.227 504.438 518.227Z" fill="#FF6B00"/>
<path opacity="0.2" d="M504.438 518.227C530.725 518.227 552.035 496.917 552.035 470.63C552.035 444.343 530.725 423.032 504.438 423.032C478.15 423.032 456.84 444.343 456.84 470.63C456.84 496.917 478.15 518.227 504.438 518.227Z" fill="black"/>
<path opacity="0.2" d="M550.749 481.643C550.53 482.58 550.28 483.486 549.999 484.391L457.221 464.603C457.441 462.947 457.737 461.291 458.127 459.621C464.203 434.052 489.864 418.246 515.449 424.321C541.019 430.397 556.825 456.058 550.749 481.643Z" fill="black"/>
<path d="M504.438 508.803C525.52 508.803 542.61 491.712 542.61 470.63C542.61 449.548 525.52 432.457 504.438 432.457C483.356 432.457 466.265 449.548 466.265 470.63C466.265 491.712 483.356 508.803 504.438 508.803Z" fill="#263238"/>
<path d="M514.046 449.775L505.25 447.685L494.847 491.463L503.642 493.553L514.046 449.775Z" fill="#FF6B00"/>
<path d="M553.51 480.748L456.058 457.587C462.453 430.682 489.456 414.058 516.361 420.451C543.268 426.848 559.905 453.843 553.51 480.748Z" fill="#FF6B00"/>
<path opacity="0.2" d="M553.51 480.748L456.058 457.587C462.453 430.682 489.456 414.058 516.361 420.451C543.268 426.848 559.905 453.843 553.51 480.748Z" fill="black"/>
<path opacity="0.1" d="M421.62 498.924C421.866 495.119 423.264 491.26 426.024 488.208C427.384 486.671 429.2 485.463 431.2 484.728C433.209 483.99 435.381 483.86 437.439 484.035C439.535 484.28 441.675 485.018 443.421 486.34C445.134 487.689 446.448 489.447 447.22 491.341C448.81 495.114 448.983 499.147 448.213 502.887C447.579 499.149 446.613 495.519 444.858 492.54C443.116 489.537 440.361 487.67 437.079 487.38C433.73 486.964 430.463 487.863 427.831 490.086C425.199 492.304 423.189 495.478 421.62 498.924Z" fill="black"/>
<path d="M326.605 401.841C327 396.756 327.571 391.695 328.053 386.622C328.595 381.557 329.151 376.494 329.766 371.441C330.351 366.383 331.011 361.335 331.658 356.284C332.292 351.233 333.024 346.195 333.702 341.149L333.882 339.802L335.248 339.887C346.23 340.579 357.189 341.466 368.133 342.592C373.604 343.153 379.068 343.789 384.526 344.49C389.974 345.273 395.429 345.994 400.845 346.986L367.939 344.949L335.067 342.823L336.613 341.562C335.866 346.598 335.172 351.641 334.381 356.67C333.602 361.701 332.835 366.734 331.995 371.756C331.186 376.782 330.318 381.801 329.433 386.817C328.49 391.825 327.635 396.846 326.605 401.841Z" fill="white"/>
<path d="M334.521 440.309C335.625 434.196 338.404 428.371 342.137 423.297C343.066 422.021 344.123 420.843 345.139 419.629C346.24 418.492 347.385 417.393 348.515 416.279C349.747 415.277 350.991 414.284 352.256 413.321C353.6 412.47 354.927 411.581 356.292 410.764C357.73 410.072 359.16 409.361 360.612 408.703L365.134 407.139L369.814 406.173C371.385 405.943 372.982 405.895 374.558 405.776C380.904 405.613 387.151 406.967 392.884 409.288C386.782 408.145 380.702 407.511 374.708 408.083C368.73 408.639 362.92 410.426 357.725 413.353C352.49 416.211 347.854 420.153 343.937 424.732C340.038 429.335 336.809 434.548 334.521 440.309Z" fill="white"/>
<path d="M465.82 453.166C467.759 447.264 471.315 441.879 475.712 437.369C476.808 436.234 478.018 435.212 479.193 434.15C480.439 433.177 481.726 432.247 482.999 431.297C484.357 430.475 485.726 429.664 487.112 428.885C488.561 428.227 489.997 427.529 491.464 426.909C492.985 426.423 494.499 425.916 496.026 425.465L500.722 424.54L505.491 424.23C507.08 424.218 508.666 424.391 510.244 424.491C516.553 425.206 522.55 427.409 527.909 430.5C522.023 428.525 516.09 427.057 510.074 426.797C504.075 426.524 498.075 427.492 492.526 429.674C486.947 431.781 481.81 435.045 477.298 439.039C472.797 443.061 468.88 447.776 465.82 453.166Z" fill="white"/>
<path d="M318.892 605.699C306.699 605.699 280.006 602.957 262.829 580.873C240.854 552.619 248.796 498.404 249.144 496.109L258.685 497.557C258.605 498.078 251.023 549.975 270.446 574.948C289.436 599.363 323.879 595.858 324.225 595.816L325.31 605.404C324.934 605.449 322.572 605.699 318.892 605.699Z" fill="#FF6B00"/>
<path opacity="0.4" d="M318.892 605.699C306.699 605.699 280.006 602.957 262.829 580.873C240.854 552.619 248.796 498.404 249.144 496.109L258.685 497.557C258.605 498.078 251.023 549.975 270.446 574.948C289.436 599.363 323.879 595.858 324.225 595.816L325.31 605.404C324.934 605.449 322.572 605.699 318.892 605.699Z" fill="white"/>
<path d="M261.494 504.122C259.754 504.122 257.977 503.977 256.167 503.684C240.073 501.078 232.948 491.447 229.803 483.826C226.652 476.189 225.924 466.95 227.639 456.368L248.049 459.676C246.987 466.231 247.296 472.009 248.918 475.941C250.074 478.746 252.32 482.115 259.474 483.273C262.741 483.803 266.273 483.523 269.972 477.944C272.827 473.638 274.543 467.777 275.143 464.065L295.554 467.371C295.082 470.291 293.081 480.508 287.205 489.37C280.815 499.009 271.82 504.122 261.494 504.122Z" fill="#FF6B00"/>
<path d="M339.055 633.317C339.019 632.877 321.763 630.121 321.763 630.121L313.387 573.8L334.288 565.543L339.055 633.317Z" fill="#FF6B00"/>
<path opacity="0.2" d="M339.055 633.317C339.019 632.877 321.763 630.121 321.763 630.121L313.387 573.8L334.288 565.543L339.055 633.317Z" fill="black"/>
<path d="M509.671 633.422C509.717 632.983 527.03 630.608 527.03 630.608L536.649 574.486L515.935 565.769L509.671 633.422Z" fill="#FF6B00"/>
<path opacity="0.2" d="M509.671 633.422C509.717 632.983 527.03 630.608 527.03 630.608L536.649 574.486L515.935 565.769L509.671 633.422Z" fill="black"/>
<path d="M331.874 552.932C331.874 552.932 471.451 546.964 518.6 554.822C518.6 554.822 504.755 689.881 504.006 692.501C504.006 692.501 365.162 692.127 343.458 692.501C343.458 692.501 331.695 602.693 331.874 552.932Z" fill="#FF6B00"/>
<path opacity="0.2" d="M374.27 589.941C374.27 589.941 450.465 586.932 476.206 590.894C476.206 590.894 468.647 658.998 468.239 660.318C468.239 660.318 392.443 660.13 380.596 660.318C380.592 660.318 375.386 613.707 374.27 589.941Z" fill="black"/>
<path opacity="0.2" d="M384.685 660.29C382.939 660.29 381.557 660.312 380.589 660.324C380.589 660.324 375.39 613.704 374.265 589.938C374.265 589.938 375.998 589.871 379.025 589.77L384.685 660.29Z" fill="black"/>
<path d="M407.159 606.746C402.888 605.4 398.338 607.771 396.992 612.038C395.645 616.314 398.019 620.859 402.29 622.205C406.557 623.55 411.102 621.181 412.448 616.911C413.793 612.645 411.426 608.091 407.159 606.746ZM411.509 616.614C410.327 620.367 406.333 622.448 402.585 621.266C398.837 620.084 396.755 616.091 397.938 612.338C399.12 608.59 403.114 606.508 406.866 607.692C410.608 608.872 412.691 612.866 411.509 616.614ZM407.159 606.746C402.888 605.4 398.338 607.771 396.992 612.038C395.645 616.314 398.019 620.859 402.29 622.205C406.557 623.55 411.102 621.181 412.448 616.911C413.793 612.645 411.426 608.091 407.159 606.746ZM411.509 616.614C410.327 620.367 406.333 622.448 402.585 621.266C398.837 620.084 396.755 616.091 397.938 612.338C399.12 608.59 403.114 606.508 406.866 607.692C410.608 608.872 412.691 612.866 411.509 616.614ZM407.159 606.746C402.888 605.4 398.338 607.771 396.992 612.038C395.645 616.314 398.019 620.859 402.29 622.205C406.557 623.55 411.102 621.181 412.448 616.911C413.793 612.645 411.426 608.091 407.159 606.746ZM411.509 616.614C410.327 620.367 406.333 622.448 402.585 621.266C398.837 620.084 396.755 616.091 397.938 612.338C399.12 608.59 403.114 606.508 406.866 607.692C410.608 608.872 412.691 612.866 411.509 616.614ZM409.86 598.184C400.855 595.348 391.267 600.351 388.429 609.342C385.595 618.339 390.587 627.934 399.589 630.768C408.58 633.6 418.177 628.605 421.011 619.608C423.849 610.617 418.853 601.017 409.86 598.184ZM413.653 617.288C412.101 622.217 406.834 624.961 401.91 623.409C396.987 621.857 394.242 616.59 395.794 611.662C397.346 606.734 402.617 603.994 407.54 605.545C412.46 607.098 415.204 612.365 413.653 617.288ZM412.448 616.912C413.793 612.645 411.426 608.093 407.159 606.748C402.888 605.402 398.338 607.773 396.992 612.04C395.645 616.316 398.019 620.861 402.29 622.206C406.557 623.552 411.102 621.183 412.448 616.912ZM411.509 616.614C410.327 620.367 406.333 622.448 402.585 621.266C398.837 620.084 396.755 616.091 397.938 612.338C399.12 608.59 403.114 606.508 406.866 607.692C410.608 608.872 412.691 612.866 411.509 616.614ZM407.159 606.746C402.888 605.4 398.338 607.771 396.992 612.038C395.645 616.314 398.019 620.859 402.29 622.205C406.557 623.55 411.102 621.181 412.448 616.911C413.793 612.645 411.426 608.091 407.159 606.746ZM411.509 616.614C410.327 620.367 406.333 622.448 402.585 621.266C398.837 620.084 396.755 616.091 397.938 612.338C399.12 608.59 403.114 606.508 406.866 607.692C410.608 608.872 412.691 612.866 411.509 616.614ZM407.159 606.746C402.888 605.4 398.338 607.771 396.992 612.038C395.645 616.314 398.019 620.859 402.29 622.205C406.557 623.55 411.102 621.181 412.448 616.911C413.793 612.645 411.426 608.091 407.159 606.746ZM411.509 616.614C410.327 620.367 406.333 622.448 402.585 621.266C398.837 620.084 396.755 616.091 397.938 612.338C399.12 608.59 403.114 606.508 406.866 607.692C410.608 608.872 412.691 612.866 411.509 616.614Z" fill="#FF6B00"/>
<path d="M402.934 631.078L396.67 629.104L395.618 633.648L401.19 635.403L402.934 631.078Z" fill="#FF6B00"/>
<path d="M391.676 625.211L388.642 619.386L384.686 621.856L387.384 627.037L391.676 625.211Z" fill="#FF6B00"/>
<path d="M387.864 613.1L389.837 606.837L385.295 605.786L383.538 611.357L387.864 613.1Z" fill="#FF6B00"/>
<path d="M393.732 601.843L399.557 598.81L397.087 594.853L391.906 597.552L393.732 601.843Z" fill="#FF6B00"/>
<path d="M405.84 598.031L412.106 600.005L413.156 595.461L407.585 593.706L405.84 598.031Z" fill="#FF6B00"/>
<path d="M417.1 603.898L420.133 609.723L424.09 607.255L421.39 602.074L417.1 603.898Z" fill="#FF6B00"/>
<path d="M420.912 616.009L418.937 622.272L423.481 623.324L425.236 617.752L420.912 616.009Z" fill="#FF6B00"/>
<path d="M415.044 627.266L409.217 630.301L411.687 634.256L416.869 631.559L415.044 627.266Z" fill="#FF6B00"/>
<path d="M434.71 630.584C432.184 628.939 428.804 629.655 427.16 632.177C425.513 634.706 426.231 638.083 428.757 639.729C431.28 641.373 434.656 640.658 436.301 638.132C437.945 635.61 437.234 632.228 434.71 630.584ZM435.747 637.77C434.302 639.99 431.334 640.618 429.117 639.173C426.9 637.729 426.273 634.762 427.718 632.543C429.161 630.326 432.129 629.699 434.347 631.144C436.563 632.587 437.19 635.553 435.747 637.77ZM434.71 630.584C432.184 628.939 428.804 629.655 427.16 632.177C425.513 634.706 426.231 638.083 428.757 639.729C431.28 641.373 434.656 640.658 436.301 638.132C437.945 635.61 437.234 632.228 434.71 630.584ZM435.747 637.77C434.302 639.99 431.334 640.618 429.117 639.173C426.9 637.729 426.273 634.762 427.718 632.543C429.161 630.326 432.129 629.699 434.347 631.144C436.563 632.587 437.19 635.553 435.747 637.77ZM434.71 630.584C432.184 628.939 428.804 629.655 427.16 632.177C425.513 634.706 426.231 638.083 428.757 639.729C431.28 641.373 434.656 640.658 436.301 638.132C437.945 635.61 437.234 632.228 434.71 630.584ZM435.747 637.77C434.302 639.99 431.334 640.618 429.117 639.173C426.9 637.729 426.273 634.762 427.718 632.543C429.161 630.326 432.129 629.699 434.347 631.144C436.563 632.587 437.19 635.553 435.747 637.77ZM438.009 625.521C432.682 622.055 425.56 623.564 422.093 628.883C418.629 634.206 420.131 641.331 425.455 644.795C430.775 648.258 437.901 646.753 441.366 641.432C444.833 636.113 443.329 628.984 438.009 625.521ZM437.015 638.596C435.116 641.511 431.205 642.339 428.293 640.442C425.381 638.545 424.552 634.634 426.45 631.719C428.349 628.804 432.262 627.979 435.173 629.876C438.083 631.771 438.911 635.683 437.015 638.596ZM436.301 638.134C437.945 635.61 437.234 632.23 434.71 630.586C432.184 628.94 428.804 629.657 427.16 632.179C425.513 634.708 426.231 638.085 428.757 639.731C431.28 641.375 434.656 640.66 436.301 638.134ZM435.747 637.77C434.302 639.99 431.334 640.618 429.117 639.173C426.9 637.729 426.273 634.762 427.718 632.543C429.161 630.326 432.129 629.699 434.347 631.144C436.563 632.587 437.19 635.553 435.747 637.77ZM434.71 630.584C432.184 628.939 428.804 629.655 427.16 632.177C425.513 634.706 426.231 638.083 428.757 639.729C431.28 641.373 434.656 640.658 436.301 638.132C437.945 635.61 437.234 632.228 434.71 630.584ZM435.747 637.77C434.302 639.99 431.334 640.618 429.117 639.173C426.9 637.729 426.273 634.762 427.718 632.543C429.161 630.326 432.129 629.699 434.347 631.144C436.563 632.587 437.19 635.553 435.747 637.77ZM434.71 630.584C432.184 628.939 428.804 629.655 427.16 632.177C425.513 634.706 426.231 638.083 428.757 639.729C431.28 641.373 434.656 640.658 436.301 638.132C437.945 635.61 437.234 632.228 434.71 630.584ZM435.747 637.77C434.302 639.99 431.334 640.618 429.117 639.173C426.9 637.729 426.273 634.762 427.718 632.543C429.161 630.326 432.129 629.699 434.347 631.144C436.563 632.587 437.19 635.553 435.747 637.77Z" fill="#DBDBDB"/>
<path d="M427.57 645.6L423.864 643.187L422.362 645.944L425.658 648.09L427.57 645.6Z" fill="#DBDBDB"/>
<path d="M421.33 639.759L420.416 635.433L417.403 636.32L418.217 640.167L421.33 639.759Z" fill="#DBDBDB"/>
<path d="M421.048 631.216L423.461 627.511L420.704 626.008L418.558 629.304L421.048 631.216Z" fill="#DBDBDB"/>
<path d="M426.888 624.977L431.215 624.063L430.328 621.052L426.48 621.864L426.888 624.977Z" fill="#DBDBDB"/>
<path d="M435.431 624.695L439.136 627.108L440.639 624.351L437.343 622.205L435.431 624.695Z" fill="#DBDBDB"/>
<path d="M441.671 630.535L442.585 634.862L445.596 633.975L444.784 630.127L441.671 630.535Z" fill="#DBDBDB"/>
<path d="M441.953 639.078L439.54 642.784L442.297 644.286L444.443 640.99L441.953 639.078Z" fill="#DBDBDB"/>
<path d="M436.113 645.318L431.786 646.232L432.671 649.243L436.521 648.43L436.113 645.318Z" fill="#DBDBDB"/>
<path d="M515.231 676.784L520.596 677.782L535.937 573.879L529.825 572.756L515.231 676.784Z" fill="#FF6B00"/>
<path d="M468.238 660.319L476.204 590.894L529.825 572.756C529.825 572.756 515.231 677.907 515.231 676.784L468.238 660.319Z" fill="#FF6B00"/>
<path opacity="0.4" d="M468.238 660.319L476.204 590.894L529.825 572.756C529.825 572.756 515.231 677.907 515.231 676.784L468.238 660.319Z" fill="white"/>
<path d="M338.279 593.706C337.406 587.955 336.934 582.157 336.574 576.354C336.409 573.451 336.335 570.544 336.271 567.637C336.214 564.731 336.163 561.821 336.249 558.912L336.273 558.149L337.016 558.108C347.668 557.537 358.314 556.837 368.973 556.372C379.628 555.846 390.284 555.368 400.948 555.035C390.317 555.997 379.682 556.817 369.043 557.589C358.408 558.42 347.761 559.017 337.121 559.742L337.886 558.938L337.842 567.621L337.944 576.307C337.959 579.205 338.011 582.102 338.095 585L338.279 593.706Z" fill="white"/>
<path d="M483.683 591.912C487.004 590.334 490.378 588.868 493.792 587.514C497.196 586.128 500.631 584.816 504.106 583.612C507.585 582.424 511.077 581.26 514.628 580.274C518.172 579.276 521.75 578.354 525.405 577.755L526.303 577.608L526.143 578.467C525.302 582.961 524.422 587.45 523.382 591.912C523.771 587.347 524.321 582.805 524.909 578.271L525.648 578.982C522.105 579.827 518.592 580.815 515.088 581.85C511.588 582.897 508.098 584 504.618 585.133L483.683 591.912Z" fill="white"/>
<path opacity="0.1" d="M361.483 553.214L362.387 570.578L363.159 587.947L364.498 622.692L365.545 657.447L365.963 674.828L366.25 692.214L365.344 674.85L364.572 657.481L363.235 622.736L362.192 587.981L361.772 570.6L361.483 553.214Z" fill="black"/>
<path opacity="0.1" d="M356.51 563.68C356.844 565.176 355.957 566.96 354.269 567.455C353.451 567.702 352.494 567.621 351.696 567.165C350.899 566.712 350.31 565.886 350.121 564.968C349.941 564.05 350.16 563.058 350.72 562.332C351.276 561.602 352.133 561.155 352.981 561.065C354.731 560.87 356.238 562.175 356.51 563.68ZM356.51 563.68C356.35 562.925 355.864 562.249 355.205 561.885C354.544 561.521 353.763 561.475 353.106 561.689C351.752 562.129 351.103 563.554 351.359 564.721C351.573 565.892 352.723 566.963 354.144 566.84C354.832 566.781 355.535 566.437 356.002 565.844C356.471 565.252 356.655 564.439 356.51 563.68Z" fill="black"/>
<path opacity="0.1" d="M357.705 584.501C358.039 585.996 357.152 587.78 355.464 588.276C354.647 588.522 353.689 588.441 352.892 587.986C352.094 587.532 351.506 586.706 351.317 585.789C351.136 584.87 351.356 583.879 351.915 583.152C352.472 582.422 353.328 581.975 354.176 581.886C355.926 581.69 357.434 582.995 357.705 584.501ZM357.705 584.501C357.545 583.745 357.059 583.069 356.4 582.705C355.739 582.341 354.959 582.296 354.301 582.51C352.947 582.95 352.298 584.376 352.554 585.541C352.768 586.713 353.918 587.783 355.34 587.66C356.028 587.601 356.731 587.256 357.199 586.664C357.666 586.072 357.852 585.26 357.705 584.501Z" fill="black"/>
<path opacity="0.1" d="M358.464 606.603C358.798 608.098 357.911 609.882 356.223 610.378C355.405 610.624 354.448 610.543 353.65 610.088C352.853 609.634 352.264 608.808 352.076 607.891C351.895 606.974 352.114 605.98 352.674 605.254C353.23 604.522 354.087 604.077 354.935 603.988C356.685 603.792 358.192 605.097 358.464 606.603ZM358.464 606.603C358.304 605.847 357.818 605.171 357.159 604.807C356.498 604.443 355.717 604.397 355.06 604.611C353.706 605.051 353.057 606.476 353.313 607.641C353.527 608.815 354.677 609.884 356.098 609.761C356.786 609.702 357.489 609.358 357.956 608.764C358.425 608.172 358.609 607.361 358.464 606.603Z" fill="black"/>
<path opacity="0.1" d="M359.223 628.703C359.556 630.198 358.67 631.982 356.982 632.478C356.164 632.724 355.206 632.643 354.409 632.188C353.612 631.734 353.023 630.908 352.834 629.991C352.654 629.072 352.873 628.081 353.433 627.354C353.989 626.624 354.844 626.177 355.694 626.088C357.444 625.892 358.951 627.197 359.223 628.703ZM359.223 628.703C359.062 627.947 358.578 627.271 357.918 626.907C357.257 626.543 356.476 626.497 355.818 626.712C354.465 627.152 353.816 628.576 354.072 629.743C354.286 630.915 355.436 631.985 356.857 631.862C357.545 631.803 358.248 631.459 358.715 630.866C359.184 630.274 359.368 629.461 359.223 628.703Z" fill="black"/>
<path opacity="0.1" d="M359.981 650.805C360.315 652.3 359.428 654.084 357.74 654.579C356.923 654.826 355.965 654.745 355.168 654.289C354.37 653.836 353.782 653.01 353.593 652.093C353.413 651.174 353.632 650.182 354.191 649.456C354.748 648.726 355.604 648.279 356.452 648.19C358.202 647.994 359.71 649.297 359.981 650.805ZM359.981 650.805C359.821 650.049 359.335 649.373 358.676 649.009C358.015 648.645 357.235 648.599 356.577 648.813C355.223 649.253 354.574 650.678 354.83 651.845C355.045 653.018 356.194 654.087 357.616 653.964C358.304 653.905 359.007 653.561 359.475 652.968C359.942 652.374 360.126 651.562 359.981 650.805Z" fill="black"/>
<path opacity="0.1" d="M360.74 672.905C361.074 674.4 360.187 676.184 358.499 676.68C357.681 676.926 356.724 676.845 355.926 676.39C355.129 675.936 354.54 675.11 354.352 674.193C354.171 673.276 354.39 672.282 354.95 671.556C355.507 670.824 356.361 670.379 357.211 670.29C358.961 670.094 360.467 671.399 360.74 672.905ZM360.74 672.905C360.58 672.149 360.094 671.473 359.435 671.109C358.774 670.745 357.993 670.699 357.336 670.913C355.982 671.353 355.333 672.778 355.589 673.945C355.803 675.118 356.953 676.187 358.374 676.064C359.062 676.005 359.765 675.66 360.232 675.068C360.701 674.474 360.885 673.663 360.74 672.905Z" fill="black"/>
<path d="M370.392 715.896L367.593 706.662L288.563 730.611L291.361 739.845L370.392 715.896Z" fill="#FF6B00"/>
<path opacity="0.4" d="M370.392 715.896L367.593 706.662L288.563 730.611L291.361 739.845L370.392 715.896Z" fill="white"/>
<path d="M334.051 728.673L329.707 715.014L320.512 717.939L324.856 731.598L334.051 728.673Z" fill="#FF6B00"/>
<path d="M290.712 753.411L270.318 665.1L208.762 679.694L239.073 765.759L290.712 753.411Z" fill="#FF6B00"/>
<path d="M304.37 748.921L290.712 753.411L270.318 665.1L289.963 669.777L304.37 748.921Z" fill="#FF6B00"/>
<path opacity="0.2" d="M304.37 748.921L290.712 753.411L270.318 665.1L289.963 669.777L304.37 748.921Z" fill="black"/>
<path d="M368.996 721.79C374.782 721.79 379.473 717.1 379.473 711.313C379.473 705.527 374.782 700.837 368.996 700.837C363.21 700.837 358.519 705.527 358.519 711.313C358.519 717.1 363.21 721.79 368.996 721.79Z" fill="#FF6B00"/>
<path d="M555.82 730.552L476.838 706.438L474.021 715.666L553.002 739.78L555.82 730.552Z" fill="#FF6B00"/>
<path opacity="0.4" d="M555.82 730.552L476.838 706.438L474.021 715.666L553.002 739.78L555.82 730.552Z" fill="white"/>
<path d="M523.888 717.784L514.7 714.839L510.325 728.488L519.514 731.433L523.888 717.784Z" fill="#FF6B00"/>
<path d="M553.61 753.335L574.193 665.066L635.716 679.792L605.223 765.793L553.61 753.335Z" fill="#FF6B00"/>
<path d="M539.962 748.815L553.61 753.335L574.193 665.066L554.537 669.703L539.962 748.815Z" fill="#FF6B00"/>
<path opacity="0.2" d="M539.962 748.815L553.61 753.335L574.193 665.066L554.537 669.703L539.962 748.815Z" fill="black"/>
<path d="M475.415 721.547C481.201 721.547 485.892 716.857 485.892 711.071C485.892 705.284 481.201 700.594 475.415 700.594C469.629 700.594 464.938 705.284 464.938 711.071C464.938 716.857 469.629 721.547 475.415 721.547Z" fill="#FF6B00"/>
<path d="M544.01 602.125C544.258 601.892 569.642 578.347 599.505 586.401C630.041 594.64 655.254 640.635 655.503 641.1L663.991 636.512C662.888 634.471 636.591 586.398 602.015 577.088C566.85 567.604 538.551 594.005 537.362 595.134L544.01 602.125Z" fill="#FF6B00"/>
<path opacity="0.4" d="M544.01 602.125C544.258 601.892 569.642 578.347 599.505 586.401C630.041 594.64 655.254 640.635 655.503 641.1L663.991 636.512C662.888 634.471 636.591 586.398 602.015 577.088C566.85 567.604 538.551 594.005 537.362 595.134L544.01 602.125Z" fill="white"/>
<path d="M644.251 687.403L662.537 677.748C660.782 674.425 658.621 668.713 658.307 663.556C657.901 656.872 660.553 654.522 663.478 652.976C669.885 649.592 673.709 650.934 676.32 652.472C679.984 654.635 683.71 659.061 686.811 664.935L705.097 655.281C700.093 645.802 693.948 638.866 686.831 634.664C679.731 630.48 668.243 627.079 653.824 634.69C642.585 640.623 636.848 651.32 637.669 664.81C638.313 675.425 642.87 684.786 644.251 687.403Z" fill="#FF6B00"/>
<path d="M547.864 569.905C551.828 567.167 555.884 564.587 559.956 562.032C564.018 559.46 568.147 557.002 572.276 554.544C576.425 552.121 580.576 549.702 584.794 547.394L591.123 543.937C593.265 542.838 595.376 541.69 597.544 540.635C595.571 542.019 593.543 543.308 591.543 544.649L585.453 548.51C581.39 551.081 577.263 553.539 573.132 555.994C568.981 558.415 564.83 560.834 560.612 563.141C556.404 565.468 552.18 567.766 547.864 569.905Z" fill="#263238"/>
<path d="M537.362 609.359C543.037 612.593 548.417 616.243 553.725 619.995C559.002 623.788 564.205 627.684 569.108 632.001C563.429 628.77 558.051 625.12 552.745 621.365C547.471 617.57 542.268 613.674 537.362 609.359Z" fill="#263238"/>
<path d="M546.684 604.507C551.064 605.837 555.377 607.341 559.678 608.87C563.987 610.381 568.249 612.016 572.51 613.652C576.757 615.324 581.002 617 585.201 618.797L591.496 621.498C593.572 622.456 595.669 623.36 597.726 624.366C595.531 623.717 593.373 622.965 591.196 622.269L584.73 620.006C580.421 618.494 576.158 616.86 571.9 615.223C567.654 613.549 563.407 611.873 559.211 610.074C555.006 608.292 550.813 606.486 546.684 604.507Z" fill="#263238"/>
<path d="M559.128 573.606C563.326 572.515 567.555 571.606 571.79 570.725C576.02 569.824 580.276 569.055 584.53 568.285C588.79 567.555 593.052 566.828 597.336 566.23L603.763 565.338C605.916 565.102 608.059 564.808 610.222 564.623C608.127 565.186 606.013 565.641 603.907 566.152L597.561 567.506C593.329 568.405 589.075 569.175 584.821 569.942C580.559 570.669 576.298 571.397 572.014 571.994C567.734 572.613 563.446 573.201 559.128 573.606Z" fill="#263238"/>
<path d="M457.955 599.857C458.666 596.446 459.811 593.121 461.291 589.952C462.773 586.785 464.587 583.749 466.864 581.05C469.146 578.379 471.955 576.024 475.336 574.72C478.716 573.461 482.585 573.471 485.976 574.825C489.407 576.162 492.113 579.045 493.571 582.36C494.328 584.015 494.802 585.791 494.998 587.606C495.168 589.419 495.096 591.304 494.374 593.115C494.006 594.005 493.432 594.903 492.511 595.502C492.066 595.812 491.521 595.989 490.987 596.072C490.461 596.148 489.921 596.124 489.308 595.912C488.18 595.431 487.615 594.524 487.129 593.706C486.696 592.857 486.362 591.987 486.135 591.108C485.187 587.59 485.091 584.01 485.258 580.471C485.76 573.422 487.611 566.371 491.41 560.305C493.327 557.307 495.731 554.547 498.72 552.531C501.671 550.501 505.126 549.103 508.653 548.699C510.388 548.279 512.18 548.318 513.952 548.232C514.84 548.137 515.722 548.353 516.607 548.398C517.486 548.515 518.386 548.5 519.241 548.754C522.744 549.383 526.037 550.789 529.112 552.49C532.169 554.252 534.892 556.515 537.377 558.97C539.84 561.45 542.081 564.163 543.882 567.15C539.894 561.46 534.76 556.52 528.708 553.212C525.661 551.629 522.442 550.329 519.052 549.803C518.224 549.572 517.356 549.612 516.509 549.518C515.658 549.493 514.81 549.299 513.957 549.413C512.256 549.538 510.543 549.53 508.882 549.977C505.483 550.455 502.33 551.823 499.555 553.728C496.766 555.636 494.517 558.255 492.71 561.121C489.131 566.919 487.377 573.768 486.94 580.572C486.75 583.973 486.836 587.45 487.686 590.68C488.092 592.224 488.822 593.964 489.886 594.452C490.022 594.465 490.113 594.538 490.279 594.543C490.444 594.529 490.621 594.566 490.778 594.526C491.098 594.473 491.41 594.387 491.678 594.195C492.231 593.848 492.669 593.231 492.964 592.523C493.556 591.09 493.664 589.39 493.516 587.753C493.351 586.106 492.929 584.47 492.248 582.953C490.914 579.92 488.549 577.3 485.484 576.015C482.435 574.72 478.866 574.616 475.702 575.717C472.522 576.858 469.775 579.05 467.486 581.591C462.891 586.733 459.794 593.165 457.955 599.857Z" fill="#263238"/>
<path d="M302.16 643.551C303.787 640.484 306.179 637.831 308.973 635.733C311.763 633.636 314.967 632.009 318.415 631.211C321.844 630.39 325.528 630.377 328.959 631.419C332.392 632.446 335.484 634.459 337.959 637.023C340.451 639.586 342.314 642.698 343.593 646.008C344.849 649.324 345.603 652.877 345.337 656.51C345.156 658.297 344.794 660.227 343.379 661.774C342.678 662.534 341.595 663.036 340.538 663.053C339.523 663.043 338.564 662.893 337.633 662.396C336.708 661.919 335.966 661.089 335.543 660.172C335.113 659.253 334.953 658.28 334.909 657.339C334.841 655.451 335.249 653.657 335.804 651.951C336.935 648.533 338.793 645.455 340.965 642.664C343.148 639.878 345.718 637.396 348.597 635.329C354.31 631.181 361.586 628.876 368.684 629.805C372.188 630.279 375.664 631.291 378.731 633.078C381.825 634.806 384.507 637.205 386.694 639.947C388.879 642.7 390.582 645.794 391.894 649.017C393.206 652.243 394.173 655.61 394.649 659.046C393.233 652.29 390.454 645.728 386.028 640.491C383.836 637.875 381.194 635.629 378.197 634.046C375.224 632.405 371.889 631.525 368.533 631.149C361.789 630.416 354.947 632.565 349.506 636.592C344.072 640.589 339.626 646.168 337.379 652.479C336.849 654.052 336.48 655.697 336.529 657.282C336.566 658.855 337.119 660.366 338.382 661.003C338.977 661.345 339.785 661.479 340.489 661.49C341.172 661.472 341.779 661.2 342.266 660.696C343.251 659.669 343.673 657.99 343.823 656.378C344.087 653.084 343.406 649.677 342.228 646.529C341.034 643.373 339.26 640.429 336.967 637.966C334.679 635.506 331.796 633.587 328.606 632.543C325.422 631.483 321.93 631.395 318.612 632.098C311.974 633.509 305.824 637.66 302.16 643.551Z" fill="#263238"/>
<path d="M224.159 236.391C223.968 229.453 222.496 222.468 219.268 216.381C217.651 213.367 215.506 210.581 212.691 208.715C209.88 206.891 206.39 206.141 203.121 206.67C199.838 207.186 196.916 209.167 194.897 211.792C193.873 213.104 193.072 214.589 192.519 216.15C191.983 217.705 191.683 219.381 191.916 220.913C192.032 221.67 192.31 222.373 192.765 222.844C192.981 223.095 193.263 223.252 193.561 223.38C193.705 223.456 193.885 223.462 194.042 223.515C194.204 223.548 194.308 223.5 194.445 223.52C195.593 223.301 196.719 221.785 197.481 220.382C199.078 217.448 199.992 214.092 200.617 210.745C201.816 204.033 201.748 196.964 199.656 190.479C198.587 187.264 197.026 184.184 194.773 181.667C192.533 179.154 189.798 177.074 186.612 175.798C185.106 174.968 183.44 174.568 181.818 174.039C181.017 173.725 180.147 173.712 179.315 173.532C178.47 173.422 177.637 173.176 176.777 173.201C173.36 172.903 169.924 173.397 166.587 174.208C159.919 175.976 153.755 179.547 148.525 184.121C150.986 181.651 153.809 179.551 156.793 177.73C159.792 175.939 162.976 174.393 166.364 173.41C169.755 172.491 173.29 171.911 176.841 172.137C177.733 172.093 178.601 172.324 179.483 172.42C180.353 172.586 181.262 172.587 182.102 172.891C183.801 173.398 185.553 173.788 187.136 174.609C190.464 175.843 193.485 178.025 195.866 180.7C198.287 183.371 199.963 186.625 201.109 189.994C203.35 196.79 203.465 204.08 202.269 211.045C201.588 214.522 200.639 217.975 198.881 221.166C198.449 221.965 197.916 222.731 197.294 223.452C196.628 224.13 195.863 224.877 194.654 225.074C194.006 225.133 193.479 225.027 192.985 224.828C192.486 224.619 191.998 224.319 191.641 223.911C190.891 223.11 190.545 222.1 190.402 221.149C190.132 219.22 190.511 217.373 191.11 215.651C191.732 213.933 192.617 212.323 193.747 210.897C195.954 208.027 199.27 205.872 202.92 205.394C206.537 204.888 210.296 205.802 213.279 207.833C216.25 209.905 218.416 212.864 219.996 216.002C221.562 219.167 222.598 222.549 223.282 225.976C223.963 229.406 224.282 232.907 224.159 236.391Z" fill="#263238"/>
<path d="M596.456 324.338C589.665 322.904 582.528 322.705 575.857 324.425C572.549 325.295 569.34 326.73 566.867 329.031C564.437 331.338 562.893 334.558 562.645 337.861C562.38 341.172 563.625 344.477 565.707 347.053C566.742 348.355 568.002 349.479 569.389 350.381C570.775 351.265 572.336 351.949 573.881 352.081C574.644 352.143 575.393 352.037 575.956 351.705C576.25 351.555 576.469 351.317 576.663 351.057C576.77 350.936 576.819 350.762 576.907 350.622C576.978 350.474 576.954 350.359 577.007 350.233C577.062 349.064 575.85 347.616 574.665 346.549C572.185 344.313 569.133 342.641 566.026 341.251C559.779 338.52 552.888 336.935 546.094 337.456C542.718 337.746 539.358 338.545 536.384 340.147C533.418 341.739 530.758 343.914 528.773 346.714C527.615 347.985 526.838 349.511 525.946 350.965C525.454 351.671 525.238 352.512 524.869 353.281C524.564 354.077 524.13 354.829 523.957 355.67C522.869 358.924 522.547 362.38 522.557 365.813C522.721 372.709 524.756 379.537 527.983 385.691C526.155 382.722 524.771 379.487 523.697 376.16C522.657 372.825 521.895 369.369 521.731 365.843C521.63 362.332 521.89 358.759 522.938 355.358C523.103 354.482 523.53 353.689 523.83 352.855C524.194 352.047 524.408 351.163 524.899 350.418C525.789 348.884 526.577 347.272 527.745 345.923C529.723 342.975 532.548 340.547 535.705 338.856C538.868 337.124 542.422 336.254 545.966 335.925C553.097 335.334 560.214 336.922 566.707 339.709C569.929 341.182 573.065 342.91 575.757 345.367C576.433 345.972 577.054 346.669 577.61 347.444C578.114 348.248 578.66 349.167 578.571 350.39C578.478 351.032 578.251 351.523 577.942 351.956C577.624 352.393 577.216 352.795 576.737 353.048C575.784 353.591 574.72 353.691 573.761 353.608C571.822 353.419 570.114 352.62 568.58 351.637C567.056 350.631 565.695 349.395 564.571 347.963C562.295 345.148 560.974 341.42 561.359 337.76C561.711 334.126 563.478 330.682 566.147 328.256C568.855 325.85 572.237 324.435 575.658 323.631C579.101 322.847 582.631 322.628 586.124 322.763C589.619 322.898 593.098 323.405 596.456 324.338Z" fill="#263238"/>
<path d="M492.076 215.253C490.923 211.259 490.768 206.987 491.417 202.861C492.062 198.736 493.46 194.678 495.743 191.123C497.992 187.566 501.13 184.489 504.925 182.528C508.71 180.552 513.023 179.694 517.268 179.824C521.525 179.938 525.71 181.041 529.562 182.798C533.398 184.58 537.003 186.988 539.793 190.299C541.123 191.966 542.408 193.91 542.486 196.352C542.519 197.557 542.03 198.845 541.166 199.719C540.309 200.538 539.373 201.204 538.195 201.546C537.035 201.902 535.745 201.814 534.641 201.393C533.53 200.975 532.594 200.289 531.783 199.53C530.166 197.989 529.021 196.124 528.075 194.209C526.197 190.356 525.209 186.178 524.734 181.985C524.27 177.785 524.39 173.522 525.12 169.355C526.529 161.047 530.812 153.023 537.632 147.884C541.012 145.36 544.817 143.317 548.924 142.277C553.005 141.162 557.297 140.965 561.458 141.472C565.628 141.988 569.674 143.197 573.5 144.848C577.325 146.5 580.977 148.56 584.273 151.089C577.425 146.456 569.553 143.138 561.364 142.329C557.289 141.914 553.131 142.192 549.22 143.344C545.283 144.423 541.67 146.461 538.463 148.953C535.293 151.491 532.596 154.611 530.625 158.16C528.637 161.701 527.339 165.614 526.652 169.624C525.339 177.629 526.187 186.155 529.567 193.484C530.439 195.286 531.506 197.018 532.899 198.355C534.265 199.687 536.067 200.56 537.755 200.025C538.584 199.81 539.4 199.238 540.038 198.635C540.634 198.023 540.945 197.23 540.935 196.358C540.913 194.588 539.845 192.782 538.615 191.263C536.06 188.195 532.609 185.843 528.947 184.127C525.265 182.419 521.262 181.375 517.218 181.191C513.178 181.006 509.081 181.783 505.458 183.579C501.826 185.356 498.754 188.224 496.502 191.619C492.003 198.42 490.24 207.149 492.076 215.253Z" fill="#263238"/>
<path d="M296.524 643.921C292.745 642.73 288.721 644.828 287.53 648.603C286.338 652.384 288.438 656.405 292.216 657.597C295.991 658.788 300.012 656.692 301.202 652.914C302.393 649.139 300.299 645.109 296.524 643.921ZM300.371 652.649C299.326 655.969 295.792 657.81 292.477 656.764C289.161 655.719 287.32 652.187 288.367 648.867C289.412 645.551 292.944 643.71 296.264 644.757C299.575 645.8 301.416 649.333 300.371 652.649ZM296.524 643.921C292.745 642.73 288.721 644.828 287.53 648.603C286.338 652.384 288.438 656.405 292.216 657.597C295.991 658.788 300.012 656.692 301.202 652.914C302.393 649.139 300.299 645.109 296.524 643.921ZM300.371 652.649C299.326 655.969 295.792 657.81 292.477 656.764C289.161 655.719 287.32 652.187 288.367 648.867C289.412 645.551 292.944 643.71 296.264 644.757C299.575 645.8 301.416 649.333 300.371 652.649ZM296.524 643.921C292.745 642.73 288.721 644.828 287.53 648.603C286.338 652.384 288.438 656.405 292.216 657.597C295.991 658.788 300.012 656.692 301.202 652.914C302.393 649.139 300.299 645.109 296.524 643.921ZM300.371 652.649C299.326 655.969 295.792 657.81 292.477 656.764C289.161 655.719 287.32 652.187 288.367 648.867C289.412 645.551 292.944 643.71 296.264 644.757C299.575 645.8 301.416 649.333 300.371 652.649ZM298.913 636.345C290.946 633.837 282.464 638.262 279.955 646.217C277.448 654.175 281.865 662.664 289.827 665.171C297.781 667.676 306.27 663.257 308.777 655.298C311.288 647.345 306.869 638.851 298.913 636.345ZM302.268 653.246C300.894 657.606 296.235 660.034 291.88 658.661C287.525 657.289 285.096 652.629 286.47 648.27C287.844 643.912 292.506 641.488 296.861 642.86C301.212 644.231 303.64 648.891 302.268 653.246ZM301.202 652.912C302.393 649.137 300.299 645.109 296.524 643.919C292.745 642.728 288.721 644.826 287.53 648.601C286.338 652.383 288.438 656.404 292.216 657.596C295.991 658.786 300.012 656.69 301.202 652.912ZM300.371 652.649C299.326 655.969 295.792 657.81 292.477 656.764C289.161 655.719 287.32 652.187 288.367 648.867C289.412 645.551 292.944 643.71 296.264 644.757C299.575 645.8 301.416 649.333 300.371 652.649ZM296.524 643.921C292.745 642.73 288.721 644.828 287.53 648.603C286.338 652.384 288.438 656.405 292.216 657.597C295.991 658.788 300.012 656.692 301.202 652.914C302.393 649.139 300.299 645.109 296.524 643.921ZM300.371 652.649C299.326 655.969 295.792 657.81 292.477 656.764C289.161 655.719 287.32 652.187 288.367 648.867C289.412 645.551 292.944 643.71 296.264 644.757C299.575 645.8 301.416 649.333 300.371 652.649ZM296.524 643.921C292.745 642.73 288.721 644.828 287.53 648.603C286.338 652.384 288.438 656.405 292.216 657.597C295.991 658.788 300.012 656.692 301.202 652.914C302.393 649.139 300.299 645.109 296.524 643.921ZM300.371 652.649C299.326 655.969 295.792 657.81 292.477 656.764C289.161 655.719 287.32 652.187 288.367 648.867C289.412 645.551 292.944 643.71 296.264 644.757C299.575 645.8 301.416 649.333 300.371 652.649Z" fill="#455A64"/>
<path d="M292.786 665.444L287.244 663.699L286.315 667.718L291.243 669.271L292.786 665.444Z" fill="#455A64"/>
<path d="M282.826 660.254L280.142 655.1L276.644 657.285L279.03 661.87L282.826 660.254Z" fill="#455A64"/>
<path d="M279.454 649.542L281.201 644L277.182 643.071L275.629 647.999L279.454 649.542Z" fill="#455A64"/>
<path d="M284.646 639.582L289.798 636.898L287.613 633.398L283.03 635.786L284.646 639.582Z" fill="#455A64"/>
<path d="M295.357 636.21L300.899 637.955L301.829 633.938L296.9 632.385L295.357 636.21Z" fill="#455A64"/>
<path d="M305.316 641.4L308 646.554L311.5 644.369L309.113 639.786L305.316 641.4Z" fill="#455A64"/>
<path d="M308.69 652.113L306.943 657.655L310.962 658.585L312.515 653.655L308.69 652.113Z" fill="#455A64"/>
<path d="M303.499 662.072L298.344 664.756L300.529 668.256L305.114 665.869L303.499 662.072Z" fill="#455A64"/>
<path d="M576.062 595.747C583.663 585.506 581.522 571.038 571.281 563.439C561.037 555.837 546.569 557.978 538.97 568.218C531.368 578.462 533.509 592.929 543.754 600.531C553.993 608.132 568.46 605.992 576.062 595.747ZM566.177 588.411C562.625 593.197 555.873 594.197 551.089 590.648C546.303 587.096 545.303 580.343 548.855 575.555C552.404 570.772 559.159 569.772 563.945 573.324C568.727 576.875 569.726 583.628 566.177 588.411Z" fill="#263238"/>
<path d="M547.888 602.406L540.756 597.114L537.404 602.455L543.747 607.162L547.888 602.406Z" fill="#263238"/>
<path d="M536.097 589.93L534.796 581.144L528.649 582.55L529.805 590.365L536.097 589.93Z" fill="#263238"/>
<path d="M536.581 572.77L541.875 565.638L536.534 562.286L531.827 568.629L536.581 572.77Z" fill="#263238"/>
<path d="M549.059 560.98L557.845 559.678L556.439 553.531L548.624 554.687L549.059 560.98Z" fill="#263238"/>
<path d="M566.219 561.463L573.351 566.757L576.703 561.416L570.36 556.709L566.219 561.463Z" fill="#263238"/>
<path d="M578.01 573.941L579.31 582.727L585.457 581.321L584.3 573.506L578.01 573.941Z" fill="#263238"/>
<path d="M577.526 591.102L572.232 598.233L577.573 601.585L582.28 595.242L577.526 591.102Z" fill="#263238"/>
<path d="M565.048 602.892L556.262 604.192L557.668 610.339L565.483 609.184L565.048 602.892Z" fill="#263238"/>
<path d="M549.243 583.091L554.149 589.279L561.962 588.119L564.862 580.78L559.961 574.596L552.148 575.749L549.243 583.091ZM558.543 579.925C559.656 580.751 559.887 582.314 559.061 583.427C558.238 584.535 556.672 584.771 555.559 583.944C554.451 583.122 554.219 581.55 555.041 580.443C555.867 579.332 557.435 579.104 558.543 579.925Z" fill="#263238"/>
<path d="M593.376 146.009C590.07 144.967 586.548 146.803 585.506 150.106C584.464 153.416 586.3 156.935 589.606 157.977C592.909 159.018 596.428 157.184 597.47 153.878C598.511 150.575 596.679 147.05 593.376 146.009ZM596.743 153.647C595.827 156.552 592.737 158.162 589.834 157.248C586.932 156.334 585.322 153.242 586.236 150.337C587.15 147.436 590.242 145.826 593.147 146.739C596.047 147.653 597.658 150.745 596.743 153.647ZM593.376 146.009C590.07 144.967 586.548 146.803 585.506 150.106C584.464 153.416 586.3 156.935 589.606 157.977C592.909 159.018 596.428 157.184 597.47 153.878C598.511 150.575 596.679 147.05 593.376 146.009ZM596.743 153.647C595.827 156.552 592.737 158.162 589.834 157.248C586.932 156.334 585.322 153.242 586.236 150.337C587.15 147.436 590.242 145.826 593.147 146.739C596.047 147.653 597.658 150.745 596.743 153.647ZM593.376 146.009C590.07 144.967 586.548 146.803 585.506 150.106C584.464 153.416 586.3 156.935 589.606 157.977C592.909 159.018 596.428 157.184 597.47 153.878C598.511 150.575 596.679 147.05 593.376 146.009ZM596.743 153.647C595.827 156.552 592.737 158.162 589.834 157.248C586.932 156.334 585.322 153.242 586.236 150.337C587.15 147.436 590.242 145.826 593.147 146.739C596.047 147.653 597.658 150.745 596.743 153.647ZM595.468 139.382C588.498 137.186 581.075 141.059 578.88 148.019C576.686 154.982 580.551 162.411 587.519 164.604C594.48 166.798 601.907 162.93 604.101 155.965C606.296 149.005 602.428 141.573 595.468 139.382ZM598.404 154.17C597.201 157.983 593.125 160.109 589.313 158.907C585.501 157.705 583.376 153.628 584.578 149.815C585.78 146.001 589.861 143.878 593.671 145.08C597.48 146.281 599.604 150.357 598.404 154.17ZM597.471 153.878C598.513 150.575 596.68 147.05 593.378 146.009C590.071 144.967 586.549 146.803 585.507 150.106C584.465 153.416 586.301 156.935 589.608 157.977C592.911 159.017 596.429 157.184 597.471 153.878ZM596.743 153.647C595.827 156.552 592.737 158.162 589.834 157.248C586.932 156.334 585.322 153.242 586.236 150.337C587.15 147.436 590.242 145.826 593.147 146.739C596.047 147.653 597.658 150.745 596.743 153.647ZM593.376 146.009C590.07 144.967 586.548 146.803 585.506 150.106C584.464 153.416 586.3 156.935 589.606 157.977C592.909 159.018 596.428 157.184 597.47 153.878C598.511 150.575 596.679 147.05 593.376 146.009ZM596.743 153.647C595.827 156.552 592.737 158.162 589.834 157.248C586.932 156.334 585.322 153.242 586.236 150.337C587.15 147.436 590.242 145.826 593.147 146.739C596.047 147.653 597.658 150.745 596.743 153.647ZM593.376 146.009C590.07 144.967 586.548 146.803 585.506 150.106C584.464 153.416 586.3 156.935 589.606 157.977C592.909 159.018 596.428 157.184 597.47 153.878C598.511 150.575 596.679 147.05 593.376 146.009ZM596.743 153.647C595.827 156.552 592.737 158.162 589.834 157.248C586.932 156.334 585.322 153.242 586.236 150.337C587.15 147.436 590.242 145.826 593.147 146.739C596.047 147.653 597.658 150.745 596.743 153.647Z" fill="#263238"/>
<path d="M590.105 164.844L585.256 163.316L584.443 166.833L588.756 168.192L590.105 164.844Z" fill="#263238"/>
<path d="M581.39 160.302L579.042 155.793L575.98 157.703L578.069 161.714L581.39 160.302Z" fill="#263238"/>
<path d="M578.44 150.927L579.969 146.079L576.452 145.266L575.093 149.579L578.44 150.927Z" fill="#263238"/>
<path d="M582.982 142.212L587.492 139.864L585.58 136.802L581.569 138.891L582.982 142.212Z" fill="#263238"/>
<path d="M592.356 139.262L597.205 140.789L598.019 137.272L593.706 135.914L592.356 139.262Z" fill="#263238"/>
<path d="M601.071 143.804L603.419 148.314L606.481 146.402L604.392 142.391L601.071 143.804Z" fill="#263238"/>
<path d="M604.021 153.178L602.494 158.027L606.011 158.841L607.37 154.529L604.021 153.178Z" fill="#263238"/>
<path d="M599.479 161.893L594.971 164.242L596.881 167.303L600.892 165.214L599.479 161.893Z" fill="#263238"/>
<path d="M528.945 386.88C525.639 385.838 522.117 387.674 521.075 390.977C520.033 394.286 521.869 397.805 525.175 398.847C528.478 399.889 531.997 398.054 533.039 394.748C534.079 391.445 532.248 387.92 528.945 386.88ZM532.311 394.517C531.395 397.422 528.305 399.032 525.403 398.119C522.502 397.205 520.891 394.113 521.805 391.208C522.719 388.306 525.811 386.696 528.716 387.61C531.614 388.524 533.226 391.616 532.311 394.517ZM528.945 386.88C525.639 385.838 522.117 387.674 521.075 390.977C520.033 394.286 521.869 397.805 525.175 398.847C528.478 399.889 531.997 398.054 533.039 394.748C534.079 391.445 532.248 387.92 528.945 386.88ZM532.311 394.517C531.395 397.422 528.305 399.032 525.403 398.119C522.502 397.205 520.891 394.113 521.805 391.208C522.719 388.306 525.811 386.696 528.716 387.61C531.614 388.524 533.226 391.616 532.311 394.517ZM528.945 386.88C525.639 385.838 522.117 387.674 521.075 390.977C520.033 394.286 521.869 397.805 525.175 398.847C528.478 399.889 531.997 398.054 533.039 394.748C534.079 391.445 532.248 387.92 528.945 386.88ZM532.311 394.517C531.395 397.422 528.305 399.032 525.403 398.119C522.502 397.205 520.891 394.113 521.805 391.208C522.719 388.306 525.811 386.696 528.716 387.61C531.614 388.524 533.226 391.616 532.311 394.517ZM531.036 380.252C524.066 378.057 516.643 381.93 514.447 388.889C512.254 395.854 516.118 403.281 523.087 405.475C530.048 407.668 537.475 403.8 539.668 396.835C541.864 389.876 537.996 382.444 531.036 380.252ZM533.971 395.04C532.769 398.854 528.692 400.98 524.88 399.778C521.07 398.577 518.944 394.499 520.146 390.685C521.348 386.871 525.428 384.749 529.239 385.951C533.047 387.151 535.172 391.228 533.971 395.04ZM533.039 394.748C534.081 391.445 532.248 387.92 528.945 386.88C525.639 385.838 522.117 387.674 521.075 390.977C520.033 394.286 521.869 397.805 525.175 398.847C528.478 399.887 531.997 398.054 533.039 394.748ZM532.311 394.517C531.395 397.422 528.305 399.032 525.403 398.119C522.502 397.205 520.891 394.113 521.805 391.208C522.719 388.306 525.811 386.696 528.716 387.61C531.614 388.524 533.226 391.616 532.311 394.517ZM528.945 386.88C525.639 385.838 522.117 387.674 521.075 390.977C520.033 394.286 521.869 397.805 525.175 398.847C528.478 399.889 531.997 398.054 533.039 394.748C534.079 391.445 532.248 387.92 528.945 386.88ZM532.311 394.517C531.395 397.422 528.305 399.032 525.403 398.119C522.502 397.205 520.891 394.113 521.805 391.208C522.719 388.306 525.811 386.696 528.716 387.61C531.614 388.524 533.226 391.616 532.311 394.517ZM528.945 386.88C525.639 385.838 522.117 387.674 521.075 390.977C520.033 394.286 521.869 397.805 525.175 398.847C528.478 399.889 531.997 398.054 533.039 394.748C534.079 391.445 532.248 387.92 528.945 386.88ZM532.311 394.517C531.395 397.422 528.305 399.032 525.403 398.119C522.502 397.205 520.891 394.113 521.805 391.208C522.719 388.306 525.811 386.696 528.716 387.61C531.614 388.524 533.226 391.616 532.311 394.517Z" fill="#263238"/>
<path d="M525.673 405.714L520.824 404.187L520.011 407.704L524.324 409.062L525.673 405.714Z" fill="#263238"/>
<path d="M516.958 401.172L514.611 396.664L511.548 398.574L513.637 402.585L516.958 401.172Z" fill="#263238"/>
<path d="M514.007 391.798L515.537 386.949L512.02 386.136L510.661 390.449L514.007 391.798Z" fill="#263238"/>
<path d="M518.55 383.083L523.06 380.736L521.148 377.673L517.137 379.762L518.55 383.083Z" fill="#263238"/>
<path d="M527.924 380.132L532.773 381.662L533.587 378.145L529.274 376.786L527.924 380.132Z" fill="#263238"/>
<path d="M536.639 384.674L538.987 389.184L542.049 387.272L539.96 383.261L536.639 384.674Z" fill="#263238"/>
<path d="M539.589 394.049L538.062 398.898L541.579 399.712L542.938 395.399L539.589 394.049Z" fill="#263238"/>
<path d="M535.047 402.763L530.539 405.112L532.449 408.174L536.46 406.085L535.047 402.763Z" fill="#263238"/>
<path d="M160.205 197.25C162.805 186.581 156.262 175.823 145.593 173.223C134.92 170.623 124.16 177.167 121.561 187.836C118.961 198.508 125.504 209.268 136.177 211.868C146.847 214.466 157.606 207.923 160.205 197.25ZM149.907 194.742C148.692 199.729 143.671 202.784 138.687 201.568C133.7 200.353 130.645 195.332 131.86 190.344C133.074 185.361 138.097 182.307 143.084 183.523C148.066 184.737 151.121 189.758 149.907 194.742Z" fill="#263238"/>
<path d="M140.086 211.969L132.656 210.158L131.786 215.518L138.394 217.128L140.086 211.969Z" fill="#263238"/>
<path d="M126.555 206.021L122.581 199.486L118.175 202.661L121.709 208.472L126.555 206.021Z" fill="#263238"/>
<path d="M121.191 192.245L123.002 184.816L117.642 183.944L116.032 190.553L121.191 192.245Z" fill="#263238"/>
<path d="M127.141 178.713L133.675 174.739L130.501 170.333L124.69 173.869L127.141 178.713Z" fill="#263238"/>
<path d="M140.916 173.351L148.346 175.162L149.218 169.802L142.609 168.192L140.916 173.351Z" fill="#263238"/>
<path d="M154.448 179.3L158.422 185.835L162.827 182.66L159.293 176.848L154.448 179.3Z" fill="#263238"/>
<path d="M159.811 193.076L158 200.506L163.36 201.376L164.97 194.767L159.811 193.076Z" fill="#263238"/>
<path d="M153.861 206.608L147.328 210.582L150.502 214.987L156.314 211.452L153.861 206.608Z" fill="#263238"/>
<path d="M134.693 196.193L140.656 199.459L146.465 195.922L146.308 189.129L140.348 185.865L134.536 189.395L134.693 196.193ZM141.01 190.567C142.17 190.849 142.877 192.012 142.593 193.172C142.312 194.327 141.149 195.038 139.989 194.755C138.834 194.473 138.124 193.305 138.405 192.15C138.689 190.992 139.855 190.285 141.01 190.567Z" fill="#263238"/>
<path d="M609.641 402.849C605.105 395.943 602.556 388.176 602.556 379.965C602.556 350.973 634.393 327.467 673.641 327.467C712.89 327.467 744.698 350.974 744.698 379.965C744.698 408.956 712.89 432.464 673.641 432.464C654.61 432.464 637.357 426.951 624.611 417.939L600.125 424.165L609.641 402.849Z" fill="white"/>
<path d="M609.641 402.849C605.362 396.475 602.679 388.947 602.398 381.213C602.185 373.496 604.087 365.688 608.051 359.01C611.925 352.283 617.447 346.611 623.685 342.049C629.93 337.461 636.962 333.996 644.302 331.56C651.642 329.107 659.292 327.637 667.007 327.02C674.734 326.455 682.513 326.934 690.149 328.197C692.046 328.586 693.971 328.846 695.844 329.343L701.459 330.854L706.943 332.791C708.767 333.449 710.501 334.337 712.284 335.099C719.285 338.429 725.848 342.792 731.368 348.301C736.875 353.787 741.316 360.49 743.658 367.991C745.994 375.465 746.165 383.669 743.89 391.186C741.678 398.727 737.34 405.5 731.908 411.059C726.464 416.639 719.952 421.08 712.988 424.486C706.024 427.932 698.522 430.176 690.913 431.559C683.29 432.867 675.513 433.427 667.794 432.882C660.077 432.395 652.411 430.985 645.067 428.561C637.731 426.145 630.672 422.771 624.39 418.254L624.707 418.313L600.172 424.346L599.801 424.437L599.958 424.091L609.641 402.849ZM609.641 402.849L600.294 424.238L600.079 423.983L624.516 417.565L624.685 417.521L624.833 417.624C637.441 426.327 652.647 430.857 667.867 431.672C675.494 432.142 683.166 431.518 690.658 430.164C698.144 428.773 705.519 426.549 712.337 423.147C719.158 419.787 725.513 415.42 730.792 409.974C736.06 404.549 740.225 397.985 742.331 390.734C744.501 383.504 744.293 375.654 742.052 368.485C739.825 361.281 735.566 354.788 730.227 349.437C724.877 344.067 718.477 339.778 711.624 336.493C709.877 335.741 708.181 334.863 706.392 334.214L701.012 332.295L695.497 330.795C693.658 330.299 691.762 330.041 689.898 329.652C682.387 328.377 674.724 327.915 667.105 328.404C659.496 328.945 651.939 330.328 644.679 332.683C637.419 335.022 630.456 338.377 624.263 342.843C618.071 347.282 612.615 352.829 608.68 359.376C604.674 365.889 602.676 373.55 602.764 381.201C602.917 388.867 605.461 396.409 609.641 402.849Z" fill="#263238"/>
<path d="M637.074 388.56V392.464H621.166V369.554H636.784V373.459H625.621V378.976H635.268V382.59H625.621V388.559H637.074V388.56Z" fill="#263238"/>
<path d="M640.56 392.465V369.556H650.693C651.747 369.556 652.72 369.777 653.612 370.219C654.504 370.66 655.272 371.24 655.918 371.96C656.564 372.682 657.07 373.499 657.434 374.413C657.8 375.327 657.982 376.248 657.982 377.172C657.982 378.655 657.611 380.006 656.869 381.221C656.129 382.437 655.122 383.314 653.853 383.85L659.081 392.465H654.079L649.402 384.786H645.013V392.465H640.56ZM645.013 380.881H650.595C651.003 380.881 651.386 380.785 651.74 380.591C652.096 380.397 652.401 380.134 652.661 379.8C652.919 379.468 653.123 379.075 653.273 378.623C653.424 378.171 653.5 377.687 653.5 377.172C653.5 376.634 653.413 376.14 653.242 375.688C653.069 375.236 652.839 374.845 652.548 374.511C652.258 374.177 651.924 373.919 651.548 373.736C651.17 373.553 650.789 373.461 650.401 373.461H645.015V380.881H645.013Z" fill="#263238"/>
<path d="M662.015 392.465V369.556H672.147C673.201 369.556 674.174 369.777 675.066 370.219C675.958 370.66 676.727 371.24 677.372 371.96C678.018 372.682 678.524 373.499 678.888 374.413C679.254 375.327 679.436 376.248 679.436 377.172C679.436 378.655 679.065 380.006 678.323 381.221C677.583 382.437 676.577 383.314 675.307 383.85L680.534 392.465H675.531L670.853 384.786H666.466V392.465H662.015ZM666.469 380.881H672.05C672.458 380.881 672.84 380.785 673.194 380.591C673.55 380.397 673.855 380.134 674.115 379.8C674.373 379.468 674.577 379.075 674.727 378.623C674.879 378.171 674.955 377.687 674.955 377.172C674.955 376.634 674.867 376.14 674.697 375.688C674.523 375.236 674.294 374.845 674.002 374.511C673.712 374.177 673.378 373.919 673.002 373.736C672.625 373.553 672.244 373.461 671.856 373.461H666.469V380.881Z" fill="#263238"/>
<path d="M693.249 392.625C691.572 392.625 690.051 392.298 688.684 391.643C687.316 390.987 686.145 390.115 685.167 389.029C684.187 387.943 683.43 386.701 682.891 385.303C682.355 383.905 682.086 382.474 682.086 381.012C682.086 379.485 682.371 378.023 682.941 376.624C683.511 375.226 684.297 373.988 685.295 372.913C686.296 371.837 687.485 370.982 688.861 370.348C690.237 369.714 691.732 369.396 693.346 369.396C695.001 369.396 696.512 369.735 697.879 370.412C699.247 371.09 700.413 371.977 701.379 373.075C702.347 374.171 703.101 375.42 703.639 376.818C704.176 378.217 704.444 379.635 704.444 381.076C704.444 382.604 704.165 384.061 703.607 385.448C703.047 386.836 702.271 388.061 701.283 389.127C700.294 390.193 699.11 391.042 697.734 391.676C696.357 392.309 694.863 392.625 693.249 392.625ZM686.602 381.011C686.602 382 686.752 382.958 687.053 383.882C687.355 384.807 687.792 385.625 688.36 386.335C688.93 387.045 689.63 387.615 690.457 388.045C691.285 388.475 692.226 388.69 693.281 388.69C694.357 388.69 695.308 388.471 696.136 388.029C696.964 387.589 697.662 387.003 698.233 386.271C698.803 385.539 699.233 384.716 699.525 383.803C699.815 382.889 699.96 381.958 699.96 381.012C699.96 380.024 699.803 379.067 699.493 378.141C699.181 377.217 698.741 376.398 698.171 375.688C697.599 374.978 696.901 374.413 696.074 373.995C695.246 373.575 694.315 373.365 693.283 373.365C692.206 373.365 691.25 373.585 690.412 374.027C689.572 374.469 688.873 375.049 688.315 375.769C687.755 376.49 687.33 377.308 687.04 378.222C686.747 379.134 686.602 380.065 686.602 381.011Z" fill="#263238"/>
<path d="M707.865 392.465V369.556H717.998C719.052 369.556 720.025 369.777 720.917 370.219C721.809 370.66 722.577 371.24 723.223 371.96C723.869 372.682 724.375 373.499 724.739 374.413C725.105 375.327 725.287 376.248 725.287 377.172C725.287 378.655 724.916 380.006 724.174 381.221C723.434 382.437 722.427 383.314 721.158 383.85L726.386 392.465H721.384L716.707 384.786H712.318V392.465H707.865ZM712.318 380.881H717.9C718.308 380.881 718.691 380.785 719.045 380.591C719.401 380.397 719.708 380.134 719.966 379.8C720.224 379.468 720.428 379.075 720.578 378.623C720.73 378.171 720.805 377.687 720.805 377.172C720.805 376.634 720.718 376.14 720.547 375.688C720.374 375.236 720.145 374.845 719.853 374.511C719.563 374.177 719.229 373.919 718.853 373.736C718.475 373.553 718.094 373.461 717.707 373.461H712.32V380.881H712.318Z" fill="#263238"/>
</svg>
