<svg width="20" height="20" viewBox="0 0 20 20" fill="none" xmlns="http://www.w3.org/2000/svg">
<path d="M10.0439 13.1704C7.61576 13.1704 5.64014 11.1949 5.64014 8.76662V6.59303C5.64014 4.16459 7.61576 2.18896 10.0439 2.18896C12.4723 2.18896 14.4479 4.16459 14.4479 6.59303V8.76662C14.4479 11.1949 12.4723 13.1704 10.0439 13.1704ZM10.0439 2.81396C7.96029 2.81396 6.26514 4.50928 6.26514 6.59303V8.76662C6.26514 10.8501 7.96029 12.5454 10.0439 12.5454C12.1276 12.5454 13.8229 10.8501 13.8229 8.76662V6.59303C13.8229 4.50928 12.1276 2.81396 10.0439 2.81396Z" fill="#0054AB"/>
<path d="M15.9894 17.814H4.03471C3.01627 17.814 2.18799 16.9854 2.18799 15.9672V14.6025C2.18799 13.9998 2.49314 13.192 3.94736 12.7684L5.73533 12.2734C5.90205 12.2279 6.07393 12.325 6.11986 12.4914C6.1658 12.6578 6.0683 12.8298 5.90189 12.8759L4.11799 13.3697C2.81283 13.75 2.81283 14.3917 2.81283 14.6026V15.9673C2.81283 16.6412 3.36096 17.1892 4.03455 17.1892H15.9892C16.663 17.1892 17.211 16.6411 17.211 15.9673V14.6026C17.211 14.0334 16.771 13.6184 15.9028 13.3689L14.201 12.8931C14.0347 12.8467 13.9375 12.6743 13.9841 12.5079C14.0306 12.3418 14.2025 12.244 14.3691 12.2912L16.0731 12.7676C17.5303 13.1867 17.8358 13.9968 17.8358 14.6026V15.9673C17.8361 16.9854 17.0078 17.814 15.9894 17.814Z" fill="#0054AB"/>
</svg>
