<svg viewBox="0 0 31 36" fill="none" xmlns="http://www.w3.org/2000/svg">
<path d="M18.8571 19.2V10.9143C19.3143 11.5429 19.6 12.2857 19.6 13.0857V17.7714H21.5429V13.0857C21.5429 10.8 20.1714 8.8 18.1714 7.88571C18.9714 7.02857 19.4857 5.88571 19.4857 4.68571C19.4857 2.11429 17.3714 0 14.8571 0C12.3429 0 10.2286 2.11429 10.2286 4.68571C10.2286 5.94286 10.7429 7.08571 11.5429 7.88571C9.54286 8.8 8.17143 10.7429 8.17143 13.0857V17.7714H10.1143V13.0857C10.1143 12.2857 10.4 11.5429 10.8571 10.9143V19.2C5.71428 20 2.17143 22.2857 1.54286 25.0857H0V27.0286H1.6C2.51429 30.3429 7.54286 32.8 14 33.0286V35.0857H15.9429V33.0286C22.4 32.8 27.4286 30.2857 28.3429 27.0286H30.0571V25.0857H28.4C27.5429 22.2857 24 20.0571 18.8571 19.2ZM15.7143 31.1429V30.1143H13.7714V31.1429C9.25714 30.9143 4.51429 29.3714 3.42857 27.0286H6.62857V25.0857H3.37143C4.11429 23.3714 6.97143 21.8286 10.6857 21.1429V25.5429C10.6857 26.9143 11.8286 28.0571 13.2 28.0571C13.4857 28.0571 13.7714 28 14.0571 27.8857V19.7714H15.4857V27.8857C15.7714 28 16.0571 28.0571 16.3429 28.0571C17.7143 28.0571 18.8571 26.9143 18.8571 25.5429V21.2C22.5714 21.8857 25.4286 23.3714 26.1714 25.1429H23.0286V27.0857H26.1143C24.9714 29.3143 20.2857 30.9143 15.7143 31.1429Z" fill="#0054AB"/>
</svg>
